<?xml version="1.0" encoding="UTF-8"?>
<svg width="120px" height="186px" viewBox="0 0 120 186" version="1.1" xmlns="http://www.w3.org/2000/svg" xmlns:xlink="http://www.w3.org/1999/xlink">
    <!-- Generator: Sketch 48.2 (47327) - http://www.bohemiancoding.com/sketch -->
    <title>figure/figure-gallery-icons-1</title>
    <desc>Created with Sketch.</desc>
    <defs>
        <linearGradient x1="11.0608849%" y1="62.5172603%" x2="83.5599707%" y2="71.7119045%" id="linearGradient-1">
            <stop stop-color="#2C89EF" offset="0%"></stop>
            <stop stop-color="#006DE3" offset="100%"></stop>
        </linearGradient>
    </defs>
    <g id="Symbols" stroke="none" stroke-width="1" fill="none" fill-rule="evenodd">
        <g id="figure/figure-gallery-icons-1" fill="url(#linearGradient-1)">
            <g>
                <path d="M108.491473,147.442264 C108.01031,148.195214 107.626351,149.004197 107.220521,149.861031 C107.004241,150.317463 106.780265,150.789847 106.541708,151.249143 C106.338388,151.640137 105.837378,152.556684 105.396312,153.23029 C105.287767,153.396749 105.105913,153.499406 104.908668,153.50554 L93.4753633,153.864225 C93.0136407,153.864634 92.5867498,153.868315 92.1711995,153.872404 C91.7767102,153.875676 91.3903213,153.879357 91.0091976,153.879357 C90.3453701,153.879357 89.6973384,153.868724 89.0501167,153.829051 C88.4936195,153.795105 87.5932604,153.25851 87.4903854,152.587358 C87.1181721,150.141598 85.4879673,148.680685 83.7062851,147.278668 C80.8958526,145.067668 78.8318715,142.366698 77.5702348,139.250603 C77.1153975,138.12629 76.9744506,136.661697 77.1830358,135.232277 C77.4349582,133.507975 77.7614041,131.712918 78.7237312,130.374702 C79.1044499,129.845469 79.4580322,129.262659 79.7998689,128.69907 C80.3867426,127.7314 80.9934623,126.730193 81.7856811,125.911395 C82.8508833,124.810394 84.2668326,124.090162 85.6362046,123.394061 C85.950905,123.234146 86.2635803,123.075049 86.5701803,122.912271 C91.0881765,120.511909 95.9091275,120.441562 101.307232,122.698369 C103.387009,123.568291 105.788776,124.704874 107.828861,126.539603 C110.601627,129.034033 111.921181,131.856882 111.862858,135.17011 C111.777399,140.014188 110.674935,144.028424 108.491473,147.442264 M108.994103,124.820618 C107.60205,123.689761 106.043939,122.751538 104.500408,121.830492 C99.924494,119.100075 94.9310046,118.630964 89.7734821,119.230952 C89.2100995,119.296799 88.6584625,119.592908 88.1335568,119.848936 C86.4466493,120.672233 84.8091541,121.608002 83.0882249,122.347456 C81.1214486,123.192429 79.6848433,124.489745 78.8748036,126.497886 C78.7581579,126.787042 78.4961101,127.020166 78.2863098,127.266378 C77.7642393,127.878636 77.1356485,128.423411 76.7237433,129.102743 C75.3940633,131.294112 75.0518215,133.778317 75.0028141,136.276428 C74.9785129,137.509124 75.1069042,138.848566 75.571867,139.967972 C77.06396,143.562585 79.4365661,146.598108 82.4519387,148.971886 C84.1262907,150.290061 85.2680416,151.704348 85.6147386,153.786926 C85.6208139,153.823326 85.6378247,153.857681 85.6487602,153.893263 C86.1809563,155.584846 86.6896612,155.982793 88.4296263,155.993018 C90.7094829,156.006514 92.9889345,155.996289 94.4984434,155.996289 C96.8512036,155.793021 98.4214654,155.595888 99.9973976,155.539039 C101.405246,155.488324 102.818766,155.602432 104.229855,155.622473 C104.550225,155.626972 104.931754,155.641695 105.182461,155.484643 C106.464349,154.678933 107.657943,153.794696 108.364297,152.348917 C109.241975,150.553042 110.248044,148.821378 111.17473,147.049224 C111.637667,146.163761 112.231426,145.292612 112.447302,144.340893 C113.036201,141.743806 113.614974,139.125861 113.908209,136.482968 C114.437164,131.719052 112.664393,127.801746 108.994103,124.820618 M106.232718,134.593393 C104.927744,134.593393 104.92977,132.548443 106.232718,132.548443 C107.538097,132.548443 107.535667,134.593393 106.232718,134.593393 M102.570529,129.838476 C101.26515,129.838476 101.267175,127.793526 102.570529,127.793526 C103.875503,127.793526 103.873478,129.838476 102.570529,129.838476 M87.0477392,134.084201 C85.7427653,134.084201 85.7447904,132.039251 87.0477392,132.039251 C88.3531181,132.039251 88.350688,134.084201 87.0477392,134.084201 M85.674317,128.341163 C86.9796959,128.341163 86.9776708,130.386113 85.674317,130.386113 C84.3693431,130.386113 84.3713682,128.341163 85.674317,128.341163 M82.7970561,135.801141 C81.4916772,135.801141 81.4941073,133.756191 82.7970561,133.756191 C84.10203,133.756191 84.1000049,135.801141 82.7970561,135.801141 M107.020482,127.4557 C105.116079,125.742441 102.828122,124.662707 100.841904,123.832049 C95.7981925,121.723705 91.3150281,121.77851 87.1356285,123.998098 C86.8229532,124.164557 86.5037976,124.326926 86.1830219,124.490113 C84.9027542,125.140817 83.5787444,125.814014 82.6552992,126.769006 C81.9586651,127.489237 81.4131034,128.388197 80.8359501,129.339917 C80.4819628,129.923954 80.1158249,130.527215 79.7071599,131.095711 C78.9060307,132.208982 78.6148214,133.837989 78.3855802,135.411373 C78.2098016,136.611759 78.3256373,137.873493 78.6954204,138.786359 C79.8752431,141.701639 81.8124529,144.233287 84.4527772,146.310957 C86.3421947,147.797635 88.2239168,149.487173 88.6815892,152.336606 C88.7674534,152.439263 89.0161356,152.592225 89.1254909,152.604495 C90.1003736,152.664207 91.1019877,152.655209 92.1603045,152.645394 C92.1611145,152.645394 92.1619245,152.645394 92.1623296,152.645394 C93.663738,148.765714 92.3798252,144.78297 91.8253531,140.847668 C91.7309834,140.179788 92.947258,140.187558 93.0404125,140.847668 C93.5952897,144.786651 94.8164245,148.751809 93.4397621,152.637623 C93.4454324,152.637623 93.4506976,152.637623 93.4563679,152.637623 L96.6021569,152.538647 C96.7742903,150.688785 97.0092018,148.948124 96.7548494,147.065952 C96.4786258,145.022229 96.0630755,143.036583 96.3421342,140.97241 C96.4316435,140.310664 97.6475131,140.304938 97.5571936,140.97241 C97.278135,143.035356 97.6904452,145.021411 97.9699088,147.065952 C98.2250713,148.931355 97.992995,150.667109 97.8208615,152.500611 L101.303222,152.391002 C101.557979,150.565679 101.745099,148.742402 101.522338,146.903174 C101.285806,144.952701 100.779531,143.109383 101.009178,141.13437 C101.086131,140.469352 102.302001,140.464854 102.224237,141.13437 C101.996616,143.091387 102.498841,144.968242 102.737397,146.903174 C102.962588,148.729314 102.776684,150.540322 102.523952,152.352557 L104.551481,152.289163 C104.896963,151.73171 105.273226,151.049515 105.465611,150.67897 C105.694042,150.239305 105.913158,149.777965 106.124578,149.330939 C106.529193,148.477786 106.947173,147.595185 107.470864,146.776796 C109.527555,143.560908 110.566835,139.757301 110.647839,135.148393 C110.699682,132.214298 109.512974,129.697783 107.020482,127.4557" id="Combined-Shape-Copy-14" transform="translate(94.500000, 137.500000) rotate(23.000000) translate(-94.500000, -137.500000) "></path>
                <path d="M36.0505696,179.189426 C36.0730267,177.461791 35.4853982,176.971056 33.3712189,176.950415 C32.2333904,176.939062 30.4063417,178.47835 30.3469907,179.498006 C30.2117131,181.840221 31.0902151,182.816531 33.3353944,182.818079 C34.9624677,182.819111 36.0222308,181.403152 36.0505696,179.189426 M33.1541332,174.058638 C33.8251739,174.132429 34.5074432,174.157198 35.1667207,174.288783 C37.7781653,174.809963 38.9603733,176.221278 38.9988712,178.802927 C39.0635692,183.166909 36.3403736,186.230004 32.5354924,185.986443 C30.3074233,185.843505 28.4926725,184.901769 27.5954563,182.840784 C26.6725748,180.719426 26.7196279,178.670826 28.4702154,176.844115 C29.7700561,175.486982 30.7228804,173.64737 33.1541332,174.058638" id="Fill-13-Copy-3"></path>
                <path d="M92.5684295,34.0945733 C93.0588665,33.4376489 93.7050439,32.8448268 93.9937923,32.1049173 C94.2578737,31.42911 92.9543947,30.6096938 91.7249165,30.5927986 C90.8562529,30.5808726 89.9658244,30.5764003 89.9160068,31.8052763 C89.8840849,32.6008405 91.3379839,33.8307103 92.5684295,34.0945733 M92.3952772,27.0318907 C95.2924347,26.7312559 96.5098212,28.5698491 96.9180351,31.9692589 C97.3741318,35.7726623 95.945867,36.7570551 92.1534443,36.9960722 C91.7660281,37.0204211 91.3689386,36.9260069 90.9795877,36.8658799 C87.1160661,36.2690825 86.7426762,34.0205327 87.1107458,30.4233499 C87.2969571,28.6016518 90.0693288,27.036363 92.3952772,27.0318907" id="Fill-15-Copy-3"></path>
                <path d="M14.5238823,43.0594065 C12.360795,44.710328 10.8039763,46.8275762 10.0383278,49.4560102 C9.90499034,49.9134693 10.1565606,50.4825548 10.2300003,51 C10.7445995,50.9238437 11.3263882,50.978092 11.7618182,50.7501449 C13.9363642,49.6114524 15.5364134,47.9803524 16.0796592,45.4656312 C16.3098746,44.4010085 16.6885321,43.3682045 17,42.3207952 C16.820307,42.2138635 16.640614,42.1069317 16.4609209,42 C15.8119427,42.3484409 15.1025459,42.6181175 14.5238823,43.0594065 M40,51.7130095 C39.147701,51.2233389 38.0118161,51 36.7998973,51 C34.1988184,51 31.2483946,52.0279174 30,53.6582915 C30.9935782,55.5315466 32.3195479,56 33.7159003,56 C34.9247367,56 36.1859748,55.6493579 37.3295659,55.5544389 C38.8481891,55.4293691 39.4395068,53.2948074 40,51.7130095 M85.4936719,92.9740431 C85.0165242,93.770348 84.3084634,93.9994659 83.5911003,94 C83.0165533,94 82.4359871,93.8531295 81.9626698,93.7329628 C79.5484778,93.1214476 78.0168995,91.4818393 76.6549494,89.8545146 C75.7137866,88.729754 75.056067,87.3924317 74.4202349,86.0994376 L74.105602,85.463355 C73.8681225,84.9885629 74.0984886,84.3209699 74.1471883,84.192258 C74.2801549,83.8387007 74.470029,83.6069125 74.7102444,83.5043702 C75.7209,83.0717699 76.7758778,82.7240875 77.7974772,82.3876206 C78.155338,82.2695902 78.5131987,82.1515598 78.8699651,82.0297908 C79.0193473,81.9790537 79.184598,81.9934737 79.3219421,82.0703805 C79.4116809,82.1205834 79.4839096,82.1932176 79.531515,82.2802717 C81.0368283,82.0965501 82.2586983,82.7844379 83.0844045,84.2878573 L83.1380289,84.3871951 C84.0983433,86.1352206 85.0914889,87.9430624 85.808852,89.835822 C86.1552218,90.7464188 86.0195192,92.0954907 85.4936719,92.9740431 Z M65.3577509,79.6754706 C65.1334301,79.6951391 64.9070746,79.7059099 64.6807191,79.7162124 C64.3734861,79.7302613 64.0835476,79.7433736 63.8449842,79.785052 L63.8022564,79.7925447 C63.0916528,79.9175798 62.6221559,80 62.1831789,80 C61.5539615,80 61.0376676,79.8168961 60.6485396,79.4558397 C59.9867678,78.8423715 59.9928717,78.0884143 60.0020277,76.94062 C60.0020277,76.9186101 60.0025364,76.8970685 60.0040623,76.8755268 C60.2390651,72.827105 63.3602274,70 67.5933292,70 C68.3339439,70 69.0979573,70.0866348 69.8640052,70.2570947 C71.1158273,70.535731 71.9098518,71.9476445 71.9800475,72.8168025 C72.2674426,76.3707034 69.4204502,79.3190971 65.3577509,79.6754706 Z M64.8400434,91.6285649 C64.8064218,91.767495 64.7095717,91.8849411 64.5755874,91.9493932 C64.5053334,91.9828128 64.4275523,92 64.3502729,92 C64.2810226,92 64.2127759,91.9866322 64.1480419,91.959419 C60.9083309,90.6006732 59.2618793,86.8987353 60.3186995,83.3476631 C60.3573392,83.2163718 60.4536875,83.1070419 60.5831555,83.0478415 C60.7121217,82.9876862 60.8616622,82.9843442 60.9951447,83.0373382 C63.6116028,84.076688 65.588248,88.4928507 64.8400434,91.6285649 Z M57.3714142,78.0293563 C57.3578259,78.3471586 57.3296427,78.6638837 57.2989431,79 C55.7221943,78.5793159 54.5596376,77.5612712 53.3356819,76.4899004 C52.9043785,76.1117695 52.4650226,75.7271748 52,75.3635874 C52.2380473,75.3253434 52.473075,75.289254 52.7045798,75.2531646 C54.1071968,75.0339348 55.4318067,74.8265553 56.7211877,74.4726636 C57.6673377,74.2135739 58.4353296,73.711554 59,73 C58.0523402,74.5092917 57.4479114,76.2636682 57.3714142,78.0293563 Z M46.1857176,70.3124373 C45.9009746,70.0815762 45.5095163,69.9488039 45.056861,69.7954384 C44.8166249,69.7136073 44.5693083,69.6290666 44.3224973,69.5261003 C44.0837785,69.4263857 43.9522809,69.1516283 44.0160067,68.8866257 C44.4954673,66.8858289 45.6713596,65.9678035 47.6964231,66.0008611 C50.2186488,66.0398799 53.1318271,66.2176321 55.7789756,67.8482924 C56.3398635,68.1940422 57.0944576,69.1147773 56.990271,69.8756437 C56.8886133,70.6191684 55.9696471,71.3990023 55.2883882,71.5155167 L55.0972109,71.5491162 C53.8039823,71.7729323 52.4915348,72 51.1886967,72 C49.4822621,72 47.7930233,71.6098121 46.1857176,70.3124373 Z M44.727126,81.4926167 C44.4576436,81.8303628 44.0246883,81.9964341 43.4034915,82 L43.3385978,82 C41.9748381,82 41.1658953,81.7524214 40.6408008,81.1762663 C40.1216508,80.6067336 39.9304371,79.7519252 40.022081,78.4055256 C40.1127341,77.0698237 40.2682809,75.7229147 40.4178833,74.4203252 C40.485254,73.8385665 40.5526246,73.2568077 40.6140507,72.6750489 C40.6358471,72.468224 40.7780189,72.2955303 40.9731956,72.239494 L41.7434993,72.0194241 C41.9565094,71.9567653 42.1828945,72.04948 42.2988116,72.2430599 C42.4523769,72.500827 42.6242711,72.7519715 42.7961652,73.0041349 C43.2043519,73.6027045 43.626409,74.221651 43.8418959,74.9378969 C44.2535502,76.3067111 44.5126299,77.7341087 44.7632882,79.1141301 C44.8247144,79.4523857 44.8861405,79.7901318 44.9495482,80.1268591 C45.0610069,80.7182968 44.9881872,81.165059 44.727126,81.4926167 Z M29.2047899,54.9535272 C28.8842068,54.3709796 28.9444437,53.6418589 29.3543613,53.1251087 C31.059884,50.9778669 34.6623604,50 37.2882834,50 C38.8105428,50 40.1577066,50.3006352 41.1842873,50.8692745 C41.8698656,51.2490806 42.1761552,52.1060515 41.8974317,52.8645938 C41.8489358,52.9967235 41.8004399,53.1325978 41.7504126,53.2711468 C41.1643785,54.9080575 40.278691,57.3816115 37.9309811,57.5688399 C37.5251474,57.6009361 37.0789855,57.6731528 36.606789,57.749114 C35.8420859,57.8726847 35.0513482,58 34.2243663,58 C31.974669,58 30.3324462,57.0034102 29.2047899,54.9535272 Z M27.2503987,66.4448476 C27.2166303,66.5974555 27.1139923,66.7221876 26.9766973,66.7779391 L26.5052733,66.9692894 C26.4532878,66.9900781 26.3999694,67 26.3470952,67 C26.1911387,67 26.0414028,66.912593 25.9605364,66.7614026 C25.8730053,66.5974555 25.7525945,66.4226415 25.6250745,66.2374333 C25.2940558,65.7574037 24.9514847,65.2613101 25.0056918,64.7004881 C25.1811984,62.8989596 25.4677851,61.0870368 25.7445967,59.3341727 C25.8467904,58.6892511 25.9489841,58.0438569 26.045846,57.3984628 C26.0827246,57.1499435 26.2973313,56.9746571 26.5310439,57.0030053 L27.1504266,57.0729309 C27.3277104,57.0932471 27.4765578,57.2236488 27.528099,57.4046049 C28.4229603,60.5257423 27.881778,63.5821513 27.2503987,66.4448476 Z M23.4874077,43.6726968 C22.7370638,43.2675657 22.2731214,42.3714798 21.7811462,41.4220872 C21.5648266,41.0041625 21.3414988,40.5723781 21.089671,40.1763092 C21.0027694,40.0403771 20.9775399,39.8665972 21.0205235,39.7061439 C21.0639743,39.5456907 21.1704989,39.4177546 21.3092611,39.3607164 C24.8684891,37.9006454 27.749324,37.6293143 30.6493146,38.4806225 C30.7759293,38.5179372 30.8833883,38.6138893 30.9445932,38.7455569 C31.0062653,38.8772245 31.0170112,39.031814 30.9740276,39.1730768 C30.4507491,40.8804909 28.9131514,42.5564541 27.05598,43.4440109 C26.2822754,43.8134265 25.5394069,44 24.8708252,44 C24.3606287,44 23.8929486,43.8912543 23.4874077,43.6726968 Z M18.9103652,27.8642075 C17.4045692,27.7380799 17.2629861,27.2451675 17.0053834,25.554768 C16.9842442,25.4155928 17.0260309,25.2744845 17.1189449,25.1676869 C17.212842,25.0613724 17.3485259,25 17.4915839,25 L26.4064076,25 C26.6384466,25 26.8385312,25.1589884 26.8867088,25.3817655 L26.9889633,25.8500322 C27.0366493,26.0679768 26.9265291,26.2897874 26.72202,26.3864369 C26.5435663,26.4710052 26.3641292,26.5541237 26.1851839,26.6362758 C25.8120532,26.8083119 25.4266324,26.9861469 25.0623507,27.1770296 C23.8318553,27.8236147 22.5605564,28 21.2912239,28 C20.5228402,28 19.7554398,27.9352448 18.9973799,27.8714562 L18.9103652,27.8642075 Z M18.9357967,42.3062831 C18.8365191,42.6401755 18.7310687,42.9720036 18.6256183,43.3038318 C18.4049442,43.9974197 18.1966154,44.6523029 18.0561864,45.3040898 C17.471837,48.0123855 15.7697138,50.1225648 12.9976551,51.5768288 C12.4148489,51.8823378 11.8078663,51.9220746 11.3649747,51.9509741 C11.2255745,51.9602632 11.0938901,51.9690363 10.9956413,51.983486 C10.92054,51.9943233 10.8454388,52 10.7703375,52 C10.4395835,52 10.1155165,51.8931751 9.84700384,51.6924268 C9.51830733,51.4457489 9.30071949,51.0777964 9.24259319,50.6701071 C9.23024778,50.5828925 9.19989865,50.4564572 9.16697756,50.322281 C9.05175375,49.8480196 8.89434978,49.1977809 9.09959221,48.4907754 C9.92364825,45.6560444 11.5979943,43.2584183 14.0758208,41.3644691 C14.5912416,40.9707135 15.1462706,40.7013289 15.6354574,40.4639401 C15.8242393,40.3725971 16.0125068,40.2817701 16.1956304,40.1832022 C16.423506,40.0608954 16.674015,40 16.9245239,40 C17.1971517,40 17.4697794,40.0722487 17.7120581,40.2167462 L18.0330387,40.4076893 L18.2444538,40.5336086 C18.8524652,40.8958844 19.1374384,41.6266288 18.9357967,42.3062831 Z M12.9371266,28.228919 C12.5573898,29.504054 11.7747262,30.6415187 11.0181514,31.7409556 L10.8326311,32.0105198 C9.66539947,33.7140694 7.83918439,34 6.28641844,34 C6.16515389,34 6.04582185,33.9985559 5.92793918,33.9951864 C5.9245573,33.9951864 5.92020917,33.9951864 5.91634416,33.994705 L5.86416659,33.994705 C5.69845448,33.9937423 5.35398587,33.9927795 5.00227037,33.9321276 C4.0737028,33.7723145 3.38814746,33.2870989 3.1200127,32.6001916 C2.8697536,31.9609393 3.01372505,31.2456314 3.52535515,30.5866432 C4.50175216,29.3269118 5.711982,28.2674282 6.65697584,27.485692 C7.74835676,26.5826519 8.96776599,25.8634931 9.90841169,25.3378429 C10.3321129,25.1014928 11.2582649,24.9147233 11.6925948,25.0403595 C11.9061364,25.1019742 12.0129072,25.2290545 12.0650848,25.3253274 L12.1781362,25.5327956 C12.6288924,26.3564105 13.1898013,27.3812359 12.9371266,28.228919 Z M86.8226046,83.9761634 C86.6192332,83.5808251 86.4168735,83.1859942 86.2215965,82.7886258 C84.4635973,79.2072357 81.313364,77.795893 77.1078252,78.7103984 C75.2906359,79.1052293 73.4441044,80.0298846 72.1414143,81.2098098 C70.7329914,82.4836215 70.4891481,82.7043817 69.4125949,82.0705208 C72.7489991,79.99436 74.3754645,76.9712141 74.2500016,73.0731473 C74.1660223,70.4463547 72.5810406,68.6041489 70.1142769,68.2661574 C68.2500389,68.0113951 66.5401001,68.0149476 65.0310033,68.2752923 C62.9310164,68.6386585 60.9605396,69.9936694 59.5667877,71.8145604 C59.9436825,71.1893269 60.1814551,70.4387423 60.2659402,69.5790462 C60.5011833,67.1765663 59.7317108,65.5840479 57.8431897,64.5660136 C54.8543381,62.9542104 51.8872403,62.173176 48.7602783,62.2021032 C48.5149172,62.2031182 48.2695562,62.2026107 48.0241952,62.2010882 C45.5715966,62.1955058 42.8220353,62.1757135 41.4515548,65.2597588 L35.8391108,59.1424177 C35.8871712,59.1439401 35.9357375,59.1454626 35.9837979,59.1469851 C36.5883473,59.1657624 37.2141444,59.1835247 37.8379179,59.1033406 L38.0433129,59.0769508 C38.864893,58.9744369 39.7957472,58.8582206 40.423062,58.3202762 C42.6753246,56.3943338 43.9436135,54.2877233 44.3012841,51.8801685 C44.6407424,49.5928898 43.8130915,48.3038533 41.6174897,47.6994271 C40.448357,47.3776755 38.9190242,47.0183692 37.4175158,47.0488189 C33.7755486,47.1376305 30.7624139,48.0846156 28.2273538,49.9420462 L26.4010583,46.8762707 C29.8669726,46.4012557 32.1713428,44.2027886 34.2379403,41.9703194 C35.3322,40.7888717 35.7895327,39.4287859 35.5259593,38.1407644 C35.2588446,36.836503 34.2865067,35.7514793 32.7880337,35.0851388 C31.6320544,34.5710466 30.3025517,34.4314856 29.273553,34.3675413 C26.1359672,34.1726633 23.2063058,34.6654407 20.33887,35.873278 L19.2056562,31.4464018 C19.2208332,31.4458943 19.2360101,31.4453868 19.2506812,31.4453868 C19.6336468,31.4357444 19.9366803,31.4286394 20.2220074,31.4611191 C23.3570637,31.8199179 26.1511441,30.7622989 28.4676559,29.6798127 C30.0445432,28.9429304 30.8307103,27.77823 30.8701704,26.1182149 C30.9339137,23.4041332 29.3221193,21.7562979 26.4470951,21.5974521 C23.470891,21.4335313 20.4461206,21.4954456 17.6034739,21.5725848 C16.6999382,21.5969446 16.4383884,21.4315013 16.2082044,20.6849766 L15.9405838,19.8090407 C15.3851066,17.9785073 14.8098994,16.0855521 13.9144581,14.37022 C12.5637077,11.785042 12.0436434,9.26837576 12.3254292,6.67660031 C12.5540956,4.57303477 11.9272867,2.71560415 10.2922209,0.653653177 L9.77418033,0 L9.43472207,0.762764538 C9.29104674,1.08553117 9.11651157,1.40626782 8.94754129,1.71634708 C8.56811701,2.4141523 8.17604525,3.13530227 8.12343175,3.91176917 L8.07840674,4.57354226 C7.83658699,8.06459832 7.58667287,11.6739006 9.41398021,15.1400895 C10.2471959,16.720428 10.8603456,18.4626573 11.4527534,20.1480472 C11.6571366,20.7281136 11.8665788,21.3234049 12.0841154,21.9095613 C7.42225568,23.2442724 3.8146896,25.8055981 1.0681637,29.7265022 C0.0224703758,31.2195516 -0.272468766,32.999843 0.258725229,34.6106312 C0.780307142,36.1899547 2.03797216,37.4135245 3.7094626,37.9672012 C7.58313157,39.2506553 12.7089007,38.3062077 15.0097295,34.0193999 C15.0613312,33.9224684 15.1159683,33.8275669 15.1741467,33.7301279 L16.4065168,37.9641562 C16.2921836,38.0215031 16.1768386,38.0793575 16.0604818,38.1372119 C15.5125932,38.4112591 14.9495275,38.6924111 14.3955681,38.9913255 C10.4278019,41.1283857 7.8310221,44.5392576 6.67706639,49.1295472 C6.2485699,50.8326994 6.86475493,52.7185497 8.24636522,53.9329845 C9.51516002,55.0489654 11.1426372,55.3681796 12.602156,54.7855756 C15.46858,53.6411751 18.2788491,52.1191985 19.4257223,48.761106 C19.6847426,48.0024014 20.0049767,47.2563842 20.3434231,46.46723 C20.4253788,46.2759045 20.5078403,46.0830565 20.5913137,45.8861485 C20.6282443,45.9140607 20.6570805,45.9374055 20.6666926,45.9500929 C22.2946757,48.5794229 23.7587476,50.9529756 25.189936,53.366113 C25.2213017,53.4457896 25.1975244,53.7142543 25.1186042,53.8497554 C23.2670137,57.0373296 22.4049617,60.6791116 22.323512,65.6591571 C22.2815224,68.1824208 24.6830251,70.6940121 27.3612547,70.9289821 C29.9018796,71.1512648 31.2394767,69.8810056 31.8323904,66.678714 C32.0661158,65.4140372 32.2285093,64.1518979 32.4000091,62.8156643 C32.4333985,62.5522746 32.4672937,62.2863473 32.5027066,62.0183901 C32.8725188,62.4269234 33.2398015,62.8339341 33.6050606,63.2378999 C35.1880187,64.9907866 36.6834563,66.6457268 38.2375782,68.307772 C38.714641,68.8178042 38.7839491,69.2009627 38.5229052,69.887603 C37.5146484,72.5407853 37.1089174,75.5025244 37.2839585,78.9423235 C37.3532667,80.3049468 38.07822,81.575206 38.5046929,82.2110969 C40.132676,84.639459 42.7613274,84.5861721 44.8759854,84.54202 C48.020148,84.4780757 49.0845596,83.4062469 49.0956893,80.2932744 C49.0987247,79.5284799 49.0440876,78.7850001 48.9813562,77.9247966 C48.977309,77.8684647 48.9727559,77.8111178 48.9687087,77.7542784 C49.1280669,77.8791221 49.2848956,78.0029508 49.4397007,78.1247495 C50.410521,78.889544 51.32721,79.6122165 52.2737471,80.2729746 C53.065985,80.8266513 54.1212904,81.5148141 55.2565279,81.9289298 L55.6359522,82.0659534 C56.2298776,82.2801161 56.7914256,82.4826065 56.8647809,82.5907029 C56.8951349,82.6688571 56.8369565,83.0017736 56.7853548,83.295613 C56.739318,83.5595103 56.6831632,83.8812619 56.6315615,84.2786303 C56.0179059,89.0658278 58.9500968,94.4544066 63.3068994,96.5457922 C63.9367437,96.8477516 64.5802472,97 65.1893497,97 C65.7159906,97 66.2168306,96.8863212 66.6605041,96.6579486 C67.467919,96.2428179 68.0067015,95.4846208 68.1782012,94.5234259 C68.5566137,92.3985455 68.8242343,89.8940592 67.9343579,87.4256049 C67.7927062,87.0333115 67.6637019,86.6374657 67.5124381,86.173108 C67.5276151,86.178183 67.542792,86.1827504 67.557969,86.1878254 C68.1903428,86.3893008 68.7367138,86.5633714 69.3240626,86.6024485 C71.4194964,86.7404871 72.3301147,88.0706307 73.3879496,89.9351662 C75.4570767,93.5835457 78.6558763,95.8693018 82.6398313,96.5457922 C84.0447129,96.7817773 85.5548216,96.3443168 86.7927565,95.3399848 C88.1020232,94.2788134 88.9241092,92.7263871 88.9913938,91.1871557 C89.1117977,88.4345044 87.947724,86.1675256 86.8226046,83.9761634 Z M69.9843416,73.6865963 C69.9464829,73.1666015 69.4486923,72.3464895 69.0261074,72.2422821 C68.3630686,72.0786766 67.7184476,72 67.1024764,72 C63.7330526,72 61.2021477,74.3592549 61.0021106,78.1701185 C60.9923901,79.5711867 60.9882973,80 61.6615681,80 C61.9649493,80 62.4054403,79.9129868 63.0454569,79.788459 C63.5892919,79.6832096 64.1546143,79.6998828 64.7086814,79.646216 C67.9225776,79.3341149 70.212517,76.8076071 69.9843416,73.6865963" id="Combined-Shape"></path>
            </g>
        </g>
    </g>
</svg>