<?xml version="1.0" encoding="UTF-8"?>
<svg width="150px" height="87px" viewBox="0 0 150 87" version="1.1" xmlns="http://www.w3.org/2000/svg" xmlns:xlink="http://www.w3.org/1999/xlink">
    <!-- Generator: Sketch 48.2 (47327) - http://www.bohemiancoding.com/sketch -->
    <title>figure/figure-blog-icons-1</title>
    <desc>Created with Sketch.</desc>
    <defs>
        <linearGradient x1="11.0608849%" y1="62.5172603%" x2="83.5599707%" y2="71.7119045%" id="linearGradient-1">
            <stop stop-color="#2C89EF" offset="0%"></stop>
            <stop stop-color="#006DE3" offset="100%"></stop>
        </linearGradient>
    </defs>
    <g id="Symbols" stroke="none" stroke-width="1" fill="none" fill-rule="evenodd">
        <g id="figure/figure-blog-icons-1" fill="url(#linearGradient-1)">
            <g>
                <path d="M79.0505696,80.189426 C79.0730267,78.4617907 78.4853982,77.9710556 76.3712189,77.9504148 C75.2333904,77.9390624 73.4063417,79.4783503 73.3469907,80.4980061 C73.2117131,82.8402213 74.0902151,83.8165314 76.3353944,83.8180794 C77.9624677,83.8191115 79.0222308,82.4031523 79.0505696,80.189426 M76.1541332,75.0586381 C76.8251739,75.132429 77.5074432,75.157198 78.1667207,75.2887831 C80.7781653,75.8099634 81.9603733,77.2212784 81.9988712,79.802927 C82.0635692,84.166909 79.3403736,87.2300044 75.5354924,86.9864429 C73.3074233,86.8435053 71.4926725,85.9017686 70.5954563,83.8407843 C69.6725748,81.7194257 69.7196279,79.6708258 71.4702154,77.8441147 C72.7700561,76.4869818 73.7228804,74.6473701 76.1541332,75.0586381" id="Fill-13-Copy-4"></path>
                <path d="M57.5684295,7.09457332 C58.0588665,6.43764892 58.7050439,5.84482683 58.9937923,5.10491729 C59.2578737,4.42911004 57.9543947,3.60969376 56.7249165,3.59279858 C55.8562529,3.58087257 54.9658244,3.57640032 54.9160068,4.80527628 C54.8840849,5.60084054 56.3379839,6.83071034 57.5684295,7.09457332 M57.3952772,0.0318907118 C60.2924347,-0.268744128 61.5098212,1.56984911 61.9180351,4.96925892 C62.3741318,8.77266233 60.945867,9.75705508 57.1534443,9.9960722 C56.7660281,10.0204211 56.3689386,9.9260069 55.9795877,9.86587993 C52.1160661,9.2690825 51.7426762,7.02053267 52.1107458,3.42334985 C52.2969571,1.6016518 55.0693288,0.0363629656 57.3952772,0.0318907118" id="Fill-15-Copy-4"></path>
                <path d="M114.326933,21.8108019 C114.932056,19.9953983 114.491224,18.4796904 113.140666,17.1884931 C112.680956,16.749392 112.306453,16.5264477 111.984503,16.5264477 C111.557958,16.5264477 111.224783,16.9185582 110.909976,17.7184426 C109.773201,20.6130637 109.776262,23.4946318 110.973754,26.4988976 C112.785042,25.343973 113.7014,23.6883375 114.326933,21.8108019 M114.128507,55.2717127 C115.58213,55.2717127 117.048508,54.8106827 118.127627,53.8713928 C117.478115,53.4349023 116.768906,53.0678535 116.190825,52.5483463 C115.114256,51.5813841 113.953501,51.0926819 112.767235,51.0926819 C111.825875,51.0926819 110.868189,51.4002093 109.922237,52.0204852 C109.246193,52.4637632 109.346196,52.9696953 109.749782,53.4443004 C110.7789,54.6535252 112.445285,55.2717127 114.128507,55.2717127 M107.921912,52.4340025 C107.989261,51.9510435 108.248454,51.2581932 109.096443,50.7016156 C110.28577,49.9220938 111.520507,49.5263285 112.76749,49.5263285 C114.323667,49.5263285 115.856884,50.1643564 117.200809,51.3714928 C117.496228,51.6367286 117.885527,51.8784692 118.297786,52.1343069 C118.523304,52.2747566 118.748823,52.4152062 118.968218,52.5624435 C119.371293,52.8334226 119.625894,53.2824439 119.655487,53.774801 C119.68508,54.2671581 119.486604,54.7448958 119.119244,55.0644319 C117.805422,56.208392 116.032911,56.8380661 114.128762,56.8380661 C111.890929,56.8380661 109.874531,55.9760496 108.595405,54.4728725 C107.914769,53.6724659 107.853542,52.9221826 107.921912,52.4340025 M107.445875,34.8015625 C107.359137,34.9644632 107.194335,35.0683647 107.013206,35.0746301 L106.997389,35.0746301 C106.821363,35.0746301 106.657582,34.9822152 106.564211,34.8287126 C106.061642,34.005855 105.569788,33.208059 105.087118,32.4269708 C103.846258,30.4162951 102.673768,28.5168306 101.569137,26.5693313 C101.141061,25.8143489 100.88493,24.8249357 100.808907,23.629286 C100.725741,22.339655 101.165042,21.7199012 101.548218,21.4269931 C101.935477,21.1314744 102.650808,20.8751146 103.863096,21.3314456 C106.210627,22.2174794 107.853542,24.166023 108.370907,26.6774096 C108.798473,28.7538721 109.101035,31.1942507 108.098959,33.5542231 C108.0112,33.7615038 107.909666,33.9468557 107.756089,34.2267108 C107.671903,34.3807356 107.570879,34.5655653 107.445875,34.8015625 M109.489824,17.1346627 C110.056681,15.6915291 110.895996,14.9600421 111.984299,14.9600421 C112.940455,14.9600421 113.698645,15.5787517 114.185397,16.0439587 C116.011482,17.7893984 116.561501,19.9582758 115.775759,22.3161597 C115.236965,23.9331585 114.236929,26.2633702 111.783782,27.8281572 C111.537855,27.9847926 111.257233,28.0651987 110.973549,28.0651987 C110.815381,28.0651987 110.656702,28.0401371 110.502615,27.9894916 C110.073008,27.8469535 109.727077,27.5180193 109.556663,27.0904048 C108.227535,23.7561606 108.205085,20.4062528 109.489824,17.1346627 M118.321767,24.8494752 C118.571265,24.7789893 118.828927,24.910563 118.9274,25.1528257 C119.766205,27.2141467 119.510074,28.97525 118.166659,30.3854902 C117.296731,31.2991963 116.309961,32.1032577 115.291558,32.9130624 C114.599187,33.4644188 113.87008,33.979227 113.164953,34.4768052 C112.856779,34.6950505 112.547584,34.9132957 112.241451,35.1346736 C112.154203,35.1978499 112.051138,35.2307433 111.947053,35.2307433 C111.886847,35.2307433 111.82613,35.2197788 111.767965,35.1973278 C111.610307,35.1372842 111.491425,35.0004894 111.451117,34.8328896 C110.657722,31.5169195 114.510408,25.9192946 118.321767,24.8494752 M122.676001,85.9289031 C122.011182,85.0835944 121.233604,84.3312227 120.482047,83.6033905 C120.066216,83.2013598 119.636609,82.7852319 119.236595,82.3628386 C118.888623,81.9957898 118.534019,81.6329179 118.179415,81.269524 C117.121214,80.1845632 116.026788,79.0635763 115.127267,77.8475639 C111.80317,73.3536961 110.355671,68.1032796 109.378595,63.5592884 C109.027563,61.9250597 108.887762,60.2166903 108.740308,58.4080743 C108.695408,57.8593285 108.649488,57.2990961 108.597446,56.7278992 C108.716838,56.7983851 108.813269,56.8584287 108.90613,56.922127 C112.51493,59.4000981 117.305405,59.3907 120.826957,56.8991538 C121.656068,56.3128156 122.092307,55.7322206 122.199454,55.0727858 C122.301498,54.4457223 122.092307,53.7826327 121.560656,53.0454024 C120.573887,51.678498 119.474868,50.2651252 118.12278,49.1859077 C115.369112,46.9898803 112.301147,46.6985385 109.247468,48.3385105 C109.09032,48.4230936 108.920926,48.4946237 108.72143,48.5734635 C108.718878,48.3907223 108.720409,48.2314764 108.734185,48.0800622 C108.797963,47.3913888 108.875006,46.7021933 108.951029,46.0140421 C109.109198,44.5985808 109.271959,43.1345625 109.314307,41.6809865 C109.361758,40.0415367 110.424551,39.2813332 111.683268,38.38068 C112.424621,37.8502083 113.198628,37.3322674 113.947123,36.8315565 C115.181861,36.0055661 116.458946,35.1513814 117.646743,34.2047819 C118.639125,33.4132513 119.573341,32.3340338 120.502966,30.9055195 C121.969344,28.6520591 121.541268,26.2252556 120.929001,24.1493153 C120.486128,22.6466603 119.423336,21.851997 117.764604,21.7804669 C118.249825,19.1797981 117.573781,16.9947352 115.66402,14.950644 C114.231317,13.417184 112.612893,12.7530502 111.107228,13.0825065 C109.638298,13.4030869 108.461727,14.635807 107.793336,16.5535456 C107.508122,17.3732706 107.253521,18.2185793 107.007594,19.0367378 C106.950959,19.2252224 106.894325,19.4137069 106.836669,19.6032357 C106.731564,19.5484133 106.628499,19.4935909 106.525944,19.4392907 C105.924903,19.1223652 105.357536,18.8226696 104.743739,18.593982 C102.943165,17.9214942 101.240044,18.0645545 99.9481622,18.9954905 C98.6802605,19.9091967 97.9889097,21.4609308 98.0001346,23.3656165 C98.0098288,24.9721729 98.2526945,26.1803535 98.743528,27.0580335 C100.17215,29.6158886 101.749756,32.1351069 103.27532,34.5718307 C103.699825,35.2495396 104.124329,35.9272485 104.545773,36.6065237 C104.773332,36.9720062 105.157529,37.2894538 105.548869,37.4351246 C105.94225,37.5813176 106.022355,37.6914845 105.903473,38.4375908 C104.645266,46.3784803 104.413625,54.1068679 105.215184,61.4086852 C106.013171,68.6755207 108.126,74.5979028 111.674594,79.5146861 C113.562926,82.1315404 115.874742,84.4685397 118.110535,86.7287876 C118.72076,87.3448866 119.329455,87.9609856 119.930497,88.5817836 C120.294795,88.9577085 120.97237,89 121.258094,89 L121.268809,89 C121.605045,88.9989558 122.220373,88.9441334 122.55814,88.5901375 C123.090302,88.0319936 123.15663,86.539781 122.676001,85.9289031" id="Combined-Shape" transform="translate(110.500000, 51.000000) rotate(-58.000000) translate(-110.500000, -51.000000) "></path>
                <path d="M46.5460185,51.5946712 L46.3915703,48.3139836 C43.736209,48.5519742 41.0364961,48.6487059 38.3540021,48.5883126 C38.3503496,49.0141366 38.3670467,49.4491732 38.4046152,49.9072411 C41.269212,49.6400775 44.0544976,50.2250737 46.5460185,51.5946712 M38.7572371,44.6566567 C39.5644377,44.5138624 40.2469318,44.1126051 40.9654291,43.6903637 C41.4105112,43.42883 41.8707252,43.1580837 42.3742472,42.9436362 C42.8579414,42.7378895 43.3353742,42.5782055 43.7966317,42.4246632 C44.5328696,42.1789955 45.2325826,41.9343514 45.9114242,41.5320705 L45.5586979,38.416185 C45.1798824,38.7391357 44.8000233,39.0610628 44.4201641,39.3829898 C43.0071718,40.5811317 41.5461752,41.8202183 40.1723167,43.0915487 C39.7908922,43.4457196 39.3218079,43.8311109 38.7869788,44.0557944 C38.781761,44.2641002 38.7723689,44.4672879 38.7572371,44.6566567 M42.3414269,44.6911526 C42.1227992,44.8088683 41.9109547,44.9281195 41.7022409,45.0448117 C40.7165901,45.5996113 39.7825958,46.1252378 38.5746647,46.2322057 C38.5365745,46.5060228 38.4984842,46.7793281 38.4640464,47.0541689 C41.0912313,47.1099559 43.7293737,47.0137361 46.3195118,46.782399 L46.1864568,43.963362 L46.0982752,43.1838788 C45.5232687,43.4592314 44.9409572,43.6685607 44.3706468,43.8645831 C43.699632,44.0954084 43.0056586,44.3339108 42.3414269,44.6911526 M48.2915441,55.4586149 C48.248236,56.3629791 48.2581499,57.2745087 48.267542,58.2392663 C48.2717163,58.6661139 48.2764124,59.1001269 48.2764124,59.5453996 C48.2764124,59.7654769 48.1798823,59.9748063 48.0118676,60.1206715 C47.8443748,60.2670485 47.6173986,60.3361426 47.3977273,60.3074813 C44.6620113,59.9758299 42.6557499,58.2750928 40.7157552,56.6301428 C40.4553847,56.4090418 40.2466709,56.1756575 40.0447403,55.9499503 C39.868899,55.7534161 39.7034933,55.5676299 39.5302608,55.4217647 C39.1869267,55.1320815 38.8028933,55.018972 38.522695,55.125428 C38.2498017,55.2298368 38.1600548,55.5241263 38.132922,55.7523925 C37.5772215,60.4605118 34.5164337,63.7355695 32.261803,65.7889422 C29.9983019,67.8505037 27.5219127,68.9058513 24.8999457,68.9268354 L24.7413232,68.9283708 C24.2957192,68.9319535 23.8475064,68.9355361 23.3987717,68.9355361 C20.5780048,68.9355361 17.7029723,68.7917181 14.9463848,67.5930644 C5.5584384,63.5108859 1.38259717,56.8625035 2.17988386,47.2676439 C2.23519302,46.601782 2.29989429,45.9369438 2.36459557,45.2726173 C2.45121179,44.3810483 2.54095873,43.4597943 2.60461643,42.5564537 C2.85507298,39.0050198 4.77367454,36.1972426 8.46895226,33.973438 C10.0390018,33.0281291 11.7301053,32.3423067 13.4686912,31.6656969 C16.1203999,30.6344043 18.6197476,31.2547153 21.0371751,31.8560894 C21.4947801,31.9691989 21.9523851,32.083332 22.4115555,32.1856936 C28.6672297,33.5803696 32.9442971,37.7812875 36.7893269,41.9653158 C37.2364963,42.4510213 37.5975711,42.7028307 37.8631594,42.7135787 C38.1663162,42.7386572 38.5498278,42.4822416 39.0977015,41.9750401 C40.4966057,40.6801665 41.9711687,39.4308439 43.3961621,38.2214422 C44.0108242,37.7009337 44.6254863,37.1799134 45.2349306,36.6547987 C45.4822565,36.4408631 45.8402006,36.4029893 46.1292692,36.5590907 L46.6202684,36.8247189 C46.8430704,36.9449937 46.991779,37.1640474 47.0199553,37.4117623 L47.7452358,43.8185716 C47.7468011,43.8349494 47.7483665,43.8513273 47.7488883,43.8682169 L48.2915441,55.3869618 C48.2931095,55.4110167 48.2931095,55.4345599 48.2915441,55.4586149 M50.9385568,60.4349215 C50.669316,58.6497361 50.4971271,56.8456138 50.3870306,55.0435388 C50.1470098,51.1067137 50.0588282,47.1596525 49.7431486,43.2294809 C49.5313041,40.5952065 49.163446,37.9573494 48.6228773,35.3696495 C48.2242339,33.4600948 46.4240775,33.0583258 44.9103807,34.2938296 C42.6260082,36.1573216 40.3014583,37.974239 38.2117115,39.638126 C35.7775868,37.6292806 33.5229561,35.5994512 31.0877879,33.805565 C28.4830397,31.8867979 25.4071202,30.84834 22.2894579,30.0146052 C19.3079814,29.2166969 16.2612818,28.4193005 13.2166693,29.5938992 C11.0199566,30.440941 8.79611113,31.3463289 6.81802615,32.5849036 C3.22710532,34.8342986 0.847768072,37.9860106 0.519043847,42.3414944 C0.400598769,43.9178623 0.233105949,45.4901356 0.102659828,47.0659916 C-0.762980632,57.5503731 3.85637741,64.7673739 13.5584381,69.2426208 C17.1895363,70.9172557 21.0330009,71.0580028 24.9615162,70.9853261 C28.6818396,70.9167439 31.6669687,69.2810063 34.1078765,66.8678329 C36.4439056,64.55958 38.8477667,62.1433357 39.573569,58.4404067 C42.1517061,60.7153921 45.0110851,61.9734155 48.0765689,62.8598665 C50.2534538,63.4888782 51.26989,62.629553 50.9385568,60.4349215 M46.632426,53.4301673 C46.620425,53.423002 46.6079021,53.4194193 46.5959011,53.4112304 C44.1706468,51.8558467 41.480326,51.189473 38.5906835,51.4300226 C38.7127811,52.1813564 38.8672293,52.9101706 39.0169814,53.5688672 C39.5460709,53.6287487 40.0793347,53.859574 40.5505061,54.2572486 C40.8077458,54.4737432 41.0180249,54.7096866 41.2220427,54.9379529 C41.3968405,55.1329516 41.5612026,55.3172024 41.7328697,55.4630676 C43.3357916,56.8214053 44.8573152,58.1116726 46.7059976,58.6106852 C46.704954,58.491434 46.7033887,58.3732064 46.7023451,58.254467 C46.6924312,57.279985 46.6830391,56.3582193 46.7263472,55.4226348 L46.632426,53.4301673 Z M31.615312,50.7433814 C31.1957973,51.6738478 30.2905012,52.1595534 28.84568,52.227112 L28.6067027,52.2383718 L28.5978323,52.4727797 C28.5383489,54.0010376 27.8975975,55.3992963 26.693319,56.6286585 C25.5156514,57.8314067 24.3598987,57.689636 22.7611511,57.0391283 C19.0903972,55.5446497 16.2696303,51.6958556 15.7415844,47.4632056 C15.7113209,47.2165143 15.7781093,47.0312399 15.9414279,46.9109651 C16.0609165,46.8224223 16.226844,46.7768714 16.4016418,46.7768714 C16.5326097,46.7768714 16.6682736,46.8024618 16.7935019,46.8541544 C16.9641255,46.9258075 17.2589337,47.1074992 17.3111121,47.5251344 C17.604355,49.8804735 18.9129905,52.3003005 20.8107207,53.997455 C21.9330791,55.0021335 22.9500371,55.6106729 23.8313311,55.8051599 C24.5633947,55.9689384 25.2568463,55.7724042 25.836027,55.243195 C26.7115814,54.4427277 27.2265827,52.9098635 27.034566,51.6794777 C26.9881272,51.3831411 27.075787,51.0663321 27.2563244,50.8723569 C27.3888577,50.7305862 27.5631337,50.6676338 27.7661079,50.6773582 C28.6714039,50.7316098 29.2484976,50.5509417 29.5370444,50.1179523 C30.060916,49.3313038 29.3664209,48.0133989 28.8081115,46.9544687 C28.6249651,46.6054159 28.4512109,46.2763235 28.3677254,46.0475454 C28.2023197,45.5889657 28.4778219,45.3090069 28.7914144,45.19948 C29.1222257,45.0848351 29.6867965,45.1155435 29.8892489,45.6749494 C30.1016152,46.2594338 30.4585158,46.8096271 30.8044589,47.3419072 C31.5161729,48.4366639 32.1882314,49.4710274 31.615312,50.7433814 M9.28763211,45.7092405 C8.94690684,45.7112877 7.74158468,45.6468 7.73167078,44.733735 C7.72488758,44.1717701 7.90855572,43.6630332 8.23571459,43.3375235 C8.44286303,43.1322886 8.67818783,43.0283916 8.93542759,43.0278798 L8.93803651,43.0278798 C9.43216641,43.0278798 9.87620501,43.1978 10.1887539,43.5069318 C10.375031,43.6916944 10.5962676,44.0100388 10.5910498,44.4773193 C10.5816576,45.3131013 10.1678825,45.7041224 9.28763211,45.7092405 M36.7908923,49.0528804 C36.7700209,48.1300911 36.8921185,47.2175379 37.0105636,46.3356932 C37.1070937,45.6155797 37.2010149,44.8755057 37.2192774,44.1385026 C36.5607853,43.9255906 36.0327394,43.4342551 35.6262693,42.9925651 C31.7974148,38.8264501 27.8782915,34.9786796 22.0650906,33.6832942 C21.5928756,33.5778618 21.122226,33.4606578 20.6520982,33.3439657 C19.2323226,32.9908183 17.861073,32.6499544 16.500259,32.6499544 C15.6810574,32.6499544 14.86603,32.7738118 14.0457848,33.0931799 C12.3739873,33.7436875 10.7517594,34.4008486 9.28711033,35.2821815 C6.00978198,37.2552004 4.38233617,39.6003034 4.1663174,42.6624491 C4.10161612,43.5857502 4.01082562,44.5172403 3.92316583,45.4185337 C3.85898633,46.0762067 3.79480684,46.7338796 3.74001947,47.3925762 C3.00325978,56.2560625 6.87646601,62.4049206 15.580353,66.1897388 C18.4668648,67.4441796 21.5078247,67.4175656 24.7282786,67.3929988 L24.8869011,67.3914634 C27.1060505,67.3740619 29.2291916,66.4558788 31.1968408,64.6635281 C34.5357398,61.6223666 36.1950144,58.8191956 36.5780042,55.5753582 C36.6620115,54.8670163 36.9923011,54.2953271 37.5015628,53.9391089 C37.1013541,52.173884 36.8268954,50.6333427 36.7908923,49.0528804" id="Combined-Shape-Copy-15" opacity="0.900000036"></path>
            </g>
        </g>
    </g>
</svg>