<?xml version="1.0" encoding="UTF-8"?>
<svg width="394px" height="388px" viewBox="0 0 394 388" version="1.1" xmlns="http://www.w3.org/2000/svg" xmlns:xlink="http://www.w3.org/1999/xlink">
    <!-- Generator: Sketch 48.2 (47327) - http://www.bohemiancoding.com/sketch -->
    <title>figure/figure-hero-icons-1</title>
    <desc>Created with Sketch.</desc>
    <defs>
        <linearGradient x1="11.0608849%" y1="62.5172603%" x2="83.5599707%" y2="71.7119045%" id="linearGradient-1">
            <stop stop-color="#2C89EF" offset="0%"></stop>
            <stop stop-color="#006DE3" offset="100%"></stop>
        </linearGradient>
    </defs>
    <g id="Symbols" stroke="none" stroke-width="1" fill="none" fill-rule="evenodd">
        <g id="figure/figure-hero-icons-1" fill="url(#linearGradient-1)">
            <g id="figure/figure-hero-1">
                <path d="M48.641711,380.491483 L48.0811329,380.070152 C47.8805842,379.919776 47.6896181,379.784645 47.5096034,379.657137 C47.1276711,379.386875 46.7669572,379.131859 46.4384133,378.820019 C45.482898,377.910138 44.521907,377.003723 43.562285,376.097307 C40.6450887,373.344104 37.6443875,370.510516 34.794269,367.611094 C33.7176032,366.516188 32.851753,365.221705 32.0132815,363.969493 C31.6245046,363.387391 31.2384654,362.81014 30.8318923,362.253679 C30.6730961,362.03539 30.5231979,361.796313 30.3739842,361.557235 C30.0680277,361.067993 29.7798673,360.605776 29.4348962,360.405505 C28.947556,360.121384 28.3089488,360.008429 27.6333803,359.889236 C27.58889,359.880921 27.5450841,359.873298 27.4999094,359.864982 C27.4855356,360.330664 27.4786909,360.76031 27.5690405,361.135904 C27.7422105,361.865611 28.049536,362.645904 28.5361917,363.59182 C31.2042421,368.773219 35.4034442,372.681617 39.5437821,376.134728 C41.048924,377.390405 42.4952017,378.741019 44.0256688,380.171327 L44.0797417,380.221914 C44.797747,380.89341 45.5424466,381.588467 46.332321,382.311244 L47.0968701,383.011152 L46.1639422,383.453272 C45.7984371,383.625824 45.4603106,383.816393 45.1372424,383.99726 C44.4028099,384.408196 43.7128676,384.793492 42.9305224,384.902983 C42.4739832,384.96743 42.0037547,385 41.5321573,385 C36.7573189,385.000693 32.1843982,381.666081 30.6600912,377.070942 C30.4171056,376.341235 30.1953385,375.603906 29.9735713,374.866577 C29.7476974,374.115389 29.541673,373.426568 29.3178524,372.743292 C27.528657,367.291631 23.6360959,364.239754 17.7476305,363.672205 C16.3184644,363.534996 14.8584974,363.435207 13.4457585,363.338883 L12.5566365,363.277901 C9.67434799,363.076937 7.10896751,361.791462 5.33414584,359.658475 C3.57643584,357.546277 2.76808089,354.809012 3.05761022,351.949783 C3.36835802,348.870188 5.0630971,346.971427 8.09459928,346.306168 C10.4190476,345.796829 13.1979816,345.464199 16.1713041,346.868866 C16.9509115,347.235452 18.555301,346.701858 19.3266947,346.444763 C19.955035,346.235484 20.568317,345.686645 21.1624339,345.155824 L21.5128808,344.844676 C23.1254839,343.436544 25.2596505,342.816329 27.6942978,343.047091 C30.7388049,343.332598 34.0399869,345.019307 35.7224056,347.149522 C36.5102265,348.147411 36.4616294,349.777296 36.4226148,351.086332 L36.4157701,351.33927 C36.3863381,352.378044 36.2706632,353.417512 36.1584107,354.42233 C36.0352068,355.530403 35.9133717,356.632238 35.9031047,357.698732 C35.877095,360.218401 37.4404165,361.863532 39.9825251,361.992426 C40.8757539,362.038162 41.8004682,362.026382 42.693697,362.015987 C43.8477075,362.001434 45.0078783,361.986882 46.1570975,362.079741 C47.4705888,362.187153 48.8388373,362.558589 50.113314,363.153164 C50.9182466,363.528066 51.8518589,364.608419 51.9052473,365.559185 C52.1235921,369.489758 52.0914222,373.687128 50.3966831,377.748674 C50.2310422,378.142979 50.0085906,378.483231 49.7936681,378.812396 C49.7217991,378.921887 49.6506146,379.03207 49.5814835,379.142254 C49.4870271,379.294709 49.3829882,379.443007 49.2495172,379.629418 L48.641711,380.491483 Z M50.2233977,385.138539 C51.0974766,385.438246 51.9626223,385.792068 52.7995941,386.134096 C54.1244558,386.675928 55.4761171,387.229555 56.8312142,387.557013 C58.648776,387.996862 60.5955256,388.016288 62.7669794,387.994087 C63.2033317,387.989231 63.6245663,387.803301 63.838963,387.518856 C63.997699,387.310032 64.0389291,387.057501 63.9633405,386.768199 C63.855455,386.35402 63.2040189,385.760848 62.3807905,385.325856 C62.118292,385.186409 61.6771295,385.198896 61.2077931,385.21069 C60.9411716,385.218322 60.6910421,385.225953 60.450533,385.212772 C56.7198928,385.023373 53.9540379,384.093724 51.4829784,382.201125 L50.9785964,381.814697 L51.318745,381.275639 C54.3333551,376.48864 54.2845661,370.95931 54.2412745,366.080041 C54.2234081,364.034813 53.2483154,362.425965 51.566813,361.666289 C49.5417262,360.75121 47.2376487,360.316217 45.6812111,360.068542 C44.4711066,359.875675 43.1620498,359.931176 41.8997205,359.98529 C41.5059727,360.00194 41.1314656,360.017897 40.75902,360.028303 C39.7488817,360.054667 39.0500309,359.819479 38.5820689,359.310254 C38.1422807,358.83086 37.9649912,358.142642 38.0556975,357.265026 C38.1003634,356.82934 38.1415936,356.392266 38.1828237,355.955192 C38.3154473,354.578063 38.4501324,353.173877 38.6768982,351.796054 C39.2403767,348.376472 38.1374706,345.88307 35.2066951,343.947457 C29.1575469,339.953436 24.4916699,340.0131 18.565525,344.15975 C17.8749202,344.642613 16.7032972,344.95689 15.9364167,344.641919 C13.4495523,343.621387 10.9929234,343.715739 7.83538215,344.199295 C4.77610606,344.668282 2.47546447,346.136295 1.18289971,348.445155 C-0.311692715,351.112692 -0.395527325,354.83892 0.963005655,358.170393 C2.99702569,363.150953 6.93862669,365.977363 12.0621583,366.129298 L12.2854882,366.135542 C14.1566492,366.191044 16.0896554,366.247933 17.955319,366.631586 C19.5200027,366.952801 21.1939462,367.591761 22.7964241,368.47909 C26.0110004,370.260686 26.8170496,373.471444 27.595612,376.576749 L27.6677647,376.862581 C28.4724395,380.062933 30.2240331,382.718676 33.0235594,384.982441 C37.5877354,388.672592 43.1050148,388.806489 47.7825737,385.339731 C48.2003724,385.030311 48.7494204,384.965097 49.1369837,384.965097 C49.5108036,384.965097 49.8963053,385.026148 50.2233977,385.138539 Z M27.5,348 C25.5015531,348 25.4984475,351 27.5,351 C29.4984469,351 29.5015525,348 27.5,348 M29.5,353 C27.5015531,353 27.4984475,356 29.5,356 C31.4984469,356 31.5015525,353 29.5,353 M23.5,353 C21.5015531,353 21.4984475,356 23.5,356 C25.4984469,356 25.5015525,353 23.5,353 M9.5,352 C7.5015531,352 7.49844751,355 9.5,355 C11.4984469,355 11.5015525,352 9.5,352 M9.5,357 C7.5015531,357 7.49844751,360 9.5,360 C11.4984469,360 11.5015525,357 9.5,357 M46.5,368 C44.5015531,368 44.4984475,371 46.5,371 C48.4984469,371 48.5015525,368 46.5,368 M45.5,364 C43.5015531,364 43.4984475,367 45.5,367 C47.4984469,367 47.5015525,364 45.5,364 M40.5,367 C38.5015531,367 38.4984475,370 40.5,370 C42.4984469,370 42.5015525,367 40.5,367 M37.5,380 C35.5015531,380 35.4984475,383 37.5,383 C39.4984469,383 39.5015525,380 37.5,380" id="Combined-Shape"></path>
                <path d="M48.8420019,129.831679 C48.8624644,128.559272 47.149909,127.191184 45.5333701,127.189069 C44.1424435,127.186955 43.0133322,128.251611 43.0217271,129.557321 C43.0348441,131.611568 44.2316391,132.820011 46.2988781,132.864416 C48.0151063,132.901948 48.8078977,131.956233 48.8420019,129.831679 M51.9816868,129.395032 C52.0477965,134.185985 49.792722,135.938914 46.0632968,135.999177 C42.621921,136.054155 39.9817314,133.345995 40.0000952,130.042601 C40.0179343,126.832774 42.7525663,123.8455 45.7054651,124.006202 C49.5351041,124.213953 52.2503229,125.612173 51.9816868,129.395032" id="Fill-9"></path>
                <path d="M131.842002,42.8316789 C131.862464,41.5592722 130.149909,40.1911839 128.53337,40.1890694 C127.142444,40.1869548 126.013332,41.2516109 126.021727,42.5573211 C126.034844,44.6115681 127.231639,45.8200109 129.298878,45.8644156 C131.015106,45.9019482 131.807898,44.9562333 131.842002,42.8316789 M134.981687,42.3950325 C135.047796,47.1859847 132.792722,48.9389139 129.063297,48.9991775 C125.621921,49.0541547 122.981731,46.3459954 123.000095,43.0426013 C123.017934,39.8327743 125.752566,36.8454996 128.705465,37.0062024 C132.535104,37.213953 135.250323,38.6121731 134.981687,42.3950325" id="Fill-9-Copy"></path>
                <path d="M225.60094,128.796881 C226.637212,128.78947 227.254847,128.077399 227.254847,126.889379 C227.255376,125.534062 226.217517,124.617635 224.677928,124.613399 C223.391851,124.610223 222.63714,125.303764 222.64455,126.482784 C222.651959,127.714746 224.04865,128.80747 225.60094,128.796881 M219.000663,126.744847 C219.048296,123.603265 221.185937,120.981044 223.684526,121.000103 C227.906354,121.031868 231.071798,123.366614 230.998761,126.3949 C230.920962,129.641307 228.450423,132.061289 225.277569,131.998818 C221.418278,131.92364 218.95356,129.859958 219.000663,126.744847" id="Fill-11"></path>
                <path d="M34.6009405,50.7968814 C35.637212,50.7894695 36.2548468,50.0773987 36.2548468,48.8893787 C36.255376,47.5340618 35.2175167,46.6176347 33.6779284,46.6133993 C32.3918509,46.6102228 31.6371403,47.3037638 31.6445498,48.4827837 C31.6519593,49.7147456 33.0486501,50.8074698 34.6009405,50.7968814 M28.0006634,48.7448469 C28.0482959,45.6032647 30.1859368,42.9810441 32.6845261,43.0001032 C36.9063536,43.0318685 40.071798,45.3666136 39.9987615,48.3948998 C39.9209617,51.6413074 37.4504226,54.0612892 34.2775687,53.9988176 C30.4182775,53.9236399 27.9535602,51.8599581 28.0006634,48.7448469" id="Fill-11-Copy-2"></path>
                <path d="M61.0505696,331.189426 C61.0730267,329.461791 60.4853982,328.971056 58.3712189,328.950415 C57.2333904,328.939062 55.4063417,330.47835 55.3469907,331.498006 C55.2117131,333.840221 56.0902151,334.816531 58.3353944,334.818079 C59.9624677,334.819111 61.0222308,333.403152 61.0505696,331.189426 M58.1541332,326.058638 C58.8251739,326.132429 59.5074432,326.157198 60.1667207,326.288783 C62.7781653,326.809963 63.9603733,328.221278 63.9988712,330.802927 C64.0635692,335.166909 61.3403736,338.230004 57.5354924,337.986443 C55.3074233,337.843505 53.4926725,336.901769 52.5954563,334.840784 C51.6725748,332.719426 51.7196279,330.670826 53.4702154,328.844115 C54.7700561,327.486982 55.7228804,325.64737 58.1541332,326.058638" id="Fill-13-Copy-2"></path>
                <path d="M258.568429,311.094573 C259.058866,310.437649 259.705044,309.844827 259.993792,309.104917 C260.257874,308.42911 258.954395,307.609694 257.724917,307.592799 C256.856253,307.580873 255.965824,307.5764 255.916007,308.805276 C255.884085,309.600841 257.337984,310.83071 258.568429,311.094573 M258.395277,304.031891 C261.292435,303.731256 262.509821,305.569849 262.918035,308.969259 C263.374132,312.772662 261.945867,313.757055 258.153444,313.996072 C257.766028,314.020421 257.368939,313.926007 256.979588,313.86588 C253.116066,313.269083 252.742676,311.020533 253.110746,307.42335 C253.296957,305.601652 256.069329,304.036363 258.395277,304.031891" id="Fill-15"></path>
                <path d="M304.347294,192.808851 C304.377237,191.622827 302.912415,189.937145 301.630152,189.873297 C301.092133,189.84621 300.255161,190.079836 300.055698,190.459537 C299.80987,190.926788 299.859615,191.861774 300.187546,192.253084 C300.811049,192.997009 301.656715,193.632586 302.531358,194.067913 C303.731518,194.664795 304.312038,194.191256 304.347294,192.808851 M297,191.07625 C297.235685,190.248162 297.341937,189.351872 297.733619,188.606496 C298.527124,187.097363 300.315531,186.662036 302.618775,187.256016 C305.079946,187.890142 307.083754,190.569337 306.997304,193.110678 C306.892501,196.218911 304.727868,197.702409 301.791944,196.678423 C299.021677,195.712481 297.15165,193.469097 297,191.07625" id="Fill-19"></path>
                <path d="M121.77564,204.887482 C121.611229,205.065562 121.446818,205.243103 121.282407,205.421183 C121.844014,206.427605 122.306974,207.520369 123.017855,208.397818 C123.294483,208.739408 124.471977,208.864064 124.648393,208.623386 C125.184424,207.893797 125.477754,206.861473 124.485026,206.21229 C123.646792,205.664019 122.683292,205.32135 121.77564,204.887482 M118.848605,205.912792 C118.543792,205.11359 117.926338,204.279312 118.007239,203.52436 C118.133548,202.338779 119.225967,202.072198 120.29542,202.014997 C122.728179,201.884405 124.885875,202.605359 126.735106,204.231284 C128.299357,205.606278 128.420447,208.459336 127.055576,210.549889 C126.042492,212.101883 124.007973,212.44779 122.084106,211.394959 C119.81889,210.154875 118.942032,208.422102 119.239015,205.769788 C119.109052,205.817276 118.978568,205.864764 118.848605,205.912792" id="Fill-21"></path>
                <path d="M54.369499,171.264464 L49.711695,172.381839 C49.888411,173.123866 50.2002327,174.216252 50.5644527,175.425934 L54.592449,172.783197 C54.5035772,172.251794 54.4260071,171.73926 54.369499,171.264464 M86.8335765,168.626776 C86.5556597,168.895537 86.2202074,169.053122 85.9001663,169.035783 C85.5826939,169.030683 85.2364537,168.856268 84.9498038,168.555888 C84.5789055,168.16779 84.3687983,167.643016 84.3878056,167.152412 C84.4186281,166.340007 85.0135037,165.798914 85.8703712,165.798914 C85.879618,165.798914 85.8888647,165.798914 85.8981115,165.799424 C86.8058362,165.811154 87.4104723,166.416505 87.4012255,167.304387 C87.3966021,167.800091 87.1895772,168.282026 86.8335765,168.626776 Z M77.1218984,172.081408 C76.9780597,172.313451 76.4854123,172.748467 75.550461,172.908602 C75.4281981,172.929511 75.3043941,172.937671 75.1929192,172.944811 L75.1405208,172.949911 C73.5048698,172.933591 72.4887524,172.187485 72.2021025,170.792678 C71.8866848,169.261706 72.6639273,167.667496 73.9708043,167.163121 C74.1028276,167.112123 74.2374195,167.054495 74.3756074,166.994827 C74.6093452,166.89385 74.9288725,166.755644 75.0824716,166.755644 L75.0829853,166.755644 C75.2545643,166.771964 75.4610755,166.853051 75.5936126,166.922919 C75.5489199,167.073874 75.4482328,167.304387 75.2997708,167.495631 C75.2052482,167.616497 74.9853805,167.759293 74.7727048,167.897498 C74.4680751,168.094862 74.1223486,168.318745 73.8285067,168.653805 C73.3024682,169.253036 73.2100005,170.173047 73.3471609,170.773809 C73.3964771,170.991572 73.536206,171.299602 73.923543,171.529605 C74.3458122,171.781027 75.1199724,171.948812 75.6840255,171.794287 C75.7934456,171.764708 75.9028657,171.732579 76.0122858,171.70096 C77.0304581,171.405169 77.0304581,171.405169 77.1763516,171.876904 C77.1820024,171.896284 77.1999822,171.954932 77.1218984,172.081408 Z M90.5384494,174.025467 C92.6518503,170.781458 92.8655535,167.124363 91.1569557,163.448397 C90.7259534,162.520736 89.4493853,161.543097 88.4255622,161.356953 C82.765511,160.325765 77.8626675,160.419092 73.4365464,161.642544 C69.0617963,162.851206 64.6762583,164.201134 60.1951703,165.5939 C58.5466765,166.106434 57.1534963,166.22985 55.9098056,165.979958 C55.6853145,167.21871 55.4413025,170.243425 56.7117061,175.397324 C57.2418543,175.435063 57.8562509,175.574799 58.584691,175.805312 C58.9596989,175.923628 59.3316246,176.053674 59.7045777,176.18423 C60.620008,176.50552 61.5267053,176.82324 62.4462453,176.977765 C64.8581114,177.383712 67.2679227,177.626465 69.5128332,177.827908 C71.6026035,178.015583 73.6178858,178.118599 75.5042271,178.135429 C76.4751381,178.136449 77.525674,178.08494 78.3640479,178.040062 C79.2337581,177.992633 80.1337772,177.943675 81.0209535,177.943675 L81.0779752,177.943675 C83.9480702,177.943675 86.3594226,176.668715 88.6911501,175.435573 C89.0630757,175.238719 89.4350014,175.042375 89.8084682,174.850621 C90.0997415,174.701196 90.3175543,174.366137 90.5096817,174.070346 L91.1584968,174.482923 L90.5101954,174.068816 L90.5384494,174.025467 Z M54.9041165,174.4128 L51.032288,176.953031 C51.4951403,178.441164 51.9826506,179.955817 52.3597133,181.113991 C52.4244407,180.951816 52.4891681,180.790151 52.5544092,180.628486 L53.2926098,180.856449 L52.5764988,180.573408 C52.8744503,179.831381 53.182676,179.064365 53.4641888,178.301939 C53.9691652,176.932631 54.4844158,176.096768 55.1974446,175.68929 C55.0900793,175.249684 54.9914471,174.823337 54.9041165,174.4128 M48.7045675,166.803838 C48.9393327,168.277182 49.182831,169.729616 49.4006439,170.88218 L54.231568,169.723496 C54.1940672,169.118145 54.1807108,168.571442 54.1868753,168.082368 L48.7045675,166.803838 Z M50.386401,162.782358 C50.0817713,162.591624 49.7771416,162.40089 49.4755941,162.208116 C49.1848345,162.021972 48.8653072,161.869487 48.4959501,161.693032 C48.3099872,161.603785 48.107072,161.506888 47.884122,161.394691 C48.0248785,162.362641 48.2257389,163.721749 48.4492025,165.172653 L54.2746683,166.531251 C54.3224432,166.095215 54.3810061,165.741796 54.4385416,165.471504 C54.0517183,165.27618 53.6741418,165.049237 53.3104355,164.762626 C52.3888407,164.035389 51.3711821,163.398419 50.386401,162.782358 M91.8338193,174.85516 L91.8065927,174.897489 C91.806079,174.897489 91.806079,174.897489 91.806079,174.897999 L91.158805,174.483382 L91.8045379,174.900039 C91.5379226,175.311086 91.1721615,175.873088 90.5161544,176.209678 C90.1483384,176.398372 89.7825773,176.592166 89.4168161,176.78596 C86.9171057,178.107329 84.3326332,179.473576 81.109106,179.473576 L81.0140698,179.473576 C80.1762096,179.473576 79.2977663,179.521515 78.4475771,179.567413 C77.5891685,179.613822 76.5227076,179.66839 75.4916926,179.66533 C73.5627134,179.647991 71.5053069,179.542934 69.3744399,179.35169 C67.0987068,179.147696 64.6524221,178.901374 62.1881576,178.486757 C61.1386491,178.309792 60.1677382,177.969633 59.2291909,177.640183 C58.8336346,177.501978 58.4760928,177.376522 58.1170098,177.262795 C57.2709303,176.995563 56.7192063,176.852768 56.3123484,176.899686 C56.307725,176.900706 56.3036153,176.903256 56.2989919,176.904786 C56.2748476,176.910906 56.2507032,176.909886 56.2265589,176.913966 C55.6470946,177.027182 55.3707188,177.582555 54.9109488,178.828446 C54.6217304,179.610762 54.3099087,180.387978 54.0083612,181.139694 C54.0083612,181.139694 53.985758,181.195282 53.985758,181.195792 C53.8527073,181.526772 53.7196565,181.857752 53.5891743,182.189751 L53.0102237,183.655446 C52.8941253,183.949196 52.6095303,184.14095 52.2925715,184.14095 C52.2858933,184.14095 52.2787014,184.14095 52.2720231,184.14095 C51.9473587,184.132281 51.6632774,183.922677 51.5610492,183.616687 C51.4516291,183.286727 48.8620195,175.50794 48.1972794,172.673448 C47.4878465,169.645673 46.2030591,160.537357 46.1486059,160.150789 C46.1090502,159.868768 46.2307994,159.587767 46.4645372,159.422532 C46.698275,159.257297 47.005987,159.234348 47.2613006,159.363374 L48.5496841,160.014113 C48.7757163,160.12835 48.9786315,160.225247 49.1640806,160.314494 C49.5632329,160.504718 49.9392683,160.684743 50.3101665,160.921885 C50.6070906,161.112109 50.9076107,161.299783 51.2081308,161.487967 C52.2273304,162.125958 53.281976,162.785367 54.2698394,163.564623 C55.7349389,164.720757 57.3187053,164.884971 59.7346811,164.133765 C64.2286118,162.737428 68.6264788,161.382911 73.0233185,160.168129 C77.6795814,158.882969 82.8089708,158.779442 88.7032736,159.851939 C90.2217989,160.12835 91.9144717,161.426259 92.5566086,162.807296 C94.4974031,166.983046 94.2472265,171.149106 91.8338193,174.85516 M94.6304538,162.024471 C93.7468735,159.822869 91.9643015,158.377065 89.3325677,157.728365 C88.7823849,157.592709 88.2378528,157.538651 87.6563336,157.480513 C87.4210547,157.457053 87.1857757,157.434104 86.9515242,157.404015 C81.3859955,156.703807 76.8550776,156.90984 72.6909484,158.052715 C68.2838346,159.262907 63.8417885,160.630684 59.54204,161.954603 L59.0457966,162.107088 C57.8873817,162.463567 56.6344442,162.657871 55.312156,161.677172 C54.1599056,160.822438 52.8535423,159.853468 51.4315944,159.128271 C49.8858425,158.340346 48.265089,157.698786 46.6145404,157.220931 C45.9189777,157.017957 45.1961884,157.138823 44.6829927,157.542731 C44.2211678,157.904819 43.9730461,158.444892 44.0023276,159.024744 L44.0244171,159.467411 C44.0886308,160.77756 44.1548993,162.132587 44.3953153,163.447836 C45.4386593,169.154558 46.4522082,174.417594 47.4945248,179.536814 C47.8741561,181.401826 48.388893,183.261228 48.8866775,185.059432 L49.1491831,186.011572 C49.4902862,187.256443 50.2505762,188 51.182959,188 C51.2708033,188 51.3596751,187.99388 51.446492,187.980621 C52.3583263,187.848025 53.3893413,187.177906 53.793117,186.454238 C54.8338924,184.587696 55.7950429,182.499312 56.6498555,180.247222 C56.7654401,179.944291 56.9508893,179.527124 57.2318884,179.401668 C57.5051818,179.279782 57.9269373,179.412378 58.2649582,179.540894 C59.7074545,180.089127 60.9110758,180.429796 62.0525383,180.613901 C64.4849528,181.005568 66.8680512,181.294729 69.1350512,181.473734 C71.7359625,181.677727 74.3086196,181.722606 76.2627706,181.738415 C77.1571388,181.756775 78.062295,181.659878 78.9900543,181.570121 C79.3614663,181.534422 79.7339057,181.498723 80.133058,181.468634 C84.5093492,182.182612 90.4596464,178.758068 92.1826281,177.689142 C92.6002739,177.43007 92.9203149,177.021063 93.2121019,176.624295 C96.3786073,172.31493 96.842487,167.539439 94.6304538,162.024471" id="Combined-Shape"></path>
                <path d="M152.369499,101.264464 L147.711695,102.381839 C147.888411,103.123866 148.200233,104.216252 148.564453,105.425934 L152.592449,102.783197 C152.503577,102.251794 152.426007,101.73926 152.369499,101.264464 M184.833576,98.6267756 C184.55566,98.8955373 184.220207,99.0531223 183.900166,99.0357829 C183.582694,99.030683 183.236454,98.8562685 182.949804,98.5558879 C182.578905,98.16779 182.368798,97.6430163 182.387806,97.1524117 C182.418628,96.340007 183.013504,95.7989139 183.870371,95.7989139 C183.879618,95.7989139 183.888865,95.7989139 183.898111,95.7994239 C184.805836,95.8111535 185.410472,96.4165046 185.401225,97.3043869 C185.396602,97.8000914 185.189577,98.2820264 184.833576,98.6267756 Z M175.121898,102.081408 C174.97806,102.313451 174.485412,102.748467 173.550461,102.908602 C173.428198,102.929511 173.304394,102.937671 173.192919,102.944811 L173.140521,102.949911 C171.50487,102.933591 170.488752,102.187485 170.202102,100.792678 C169.886685,99.2617058 170.663927,97.6674956 171.970804,97.1631213 C172.102828,97.1121229 172.23742,97.0544947 172.375607,96.9948266 C172.609345,96.8938497 172.928872,96.755644 173.082472,96.755644 L173.082985,96.755644 C173.254564,96.7719635 173.461076,96.853051 173.593613,96.9229188 C173.54892,97.0738741 173.448233,97.3043869 173.299771,97.4956309 C173.205248,97.6164972 172.985381,97.7592927 172.772705,97.8974984 C172.468075,98.0948622 172.122349,98.3187453 171.828507,98.6538048 C171.302468,99.2530361 171.210001,100.173047 171.347161,100.773809 C171.396477,100.991572 171.536206,101.299602 171.923543,101.529605 C172.345812,101.781027 173.119972,101.948812 173.684025,101.794287 C173.793446,101.764708 173.902866,101.732579 174.012286,101.70096 C175.030458,101.405169 175.030458,101.405169 175.176352,101.876904 C175.182002,101.896284 175.199982,101.954932 175.121898,102.081408 Z M188.538449,104.025467 C190.65185,100.781458 190.865553,97.1243625 189.156956,93.4483973 C188.725953,92.5207362 187.449385,91.5430967 186.425562,91.3569525 C180.765511,90.3257647 175.862667,90.4190918 171.436546,91.6425436 C167.061796,92.8512059 162.676258,94.2011338 158.19517,95.5939003 C156.546676,96.1064343 155.153496,96.2298505 153.909806,95.9799583 C153.685315,97.2187096 153.441303,100.243425 154.711706,105.397324 C155.241854,105.435063 155.856251,105.574799 156.584691,105.805312 C156.959699,105.923628 157.331625,106.053674 157.704578,106.18423 C158.620008,106.50552 159.526705,106.82324 160.446245,106.977765 C162.858111,107.383712 165.267923,107.626465 167.512833,107.827908 C169.602603,108.015583 171.617886,108.118599 173.504227,108.135429 C174.475138,108.136449 175.525674,108.08494 176.364048,108.040062 C177.233758,107.992633 178.133777,107.943675 179.020953,107.943675 L179.077975,107.943675 C181.94807,107.943675 184.359423,106.668715 186.69115,105.435573 C187.063076,105.238719 187.435001,105.042375 187.808468,104.850621 C188.099742,104.701196 188.317554,104.366137 188.509682,104.070346 L189.158497,104.482923 L188.510195,104.068816 L188.538449,104.025467 Z M152.904117,104.4128 L149.032288,106.953031 C149.49514,108.441164 149.982651,109.955817 150.359713,111.113991 C150.424441,110.951816 150.489168,110.790151 150.554409,110.628486 L151.29261,110.856449 L150.576499,110.573408 C150.87445,109.831381 151.182676,109.064365 151.464189,108.301939 C151.969165,106.932631 152.484416,106.096768 153.197445,105.68929 C153.090079,105.249684 152.991447,104.823337 152.904117,104.4128 M146.704567,96.8038375 C146.939333,98.2771816 147.182831,99.7296162 147.400644,100.88218 L152.231568,99.7234964 C152.194067,99.1181453 152.180711,98.5714424 152.186875,98.0823676 L146.704567,96.8038375 Z M148.386401,92.782358 C148.081771,92.591624 147.777142,92.40089 147.475594,92.208116 C147.184835,92.0219718 146.865307,91.8694865 146.49595,91.693032 C146.309987,91.6037848 146.107072,91.5068879 145.884122,91.3946914 C146.024878,92.3626411 146.225739,93.7217487 146.449202,95.1726534 L152.274668,96.531251 C152.322443,96.0952147 152.381006,95.7417957 152.438542,95.4715041 C152.051718,95.2761802 151.674142,95.0492373 151.310436,94.7626262 C150.388841,94.0353889 149.371182,93.3984188 148.386401,92.782358 M189.833819,104.85516 L189.806593,104.897489 C189.806079,104.897489 189.806079,104.897489 189.806079,104.897999 L189.158805,104.483382 L189.804538,104.900039 C189.537923,105.311086 189.172161,105.873088 188.516154,106.209678 C188.148338,106.398372 187.782577,106.592166 187.416816,106.78596 C184.917106,108.107329 182.332633,109.473576 179.109106,109.473576 L179.01407,109.473576 C178.17621,109.473576 177.297766,109.521515 176.447577,109.567413 C175.589169,109.613822 174.522708,109.66839 173.491693,109.66533 C171.562713,109.647991 169.505307,109.542934 167.37444,109.35169 C165.098707,109.147696 162.652422,108.901374 160.188158,108.486757 C159.138649,108.309792 158.167738,107.969633 157.229191,107.640183 C156.833635,107.501978 156.476093,107.376522 156.11701,107.262795 C155.27093,106.995563 154.719206,106.852768 154.312348,106.899686 C154.307725,106.900706 154.303615,106.903256 154.298992,106.904786 C154.274848,106.910906 154.250703,106.909886 154.226559,106.913966 C153.647095,107.027182 153.370719,107.582555 152.910949,108.828446 C152.62173,109.610762 152.309909,110.387978 152.008361,111.139694 C152.008361,111.139694 151.985758,111.195282 151.985758,111.195792 C151.852707,111.526772 151.719657,111.857752 151.589174,112.189751 L151.010224,113.655446 C150.894125,113.949196 150.60953,114.14095 150.292572,114.14095 C150.285893,114.14095 150.278701,114.14095 150.272023,114.14095 C149.947359,114.132281 149.663277,113.922677 149.561049,113.616687 C149.451629,113.286727 146.862019,105.50794 146.197279,102.673448 C145.487847,99.6456728 144.203059,90.5373571 144.148606,90.1507892 C144.10905,89.868768 144.230799,89.5877668 144.464537,89.4225319 C144.698275,89.2572971 145.005987,89.2343478 145.261301,89.3633738 L146.549684,90.0141134 C146.775716,90.1283499 146.978632,90.2252469 147.164081,90.3144941 C147.563233,90.5047181 147.939268,90.6847425 148.310167,90.9218851 C148.607091,91.1121092 148.907611,91.2997833 149.208131,91.4879674 C150.22733,92.1259575 151.281976,92.785367 152.269839,93.5646226 C153.734939,94.7207566 155.318705,94.8849714 157.734681,94.1337649 C162.228612,92.7374285 166.626479,91.3829107 171.023318,90.1681286 C175.679581,88.8829688 180.808971,88.779442 186.703274,89.8519385 C188.221799,90.1283499 189.914472,91.4262594 190.556609,92.8072963 C192.497403,96.9830459 192.247227,101.149106 189.833819,104.85516 M192.630454,92.0244707 C191.746873,89.8228694 189.964302,88.3770645 187.332568,87.7283648 C186.782385,87.592709 186.237853,87.5386507 185.656334,87.4805125 C185.421055,87.4570533 185.185776,87.434104 184.951524,87.4040149 C179.385995,86.7038068 174.855078,86.9098403 170.690948,88.0527147 C166.283835,89.2629069 161.841789,90.6306842 157.54204,91.9546029 L157.045797,92.1070881 C155.887382,92.463567 154.634444,92.6578709 153.312156,91.6771715 C152.159906,90.8224382 150.853542,89.8534685 149.431594,89.1282711 C147.885842,88.3403457 146.265089,87.6987857 144.61454,87.2209306 C143.918978,87.017957 143.196188,87.1388232 142.682993,87.5427306 C142.221168,87.9048193 141.973046,88.4448924 142.002328,89.0247443 L142.024417,89.4674105 C142.088631,90.7775596 142.154899,92.1325873 142.395315,93.4478363 C143.438659,99.1545582 144.452208,104.417594 145.494525,109.536814 C145.874156,111.401826 146.388893,113.261228 146.886678,115.059432 L147.149183,116.011572 C147.490286,117.256443 148.250576,118 149.182959,118 C149.270803,118 149.359675,117.99388 149.446492,117.980621 C150.358326,117.848025 151.389341,117.177906 151.793117,116.454238 C152.833892,114.587696 153.795043,112.499312 154.649856,110.247222 C154.76544,109.944291 154.950889,109.527124 155.231888,109.401668 C155.505182,109.279782 155.926937,109.412378 156.264958,109.540894 C157.707454,110.089127 158.911076,110.429796 160.052538,110.613901 C162.484953,111.005568 164.868051,111.294729 167.135051,111.473734 C169.735962,111.677727 172.30862,111.722606 174.262771,111.738415 C175.157139,111.756775 176.062295,111.659878 176.990054,111.570121 C177.361466,111.534422 177.733906,111.498723 178.133058,111.468634 C182.509349,112.182612 188.459646,108.758068 190.182628,107.689142 C190.600274,107.43007 190.920315,107.021063 191.212102,106.624295 C194.378607,102.31493 194.842487,97.5394386 192.630454,92.0244707" id="Combined-Shape-Copy-3" transform="translate(168.000000, 102.500000) rotate(-39.000000) translate(-168.000000, -102.500000) "></path>
                <path d="M364.326933,100.810802 C364.932056,98.9953983 364.491224,97.4796904 363.140666,96.1884931 C362.680956,95.749392 362.306453,95.5264477 361.984503,95.5264477 C361.557958,95.5264477 361.224783,95.9185582 360.909976,96.7184426 C359.773201,99.6130637 359.776262,102.494632 360.973754,105.498898 C362.785042,104.343973 363.7014,102.688337 364.326933,100.810802 M364.128507,134.271713 C365.58213,134.271713 367.048508,133.810683 368.127627,132.871393 C367.478115,132.434902 366.768906,132.067853 366.190825,131.548346 C365.114256,130.581384 363.953501,130.092682 362.767235,130.092682 C361.825875,130.092682 360.868189,130.400209 359.922237,131.020485 C359.246193,131.463763 359.346196,131.969695 359.749782,132.4443 C360.7789,133.653525 362.445285,134.271713 364.128507,134.271713 M357.921912,131.434002 C357.989261,130.951044 358.248454,130.258193 359.096443,129.701616 C360.28577,128.922094 361.520507,128.526328 362.76749,128.526328 C364.323667,128.526328 365.856884,129.164356 367.200809,130.371493 C367.496228,130.636729 367.885527,130.878469 368.297786,131.134307 C368.523304,131.274757 368.748823,131.415206 368.968218,131.562443 C369.371293,131.833423 369.625894,132.282444 369.655487,132.774801 C369.68508,133.267158 369.486604,133.744896 369.119244,134.064432 C367.805422,135.208392 366.032911,135.838066 364.128762,135.838066 C361.890929,135.838066 359.874531,134.97605 358.595405,133.472872 C357.914769,132.672466 357.853542,131.922183 357.921912,131.434002 M357.445875,113.801562 C357.359137,113.964463 357.194335,114.068365 357.013206,114.07463 L356.997389,114.07463 C356.821363,114.07463 356.657582,113.982215 356.564211,113.828713 C356.061642,113.005855 355.569788,112.208059 355.087118,111.426971 C353.846258,109.416295 352.673768,107.516831 351.569137,105.569331 C351.141061,104.814349 350.88493,103.824936 350.808907,102.629286 C350.725741,101.339655 351.165042,100.719901 351.548218,100.426993 C351.935477,100.131474 352.650808,99.8751146 353.863096,100.331446 C356.210627,101.217479 357.853542,103.166023 358.370907,105.67741 C358.798473,107.753872 359.101035,110.194251 358.098959,112.554223 C358.0112,112.761504 357.909666,112.946856 357.756089,113.226711 C357.671903,113.380736 357.570879,113.565565 357.445875,113.801562 M359.489824,96.1346627 C360.056681,94.6915291 360.895996,93.9600421 361.984299,93.9600421 C362.940455,93.9600421 363.698645,94.5787517 364.185397,95.0439587 C366.011482,96.7893984 366.561501,98.9582758 365.775759,101.31616 C365.236965,102.933159 364.236929,105.26337 361.783782,106.828157 C361.537855,106.984793 361.257233,107.065199 360.973549,107.065199 C360.815381,107.065199 360.656702,107.040137 360.502615,106.989492 C360.073008,106.846953 359.727077,106.518019 359.556663,106.090405 C358.227535,102.756161 358.205085,99.4062528 359.489824,96.1346627 M368.321767,103.849475 C368.571265,103.778989 368.828927,103.910563 368.9274,104.152826 C369.766205,106.214147 369.510074,107.97525 368.166659,109.38549 C367.296731,110.299196 366.309961,111.103258 365.291558,111.913062 C364.599187,112.464419 363.87008,112.979227 363.164953,113.476805 C362.856779,113.69505 362.547584,113.913296 362.241451,114.134674 C362.154203,114.19785 362.051138,114.230743 361.947053,114.230743 C361.886847,114.230743 361.82613,114.219779 361.767965,114.197328 C361.610307,114.137284 361.491425,114.000489 361.451117,113.83289 C360.657722,110.516919 364.510408,104.919295 368.321767,103.849475 M372.676001,164.928903 C372.011182,164.083594 371.233604,163.331223 370.482047,162.60339 C370.066216,162.20136 369.636609,161.785232 369.236595,161.362839 C368.888623,160.99579 368.534019,160.632918 368.179415,160.269524 C367.121214,159.184563 366.026788,158.063576 365.127267,156.847564 C361.80317,152.353696 360.355671,147.10328 359.378595,142.559288 C359.027563,140.92506 358.887762,139.21669 358.740308,137.408074 C358.695408,136.859328 358.649488,136.299096 358.597446,135.727899 C358.716838,135.798385 358.813269,135.858429 358.90613,135.922127 C362.51493,138.400098 367.305405,138.3907 370.826957,135.899154 C371.656068,135.312816 372.092307,134.732221 372.199454,134.072786 C372.301498,133.445722 372.092307,132.782633 371.560656,132.045402 C370.573887,130.678498 369.474868,129.265125 368.12278,128.185908 C365.369112,125.98988 362.301147,125.698539 359.247468,127.338511 C359.09032,127.423094 358.920926,127.494624 358.72143,127.573464 C358.718878,127.390722 358.720409,127.231476 358.734185,127.080062 C358.797963,126.391389 358.875006,125.702193 358.951029,125.014042 C359.109198,123.598581 359.271959,122.134562 359.314307,120.680987 C359.361758,119.041537 360.424551,118.281333 361.683268,117.38068 C362.424621,116.850208 363.198628,116.332267 363.947123,115.831556 C365.181861,115.005566 366.458946,114.151381 367.646743,113.204782 C368.639125,112.413251 369.573341,111.334034 370.502966,109.90552 C371.969344,107.652059 371.541268,105.225256 370.929001,103.149315 C370.486128,101.64666 369.423336,100.851997 367.764604,100.780467 C368.249825,98.1797981 367.573781,95.9947352 365.66402,93.950644 C364.231317,92.417184 362.612893,91.7530502 361.107228,92.0825065 C359.638298,92.4030869 358.461727,93.635807 357.793336,95.5535456 C357.508122,96.3732706 357.253521,97.2185793 357.007594,98.0367378 C356.950959,98.2252224 356.894325,98.4137069 356.836669,98.6032357 C356.731564,98.5484133 356.628499,98.4935909 356.525944,98.4392907 C355.924903,98.1223652 355.357536,97.8226696 354.743739,97.593982 C352.943165,96.9214942 351.240044,97.0645545 349.948162,97.9954905 C348.68026,98.9091967 347.98891,100.460931 348.000135,102.365616 C348.009829,103.972173 348.252694,105.180353 348.743528,106.058034 C350.17215,108.615889 351.749756,111.135107 353.27532,113.571831 C353.699825,114.24954 354.124329,114.927248 354.545773,115.606524 C354.773332,115.972006 355.157529,116.289454 355.548869,116.435125 C355.94225,116.581318 356.022355,116.691484 355.903473,117.437591 C354.645266,125.37848 354.413625,133.106868 355.215184,140.408685 C356.013171,147.675521 358.126,153.597903 361.674594,158.514686 C363.562926,161.13154 365.874742,163.46854 368.110535,165.728788 C368.72076,166.344887 369.329455,166.960986 369.930497,167.581784 C370.294795,167.957708 370.97237,168 371.258094,168 L371.268809,168 C371.605045,167.998956 372.220373,167.944133 372.55814,167.590138 C373.090302,167.031994 373.15663,165.539781 372.676001,164.928903" id="Combined-Shape"></path>
                <path d="M80.3269325,10.8108019 C80.9320558,8.99539833 80.491224,7.47969038 79.1406664,6.18849307 C78.6809564,5.74939201 78.3064534,5.52644771 77.9845033,5.52644771 C77.5579577,5.52644771 77.2247828,5.91855818 76.9099758,6.71844263 C75.7732012,9.61306368 75.7762625,12.4946318 76.9737535,15.4988976 C78.7850417,14.343973 79.7014004,12.6883375 80.3269325,10.8108019 M80.1285072,44.2717127 C81.5821297,44.2717127 83.0485077,43.8106827 84.1276273,42.8713928 C83.4781147,42.4349023 82.7689061,42.0678535 82.1908245,41.5483463 C81.1142561,40.5813841 79.9535011,40.0926819 78.7672349,40.0926819 C77.8258753,40.0926819 76.8681886,40.4002093 75.922237,41.0204852 C75.2461929,41.4637632 75.3461964,41.9696953 75.749782,42.4443004 C76.7788998,43.6535252 78.4452848,44.2717127 80.1285072,44.2717127 M73.9219116,41.4340025 C73.989261,40.9510435 74.2484537,40.2581932 75.0964427,39.7016156 C76.2857702,38.9220938 77.5205074,38.5263285 78.76749,38.5263285 C80.3236671,38.5263285 81.8568842,39.1643564 83.200809,40.3714928 C83.4962275,40.6367286 83.8855269,40.8784692 84.2977863,41.1343069 C84.5233044,41.2747566 84.7488226,41.4152062 84.968218,41.5624435 C85.3712934,41.8334226 85.6258942,42.2824439 85.6554871,42.774801 C85.6850799,43.2671581 85.4866036,43.7448958 85.1192437,44.0644319 C83.8054221,45.208392 82.0329108,45.8380661 80.1287623,45.8380661 C77.8909286,45.8380661 75.8745313,44.9760496 74.5954047,43.4728725 C73.9147685,42.6724659 73.8535419,41.9221826 73.9219116,41.4340025 M73.4458745,23.8015625 C73.3591368,23.9644632 73.1943351,24.0683647 73.0132063,24.0746301 L72.9973894,24.0746301 C72.8213628,24.0746301 72.6575815,23.9822152 72.5642109,23.8287126 C72.0616422,23.005855 71.5697882,22.208059 71.0871182,21.4269708 C69.8462583,19.4162951 68.6737681,17.5168306 67.5691375,15.5693313 C67.1410612,14.8143489 66.8849298,13.8249357 66.8089067,12.629286 C66.7257405,11.339655 67.1650417,10.7199012 67.5482184,10.4269931 C67.9354769,10.1314744 68.6508081,9.8751146 69.8630956,10.3314456 C72.210627,11.2174794 73.8535419,13.166023 74.370907,15.6774096 C74.7984731,17.7538721 75.1010347,20.1942507 74.0989587,22.5542231 C74.0112005,22.7615038 73.9096663,22.9468557 73.7560895,23.2267108 C73.6719029,23.3807356 73.5708789,23.5655653 73.4458745,23.8015625 M75.4898239,6.13466273 C76.0566805,4.69152915 76.8959957,3.96004212 77.9842992,3.96004212 C78.9404553,3.96004212 79.6986452,4.57875171 80.185397,5.04395866 C82.0114815,6.78939844 82.5615008,8.95827575 81.7757589,11.3161597 C81.2369645,12.9331585 80.2369294,15.2633702 77.783782,16.8281572 C77.537855,16.9847926 77.2572329,17.0651987 76.9735495,17.0651987 C76.8153806,17.0651987 76.6567016,17.0401371 76.5026145,16.9894916 C76.0730076,16.8469535 75.7270771,16.5180193 75.5566629,16.0904048 C74.2275346,12.7561606 74.2050849,9.40625282 75.4898239,6.13466273 M84.3217667,13.8494752 C84.5712653,13.7789893 84.8289274,13.910563 84.9274003,14.1528257 C85.7662052,16.2141467 85.5100738,17.97525 84.1666593,19.3854902 C83.2967307,20.2991963 82.3099614,21.1032577 81.2915583,21.9130624 C80.599187,22.4644188 79.8700798,22.979227 79.164953,23.4768052 C78.8567789,23.6950505 78.5475843,23.9132957 78.2414511,24.1346736 C78.1542032,24.1978499 78.0511383,24.2307433 77.947053,24.2307433 C77.8868468,24.2307433 77.8261304,24.2197788 77.7679651,24.1973278 C77.6103065,24.1372842 77.4914248,24.0004894 77.4511172,23.8328896 C76.657722,20.5169195 80.5104084,14.9192946 84.3217667,13.8494752 M88.6760013,74.9289031 C88.0111821,74.0835944 87.2336037,73.3312227 86.4820467,72.6033905 C86.0662158,72.2013598 85.6366089,71.7852319 85.2365948,71.3628386 C84.8886234,70.9957898 84.5340191,70.6329179 84.1794148,70.269524 C83.1212144,69.1845632 82.0267882,68.0635763 81.1272668,66.8475639 C77.8031704,62.3536961 76.3556706,57.1032796 75.3785955,52.5592884 C75.0275627,50.9250597 74.8877619,49.2166903 74.7403077,47.4080743 C74.6954082,46.8593285 74.6494882,46.2990961 74.5974456,45.7278992 C74.7168375,45.7983851 74.8132695,45.8584287 74.9061299,45.922127 C78.5149301,48.4000981 83.3054045,48.3907 86.8269568,45.8991538 C87.6560675,45.3128156 88.0923074,44.7322206 88.199454,44.0727858 C88.3014984,43.4457223 88.0923074,42.7826327 87.560656,42.0454024 C86.5738867,40.678498 85.4748685,39.2651252 84.1227802,38.1859077 C81.369112,35.9898803 78.3011471,35.6985385 75.2474684,37.3385105 C75.09032,37.4230936 74.9209263,37.4946237 74.7214295,37.5734635 C74.7188784,37.3907223 74.7204091,37.2314764 74.7341851,37.0800622 C74.7979628,36.3913888 74.8750064,35.7021933 74.9510294,35.0140421 C75.1091983,33.5985808 75.2719591,32.1345625 75.3143075,30.6809865 C75.3617581,29.0415367 76.4245506,28.2813332 77.6832683,27.38068 C78.4246208,26.8502083 79.1986276,26.3322674 79.9471233,25.8315565 C81.1818605,25.0055661 82.4589462,24.1513814 83.646743,23.2047819 C84.6391248,22.4132513 85.5733413,21.3340338 86.5029658,19.9055195 C87.9693439,17.6520591 87.5412676,15.2252556 86.9290012,13.1493153 C86.4861285,11.6466603 85.4233361,10.851997 83.7646043,10.7804669 C84.2498254,8.17979813 83.5737813,5.99473516 81.6640203,3.950644 C80.2313169,2.41718404 78.6128927,1.75305021 77.1072276,2.08250654 C75.6382985,2.40308686 74.4617265,3.63580697 73.7933357,5.55354563 C73.5081216,6.37327056 73.2535208,7.21857927 73.0075938,8.03673785 C72.9509592,8.22522237 72.8943245,8.4137069 72.8366694,8.60323566 C72.7315637,8.54841329 72.6284989,8.49359092 72.5259442,8.43929067 C71.9249027,8.12236517 71.3575359,7.82266955 70.7437388,7.59398196 C68.9431653,6.92149424 67.2400443,7.06455452 65.9481622,7.99549054 C64.6802605,8.90919668 63.9889097,10.4609308 64.0001346,12.3656165 C64.0098288,13.9721729 64.2526945,15.1803535 64.743528,16.0580335 C66.1721496,18.6158886 67.7497561,21.1351069 69.2753199,23.5718307 C69.6998246,24.2495396 70.1243293,24.9272485 70.5457727,25.6065237 C70.7733317,25.9720062 71.1575288,26.2894538 71.5488691,26.4351246 C71.9422503,26.5813176 72.0223551,26.6914845 71.9034734,27.4375908 C70.6452659,35.3784803 70.4136252,43.1068679 71.2151839,50.4086852 C72.0131711,57.6755207 74.1260004,63.5979028 77.6745945,68.5146861 C79.5629261,71.1315404 81.874742,73.4685397 84.1105348,75.7287876 C84.7207604,76.3448866 85.3294552,76.9609856 85.9304967,77.5817836 C86.2947952,77.9577085 86.9723701,78 87.2580944,78 L87.268809,78 C87.6050453,77.9989558 88.2203731,77.9441334 88.55814,77.5901375 C89.0903016,77.0319936 89.1566305,75.539781 88.6760013,74.9289031" id="Combined-Shape-Copy-11" transform="translate(76.500000, 40.000000) scale(-1, 1) rotate(28.000000) translate(-76.500000, -40.000000) "></path>
                <path d="M86.3450095,277.036315 C84.1967973,278.675653 82.6506846,280.778047 81.8903012,283.38804 C81.7578807,283.842289 82.007721,284.407382 82.0806557,284.921197 C82.5917161,284.845575 83.1695039,284.899443 83.6019396,284.673095 C85.7615317,283.542392 87.3505776,281.922735 87.8900877,279.425657 C88.1187199,278.368504 88.4947735,277.342946 88.8040995,276.302885 C88.6256421,276.196704 88.4471848,276.090522 88.2687275,275.984341 C87.6242121,276.330337 86.9196937,276.598122 86.3450095,277.036315 M112.346032,285.664416 C111.487886,285.210166 110.344207,285.002983 109.123973,285.002983 C106.505047,285.002983 103.53438,285.956544 102.277419,287.468983 C103.277815,289.206734 104.612882,289.641301 106.018816,289.641301 C107.235946,289.641301 108.505838,289.316023 109.657276,289.22797 C111.186319,289.111948 111.781693,287.131792 112.346032,285.664416 M157.957031,326.988751 C157.505973,327.761028 156.836629,327.983232 156.158491,327.98375 C155.61536,327.98375 155.06654,327.841311 154.619103,327.72477 C152.336919,327.131708 150.889087,325.541575 149.601608,323.963356 C148.711908,322.872535 148.090152,321.575567 147.489087,320.321589 L147.191658,319.704701 C146.967164,319.244236 147.184934,318.596788 147.230971,318.47196 C147.356667,318.129071 147.536158,317.904277 147.763239,317.804829 C148.718632,317.385283 149.715924,317.048092 150.681662,316.721778 C151.019955,316.607309 151.358248,316.49284 151.695507,316.374746 C151.836721,316.32554 151.992936,316.339524 152.12277,316.41411 C152.207602,316.462799 152.275881,316.533241 152.320883,316.617668 C153.743886,316.43949 154.898945,317.106621 155.679502,318.564674 L155.730194,318.661014 C156.637998,320.356293 157.576839,322.109582 158.254977,323.945227 C158.582407,324.828346 158.454125,326.13671 157.957031,326.988751 Z M137.686867,315.508719 C137.458752,315.530473 137.228568,315.542386 136.998384,315.553781 C136.685954,315.56932 136.391112,315.583823 136.148513,315.629921 L136.105063,315.638209 C135.38244,315.776504 134.905002,315.867664 134.4586,315.867664 C133.81874,315.867664 133.293713,315.665142 132.898004,315.265796 C132.225039,314.587271 132.231246,313.753358 132.240557,312.483841 C132.240557,312.459497 132.241074,312.435671 132.242626,312.411845 C132.481603,307.934094 135.655557,304.807178 139.960258,304.807178 C140.713399,304.807178 141.490335,304.903 142.26934,305.091537 C143.542336,305.399723 144.34979,306.961368 144.421173,307.922699 C144.713429,311.853486 141.818283,315.114553 137.686867,315.508719 Z M137.317538,327.253428 C137.282881,327.404154 137.183048,327.531572 137.044938,327.601496 C136.97252,327.637753 136.892344,327.6564 136.812685,327.6564 C136.741302,327.6564 136.670953,327.641897 136.604226,327.612373 C133.264746,326.138264 131.567592,322.122013 132.656957,318.269438 C132.696787,318.126999 132.796102,318.008387 132.929557,317.94416 C133.062495,317.878897 133.21664,317.875271 133.354234,317.932765 C136.051267,319.06036 138.088784,323.851477 137.317538,327.253428 Z M129.832159,311.686703 C129.818193,311.992299 129.789226,312.296858 129.757672,312.620064 C128.137073,312.215539 126.942185,311.236597 125.68419,310.206378 C125.240892,309.842771 124.789317,309.472948 124.311362,309.123326 C124.55603,309.086551 124.797594,309.051848 125.035537,309.017145 C126.477161,308.806336 127.83861,308.606922 129.163849,308.266623 C130.136312,308.017485 130.925662,307.534748 131.506037,306.850524 C130.532022,308.301844 129.910784,309.988835 129.832159,311.686703 Z M118.034838,304.009522 C117.743616,303.788872 117.343251,303.661972 116.880296,303.51539 C116.634594,303.437178 116.38165,303.356376 116.129224,303.257964 C115.885074,303.16266 115.750584,302.900055 115.81576,302.646773 C116.306129,300.73447 117.508776,299.857049 119.579916,299.888644 C122.159529,299.925937 125.13899,300.095828 127.846369,301.654365 C128.420018,301.984822 129.191782,302.864834 129.085224,303.592048 C128.981254,304.302687 128.041379,305.048029 127.344619,305.15939 L127.149092,305.191503 C125.826439,305.40542 124.48413,305.622445 123.151648,305.622445 C121.406388,305.622445 119.678714,305.249515 118.034838,304.009522 Z M117.467395,315.304125 C117.186002,315.647532 116.73391,315.816386 116.085256,315.820012 L116.017494,315.820012 C114.593457,315.820012 113.748759,315.568284 113.200455,314.982473 C112.658359,314.403396 112.458693,313.534261 112.554388,312.165297 C112.649048,310.80721 112.81147,309.437727 112.967685,308.113307 C113.038033,307.521799 113.108381,306.93029 113.172523,306.338781 C113.195282,306.12849 113.343738,305.952902 113.547541,305.895927 L114.351893,305.672169 C114.574318,305.60846 114.810709,305.702728 114.931749,305.899553 C115.092102,306.16164 115.271594,306.416993 115.451086,306.673383 C115.877315,307.281984 116.318027,307.911304 116.543038,308.639553 C116.972887,310.031308 117.243418,311.482627 117.505156,312.885777 C117.569297,313.229702 117.633438,313.573108 117.699648,313.915479 C117.816033,314.516828 117.739995,314.971078 117.467395,315.304125 Z M100.932937,288.245455 C100.608093,287.681398 100.669131,286.975421 101.084497,286.475073 C102.812688,284.395987 106.463045,283.449159 109.123869,283.449159 C110.666361,283.449159 112.03143,283.740252 113.071655,284.290842 C113.766346,284.658592 114.076706,285.488362 113.794278,286.222827 C113.745138,286.350763 113.695997,286.482324 113.645305,286.616475 C113.051482,288.201428 112.154023,290.596468 109.775109,290.777754 C109.363881,290.808831 108.91179,290.878756 108.433317,290.952306 C107.65845,291.071954 106.857203,291.195229 106.019229,291.195229 C103.739631,291.195229 102.075582,290.230272 100.932937,288.245455 Z M99.9190931,301.357057 C99.8797807,301.524357 99.7602919,301.661098 99.6004563,301.722217 L99.0516354,301.93199 C98.9911151,301.954781 98.929043,301.965658 98.8674881,301.965658 C98.6859272,301.965658 98.511608,301.869835 98.4174653,301.704089 C98.3155636,301.524357 98.1753841,301.332712 98.0269283,301.129673 C97.641564,300.603427 97.2427507,300.05957 97.3058574,299.444754 C97.510178,297.469778 97.8438156,295.483407 98.1660733,293.561781 C98.2850449,292.854768 98.4040164,292.147236 98.5167807,291.439705 C98.5597139,291.167259 98.8095542,290.975096 99.0816369,291.006174 L99.8027079,291.082832 C100.009098,291.105104 100.182382,291.24806 100.242385,291.446438 C101.284162,294.868072 100.65413,298.218746 99.9190931,301.357057 Z M95.3800702,277.02233 C94.5493385,276.628681 94.0356918,275.757993 93.4910091,274.835509 C93.2515142,274.429429 93.0042603,274.009883 92.7254531,273.62504 C92.6292413,273.49296 92.6013089,273.324106 92.6488975,273.1682 C92.6970034,273.012295 92.8149404,272.887985 92.9685689,272.832563 C96.9091131,271.413875 100.098585,271.150234 103.309265,271.977414 C103.449444,272.013671 103.568416,272.106903 103.636178,272.234839 C103.704457,272.362775 103.716354,272.512983 103.668766,272.650242 C103.089426,274.309263 101.387098,275.937725 99.3309599,276.800126 C98.4743648,277.159071 97.6519094,277.340356 96.9116995,277.340356 C96.3468433,277.340356 95.8290585,277.234693 95.3800702,277.02233 Z M90.5006853,261.564894 C88.9162948,261.429707 88.7673217,260.901389 88.4962735,259.08957 C88.474031,258.940398 88.5179988,258.789154 88.6157623,258.674685 C88.7145604,258.560735 88.8573263,258.494954 89.0078511,258.494954 L98.3879811,258.494954 C98.6321314,258.494954 98.8426593,258.665362 98.8933515,258.904141 L99.0009432,259.406043 C99.0511181,259.639642 98.9352502,259.877385 98.7200669,259.980977 C98.5322987,260.07162 98.3434961,260.160708 98.1552107,260.248761 C97.7626046,260.433155 97.3570668,260.623763 96.9737716,260.828357 C95.6790509,261.521385 94.341397,261.71044 93.0058121,261.71044 C92.1973229,261.71044 91.3898683,261.641034 90.5922417,261.572663 L90.5006853,261.564894 Z M90.2917092,276.74574 C90.1918766,277.080859 90.0858367,277.413906 89.9797969,277.746954 C89.7578891,278.44309 89.5483957,279.100379 89.4071817,279.754561 C88.8195658,282.472807 87.1079274,284.59074 84.3203725,286.050347 C83.7343084,286.356978 83.1239326,286.396861 82.6785653,286.425867 C82.5383858,286.43519 82.4059653,286.443995 82.3071672,286.458498 C82.2316461,286.469375 82.156125,286.475073 82.080604,286.475073 C81.7480009,286.475073 81.4221224,286.367855 81.1521087,286.166369 C80.8215747,285.918785 80.6027706,285.549481 80.5443193,285.140294 C80.5319049,285.052759 80.5013861,284.925859 80.468281,284.791189 C80.3524131,284.315186 80.1941292,283.662558 80.4005189,282.952955 C81.2291816,280.107809 82.9128875,277.701373 85.4045653,275.800466 C85.9228674,275.405263 86.4809991,275.134889 86.9729206,274.896628 C87.1627578,274.804949 87.3520777,274.713789 87.5362249,274.614859 C87.7653745,274.492102 88.0172838,274.430983 88.2691931,274.430983 C88.5433449,274.430983 88.8174967,274.503498 89.0611297,274.648526 L89.3839047,274.840171 L89.5965016,274.966552 C90.2079119,275.330159 90.4944781,276.063589 90.2917092,276.74574 Z M85.1692086,262.559374 C84.7626363,263.931446 83.9246628,265.155382 83.1146218,266.3384 L82.9159911,266.628456 C81.6662727,268.461511 79.7110013,268.769179 78.0485033,268.769179 C77.9186692,268.769179 77.7909041,268.767625 77.6646908,268.763999 C77.6610699,268.763999 77.6564145,268.763999 77.6522764,268.763481 L77.5964115,268.763481 C77.4189887,268.762445 77.0501769,268.761409 76.6736062,268.696147 C75.6794179,268.524184 74.9454152,268.002082 74.6583317,267.262956 C74.3903871,266.575107 74.5445329,265.80542 75.0923192,265.096335 C76.137717,263.740838 77.4334722,262.600811 78.4452476,261.759646 C79.613755,260.787956 80.9193383,260.014126 81.9264582,259.448515 C82.3801019,259.194198 83.3717038,258.99323 83.8367273,259.128417 C84.0653596,259.194716 84.1796757,259.331457 84.2355406,259.435049 L84.3565812,259.658289 C84.8391919,260.544516 85.4397395,261.647249 85.1692086,262.559374 Z M159.773674,318.707631 C159.565733,318.304141 159.358826,317.901169 159.15916,317.495608 C157.361656,313.840375 154.140631,312.399932 149.840585,313.333293 C147.98256,313.736265 146.094534,314.679985 144.76257,315.884239 C143.322497,317.184315 143.073174,317.409627 141.972428,316.762697 C145.383808,314.643728 147.046823,311.558249 146.918541,307.57981 C146.832674,304.898857 145.212075,303.018667 142.689879,302.673707 C140.783748,302.413692 139.035383,302.417318 137.492374,302.68303 C135.345197,303.053889 133.330439,304.436838 131.905367,306.295273 C132.290732,305.657148 132.533847,304.891087 132.620231,304.013666 C132.86076,301.56165 132.073996,299.936296 130.143037,298.897272 C127.08702,297.252235 124.053246,296.455097 120.856015,296.484621 C120.60514,296.485657 120.354265,296.485139 120.103391,296.483585 C117.595677,296.477887 114.784328,296.457687 113.38305,299.605321 L107.644484,293.361849 C107.693625,293.363403 107.743282,293.364957 107.792423,293.366511 C108.410557,293.385675 109.050417,293.403804 109.688208,293.321966 L109.898219,293.295032 C110.738261,293.190405 111.690034,293.071792 112.331445,292.522756 C114.634321,290.557104 115.93111,288.407058 116.296819,285.949863 C116.643905,283.615424 115.797655,282.299809 113.552714,281.68292 C112.357309,281.354535 110.793609,280.98782 109.258359,281.018898 C105.53455,281.10954 102.453704,282.076051 99.8616764,283.971779 L97.9943405,280.842792 C101.538141,280.357983 103.894294,278.114186 106.007332,275.835687 C107.126182,274.629879 107.593792,273.241751 107.324295,271.927172 C107.051178,270.596019 106.05699,269.488623 104.524843,268.808544 C103.342887,268.283852 101.983508,268.141413 100.931386,268.07615 C97.7232923,267.877254 94.7277958,268.380192 91.7959233,269.612933 L90.637244,265.094781 C90.652762,265.094263 90.66828,265.093745 90.6832808,265.093745 C91.0748523,265.083904 91.3846956,265.076653 91.6764345,265.109802 C94.8819416,265.475999 97.7388103,264.396573 100.107378,263.291768 C101.719701,262.539692 102.523535,261.350977 102.563882,259.656735 C102.629058,256.886693 100.981043,255.204881 98.0414118,255.04276 C94.9983268,254.87546 91.905584,254.938651 88.9990576,255.01738 C88.0752177,255.042242 87.8077904,254.873388 87.5724337,254.111471 L87.2987991,253.217475 C86.7308393,251.349198 86.1427061,249.417213 85.2271425,247.666513 C83.8460382,245.028033 83.3142871,242.459476 83.6024051,239.814262 C83.8362101,237.667324 83.1953156,235.771596 81.5235068,233.667131 L80.9938248,233 L80.6467383,233.778492 C80.4998343,234.107913 80.321377,234.435263 80.1486096,234.751736 C79.760659,235.463929 79.3597766,236.199948 79.3059808,236.992424 L79.259944,237.667842 C79.0126901,241.230879 78.7571599,244.9146 80.6255303,248.452256 C81.47747,250.065179 82.1043983,251.843331 82.7101186,253.563471 C82.9190947,254.155497 83.1332435,254.763063 83.3556685,255.361305 C78.5890479,256.723536 74.900413,259.337672 72.0921674,263.33942 C71.0229753,264.863254 70.7214083,266.680252 71.2645393,268.324252 C71.7978421,269.936139 73.0837693,271.184937 74.7928213,271.75003 C78.753539,273.059947 83.9944939,272.096026 86.3470268,267.720831 C86.3997881,267.621901 86.455653,267.525043 86.5151388,267.425594 L87.7752026,271.746922 C87.6583001,271.805452 87.5403631,271.864499 87.4213915,271.923546 C86.8611908,272.203244 86.285472,272.490193 85.719064,272.79527 C81.6621345,274.976394 79.0070001,278.457593 77.8271128,283.142528 C77.3889872,284.880796 78.0190191,286.80553 79.4316768,288.045005 C80.7289838,289.183996 82.3930336,289.509792 83.8853505,288.915175 C86.8161885,287.747179 89.6896098,286.193821 90.8622554,282.76649 C91.1270963,281.992142 91.4545267,281.230743 91.8005787,280.425317 C91.8843761,280.230047 91.9686907,280.033223 92.0540398,279.832255 C92.0918003,279.860742 92.1212846,279.884568 92.1311127,279.897517 C93.7956797,282.581061 95.292652,285.003552 96.7560019,287.466445 C96.7880725,287.547765 96.763761,287.821765 96.6830672,287.96006 C94.7898679,291.213357 93.908444,294.930227 93.8251639,300.012954 C93.7822307,302.588244 96.2376998,305.151621 98.9761143,305.391435 C101.573832,305.618301 102.941487,304.321851 103.547725,301.053533 C103.786703,299.76278 103.952746,298.474617 104.128099,297.110833 C104.162239,296.842012 104.196896,296.570602 104.233105,296.29712 C104.611227,296.714076 104.986763,297.129479 105.360231,297.541774 C106.978761,299.330803 108.507804,301.019866 110.09685,302.71618 C110.584633,303.236728 110.655499,303.627787 110.388589,304.328585 C109.357674,307.036472 108.942826,310.059277 109.1218,313.57 C109.192666,314.960719 109.93391,316.257169 110.369967,316.906171 C112.034534,319.384603 114.722256,319.330217 116.884435,319.285154 C120.099252,319.219892 121.187583,318.125963 121.198963,314.948806 C121.202067,314.168242 121.146202,313.409433 121.082061,312.531493 C121.077923,312.474 121.073267,312.415471 121.069129,312.357459 C121.232068,312.484877 121.392421,312.611259 121.550705,312.735569 C122.543342,313.516133 123.48063,314.253705 124.448438,314.928087 C125.258479,315.49318 126.337499,316.195532 127.498248,316.618186 L127.886198,316.758035 C128.49347,316.976613 129.067637,317.183279 129.142641,317.293604 C129.173677,317.37337 129.114191,317.71315 129.06143,318.013048 C129.014359,318.282387 128.956942,318.610772 128.904181,319.016334 C128.276735,323.902237 131.274818,329.40192 135.729526,331.536427 C136.373524,331.844612 137.031489,332 137.654279,332 C138.192754,332 138.704849,331.883977 139.158493,331.650896 C139.984052,331.227206 140.534942,330.453376 140.710296,329.472362 C141.097212,327.30367 141.370846,324.747545 140.460973,322.228195 C140.316138,321.827813 140.184235,321.423805 140.029572,320.949873 C140.04509,320.955053 140.060608,320.959714 140.076126,320.964894 C140.72271,321.170523 141.281359,321.348183 141.881907,321.388066 C144.024429,321.528951 144.955511,322.88652 146.037117,324.7895 C148.152741,328.513103 151.423424,330.845988 155.496906,331.536427 C156.933358,331.777278 158.477402,331.330798 159.743156,330.305758 C161.081844,329.222706 161.922404,327.638271 161.9912,326.067303 C162.11431,323.257896 160.924077,320.944176 159.773674,318.707631 Z M142.873664,308.037789 C142.835386,307.520866 142.332085,306.7056 141.904822,306.602008 C141.234443,306.439369 140.582686,306.361157 139.959896,306.361157 C136.553171,306.361157 133.994249,308.706473 133.791997,312.494822 C133.782169,313.887612 133.778031,314.313892 134.458755,314.313892 C134.765495,314.313892 135.210862,314.227393 135.857964,314.103601 C136.407819,313.998974 136.9794,314.015548 137.539601,313.962198 C140.789075,313.651941 143.104365,311.14036 142.873664,308.037789" id="Combined-Shape"></path>
                <path d="M351.005201,260.589 C349.678647,260.589 349.680705,258.514554 351.005201,258.514554 C352.331755,258.514554 352.329697,260.589 351.005201,260.589 M349.394091,254.184146 C350.720645,254.184146 350.718072,256.258593 349.394091,256.258593 C348.067537,256.258593 348.069595,254.184146 349.394091,254.184146 M348.051071,264.10778 C346.724517,264.10778 346.726575,262.033334 348.051071,262.033334 C349.377625,262.033334 349.375567,264.10778 348.051071,264.10778 M344.828337,223.778462 C343.501783,223.778462 343.503841,221.704015 344.828337,221.704015 C346.154891,221.704015 346.152833,223.778462 344.828337,223.778462 M339.188681,222.966316 C337.862127,222.966316 337.864185,220.891869 339.188681,220.891869 C340.515235,220.891869 340.513177,222.966316 339.188681,222.966316 M335.160649,233.793372 C333.834095,233.793372 333.836153,231.718925 335.160649,231.718925 C336.487203,231.718925 336.48463,233.793372 335.160649,233.793372 M335.160649,237.853064 C333.834095,237.853064 333.836153,235.778618 335.160649,235.778618 C336.487203,235.778618 336.48463,237.853064 335.160649,237.853064 M330.594895,267.626561 C329.268341,267.626561 329.270399,265.552114 330.594895,265.552114 C331.921449,265.552114 331.919391,267.626561 330.594895,267.626561 M326.566863,233.793372 C325.240309,233.793372 325.242368,231.718925 326.566863,231.718925 C327.893417,231.718925 327.891359,233.793372 326.566863,233.793372 M326.566863,239.206641 C325.240309,239.206641 325.242368,237.132194 326.566863,237.132194 C327.893417,237.132194 327.891359,239.206641 326.566863,239.206641 M334.354837,192.922623 C333.028283,192.922623 333.030341,190.848176 334.354837,190.848176 C335.681391,190.848176 335.679333,192.922623 334.354837,192.922623 M330.863499,198.877322 C329.536945,198.877322 329.539003,196.802876 330.863499,196.802876 C332.190053,196.802876 332.187995,198.877322 330.863499,198.877322 M330.594895,193.01338 C331.921449,193.01338 331.919391,195.087827 330.594895,195.087827 C329.268341,195.087827 329.270399,193.01338 330.594895,193.01338 M352.884914,218.997381 C354.211469,218.997381 354.20941,221.071828 352.884914,221.071828 C351.55836,221.071828 351.560933,218.997381 352.884914,218.997381 M354.496539,215.207885 C355.823093,215.207885 355.821035,217.282332 354.496539,217.282332 C353.169985,217.282332 353.172043,215.207885 354.496539,215.207885 M353.165868,249.937235 C351.920101,248.798882 350.477769,247.864863 349.319479,246.649756 C348.550201,245.842277 347.762399,244.754749 347.609572,243.700411 C346.959159,239.208715 348.005789,235.105978 350.929559,231.549339 C352.151142,230.06248 353.38353,228.56836 354.440451,226.963256 C356.795625,223.387429 358.720106,219.639422 358.191645,215.116091 C357.96009,213.138106 357.779992,211.109816 355.730471,210.086595 C354.539248,209.491748 353.274956,209.026553 352.009121,208.608552 C348.950534,207.598296 347.512319,205.76293 347.58796,202.554798 C347.619863,201.205889 347.872001,199.841422 348.192577,198.525704 C348.571298,196.973499 349.204216,195.485083 349.591685,193.934435 C349.929755,192.582932 350.390293,191.063919 349.246925,189.917268 C346.777002,187.441416 343.683425,186.181709 340.258466,185.773561 C340.115931,185.756966 339.971337,185.749186 339.8252,185.749186 C339.236536,185.749186 338.626259,185.874172 338.057662,186.024051 C336.256677,186.499099 334.54111,187.359476 332.699989,187.610484 C328.721356,188.152952 326.190715,192.83031 325.498107,193.928211 C323.853036,196.532679 324.002261,197.964047 326.332735,199.951886 C328.111594,201.469344 330.114804,202.715567 331.949236,204.170273 C334.512295,206.202712 336.457873,208.754282 337.2395,211.970711 C338.388529,216.698375 337.351676,219.275875 333.35246,221.173994 C329.713441,222.900452 326.546795,225.368007 324.599673,229.052743 C322.901087,232.268135 320.688963,235.303569 320.854653,239.241906 C320.940586,241.291978 321.393405,241.946985 323.215488,242.787654 C324.821452,243.528232 326.486076,244.266735 327.875408,245.335594 C332.767397,249.09864 332.762252,254.728688 328.001477,258.45232 C325.61337,260.319841 323.476888,262.386508 322.560444,265.440094 C321.939876,267.508836 322.255305,268.294533 323.913241,269.494081 C326.065675,271.050954 332.157121,272.760816 337.554416,273.08443 C337.284268,268.036264 337.426803,262.958537 337.566251,257.986607 C337.620795,256.048555 337.675339,254.091833 337.705698,252.179712 C337.861098,242.343204 338.260402,233.521101 341.589137,225.167823 C341.774381,224.704184 342.266307,224.579198 342.633193,224.727521 C343.022206,224.885179 343.196644,225.297994 343.04176,225.688509 C341.303552,230.049514 340.214213,235.034928 339.710966,240.92895 C339.351799,245.130742 339.289021,249.424328 339.228302,253.576333 L339.215953,254.424782 C339.193312,255.914235 339.16604,257.403169 339.138768,258.892621 L339.137739,258.95278 C339.075476,262.376136 339.010641,265.915661 339.010641,269.393471 C339.010126,270.650067 339.051806,271.898884 339.127962,273.14044 C339.185079,273.14044 339.244254,273.143552 339.301371,273.143552 C341.742992,273.143552 343.917038,272.798156 345.341875,271.946077 C347.681612,270.797352 349.934386,269.385173 352.012209,267.80237 C354.193459,266.141257 355.880724,263.940269 356.680362,261.241932 C358.022353,256.712378 356.519302,253.001711 353.165868,249.937235 M358.159228,261.68716 C357.31225,264.545748 355.508692,267.089538 352.943061,269.043667 C350.751519,270.713078 348.440083,272.151188 346.071531,273.318065 C344.502616,274.23497 342.225656,274.699646 339.301371,274.699646 C339.282332,274.699646 339.262778,274.698609 339.243739,274.698609 C339.922968,282.666559 341.996159,290.309339 344.113603,297.535674 C344.191817,297.80224 344.128011,298.07866 343.942767,298.275214 C343.794057,298.432872 343.58257,298.523111 343.363364,298.523111 C343.301101,298.523111 343.238839,298.51585 343.179149,298.501329 C342.914661,298.437021 342.709864,298.238393 342.63165,297.970271 C341.112133,292.786228 339.541159,287.425339 338.551132,281.98251 C338.110148,279.558 337.827136,277.10756 337.651669,274.646229 C332.211665,274.340248 325.597933,272.627274 323.013263,270.757679 C320.792391,269.151538 320.287086,267.642378 321.083121,264.98968 C322.152392,261.42578 324.702072,259.063504 327.055188,257.222951 C328.970921,255.724163 330.022182,253.845233 330.014463,251.931556 C330.006745,249.995579 328.914319,248.092274 326.938381,246.572223 C325.770828,245.673988 324.293506,244.994088 322.865067,244.336488 L322.573308,244.202168 C320.214532,243.11412 319.422099,241.924425 319.311981,239.307511 C319.157096,235.615514 320.770264,232.74448 322.330432,229.967833 C322.634027,229.426921 322.948427,228.867858 323.237099,228.321241 C325.167241,224.668659 328.260818,221.87023 332.694843,219.766223 C335.986529,218.204164 336.726477,216.399914 335.740052,212.340741 C335.104047,209.723308 333.507345,207.385406 330.994714,205.3929 C330.230581,204.787162 329.443808,204.223949 328.610209,203.628065 C327.520871,202.848591 326.394483,202.042669 325.335504,201.139766 C322.425627,198.65769 322.106081,196.40173 324.195738,193.092468 C324.246166,193.012602 324.306884,192.91251 324.378409,192.794785 C325.395709,191.119151 328.099759,186.667907 332.493133,186.068392 C333.463607,185.936146 334.440255,185.591269 335.474535,185.225648 C336.178463,184.976714 336.906576,184.719483 337.666591,184.519299 C338.196595,184.379274 338.997262,184.193092 339.8252,184.193092 C340.035658,184.193092 340.242514,184.20502 340.439594,184.228876 C344.447557,184.706518 347.776806,186.249387 350.335234,188.814441 C352.04617,190.530008 351.500729,192.686396 351.139503,194.113615 L351.088561,194.314836 C350.883763,195.134761 350.620304,195.922532 350.365594,196.684373 C350.110368,197.448288 349.869036,198.170195 349.692025,198.89677 C349.334401,200.363923 349.156361,201.53806 349.131662,202.59136 C349.073516,205.040244 350.015174,206.312917 352.489727,207.129731 C353.586784,207.49224 355.024485,207.997368 356.415874,208.692308 C359.158517,210.061961 359.474461,212.783117 359.705502,214.769918 L359.724541,214.933799 C360.319381,220.023973 358.154597,224.137082 355.726354,227.823374 C354.638559,229.475671 353.382501,231.004019 352.167608,232.481544 L352.118209,232.542221 C349.543315,235.674636 348.53991,239.353667 349.136807,243.476111 C349.215536,244.019616 349.700258,244.803239 350.432487,245.571821 C351.03556,246.204009 351.746692,246.768777 352.500018,247.366736 C353.062955,247.813261 353.645445,248.275344 354.202721,248.784621 C358.265229,252.496843 359.595899,256.838141 358.159228,261.68716 M354.73324,245.09055 C354.071506,244.541858 353.446307,244.023765 352.853011,243.467295 C352.500018,243.136421 352.263317,242.727755 352.237589,242.524978 C351.863499,239.539849 352.659534,236.901153 354.670462,234.458492 C355.745393,233.152627 357.001966,231.589532 358.170034,229.900932 C360.827773,226.060094 363.758233,220.803965 362.821721,214.197371 C362.533563,212.164413 362.064792,209.863333 360.771685,208.212592 C359.045312,206.008492 356.731818,204.617057 354.082312,204.189203 C352.270521,203.896706 352.107918,203.66333 352.3369,201.69105 C352.430552,200.886683 352.65799,200.065721 352.883371,199.294027 C353.043916,198.742743 353.226072,198.200793 353.419035,197.627728 C353.712853,196.753348 354.016448,195.849927 354.237711,194.911758 C354.68487,193.021937 355.515382,189.504713 352.938429,186.873796 C349.142982,182.998729 344.482548,181.0223 339.08834,181 C338.532093,181.003112 337.955263,181.075717 337.368657,181.233894 C336.831963,181.378068 336.293211,181.516537 335.753945,181.654488 C334.169078,182.061079 332.530697,182.481674 330.943771,183.058888 L330.644808,183.167278 C329.017747,183.755902 327.173023,184.423356 325.912849,185.746334 C324.087679,187.661567 322.402986,189.962647 320.762031,192.78182 C318.862764,196.043369 319.406662,199.767519 322.181208,202.500603 C323.639491,203.937157 325.292281,205.151746 326.717117,206.150592 C329.333176,207.984921 331.29625,209.724345 332.371181,212.249465 C333.499112,214.896978 333.185226,215.847593 330.772421,217.092261 C323.556646,220.814856 318.754705,227.142437 316.499872,235.898158 C314.966462,241.852338 316.96504,245.804678 322.43952,247.646268 C323.576199,248.028485 324.844093,248.929832 325.831547,250.057812 C326.600825,250.935822 326.958449,251.707516 326.895672,252.352669 C326.828778,253.037236 326.27356,253.785074 325.24494,254.575439 C322.396811,256.76398 319.321758,259.585227 318.11304,263.91356 C316.807583,268.591438 317.674114,271.11967 321.425308,273.574777 C325.975626,276.552646 331.032277,277.053106 335.493574,277.494963 C335.641769,277.510003 335.746227,277.525561 335.818781,277.538526 C335.822897,277.581053 335.827014,277.633951 335.829072,277.698259 L335.845538,278.175382 C335.901626,279.819381 335.959257,281.51939 336.386348,283.170131 C337.421143,287.168108 338.590754,291.192016 339.721258,295.083678 L340.529128,297.86966 C340.925345,299.241388 341.573185,300.181631 342.454638,300.664458 C342.862176,300.887461 343.301101,301 343.753406,301 C344.031787,301 344.315313,300.957474 344.599354,300.871384 C345.657819,300.550882 347.282822,299.508473 346.276329,296.128162 C345.906869,294.887124 345.520944,293.649717 345.135533,292.413346 C344.347731,289.885633 343.533171,287.27183 342.883787,284.681884 C342.422735,282.843924 342.160306,280.97381 341.88244,278.994788 C341.820692,278.552412 341.757915,278.108999 341.693079,277.666623 C341.900964,277.644842 342.105247,277.624616 342.307987,277.604909 C343.619104,277.476812 344.857667,277.355456 346.003093,276.841512 C350.575023,274.790403 355.269419,272.250243 358.636746,267.588961 C363.394434,261.004149 362.881925,253.0808 357.33026,247.403558 C356.505923,246.559776 355.604916,245.812976 354.73324,245.09055" id="Combined-Shape" transform="translate(339.500000, 241.000000) rotate(36.000000) translate(-339.500000, -241.000000) "></path>
                <path d="M214.546018,283.594671 L214.39157,280.313984 C211.736209,280.551974 209.036496,280.648706 206.354002,280.588313 C206.35035,281.014137 206.367047,281.449173 206.404615,281.907241 C209.269212,281.640077 212.054498,282.225074 214.546018,283.594671 M206.757237,276.656657 C207.564438,276.513862 208.246932,276.112605 208.965429,275.690364 C209.410511,275.42883 209.870725,275.158084 210.374247,274.943636 C210.857941,274.73789 211.335374,274.578206 211.796632,274.424663 C212.53287,274.178995 213.232583,273.934351 213.911424,273.532071 L213.558698,270.416185 C213.179882,270.739136 212.800023,271.061063 212.420164,271.38299 C211.007172,272.581132 209.546175,273.820218 208.172317,275.091549 C207.790892,275.44572 207.321808,275.831111 206.786979,276.055794 C206.781761,276.2641 206.772369,276.467288 206.757237,276.656657 M210.341427,276.691153 C210.122799,276.808868 209.910955,276.92812 209.702241,277.044812 C208.71659,277.599611 207.782596,278.125238 206.574665,278.232206 C206.536574,278.506023 206.498484,278.779328 206.464046,279.054169 C209.091231,279.109956 211.729374,279.013736 214.319512,278.782399 L214.186457,275.963362 L214.098275,275.183879 C213.523269,275.459231 212.940957,275.668561 212.370647,275.864583 C211.699632,276.095408 211.005659,276.333911 210.341427,276.691153 M216.291544,287.458615 C216.248236,288.362979 216.25815,289.274509 216.267542,290.239266 C216.271716,290.666114 216.276412,291.100127 216.276412,291.5454 C216.276412,291.765477 216.179882,291.974806 216.011868,292.120672 C215.844375,292.267049 215.617399,292.336143 215.397727,292.307481 C212.662011,291.97583 210.65575,290.275093 208.715755,288.630143 C208.455385,288.409042 208.246671,288.175657 208.04474,287.94995 C207.868899,287.753416 207.703493,287.56763 207.530261,287.421765 C207.186927,287.132082 206.802893,287.018972 206.522695,287.125428 C206.249802,287.229837 206.160055,287.524126 206.132922,287.752393 C205.577222,292.460512 202.516434,295.73557 200.261803,297.788942 C197.998302,299.850504 195.521913,300.905851 192.899946,300.926835 L192.741323,300.928371 C192.295719,300.931953 191.847506,300.935536 191.398772,300.935536 C188.578005,300.935536 185.702972,300.791718 182.946385,299.593064 C173.558438,295.510886 169.382597,288.862503 170.179884,279.267644 C170.235193,278.601782 170.299894,277.936944 170.364596,277.272617 C170.451212,276.381048 170.540959,275.459794 170.604616,274.556454 C170.855073,271.00502 172.773675,268.197243 176.468952,265.973438 C178.039002,265.028129 179.730105,264.342307 181.468691,263.665697 C184.1204,262.634404 186.619748,263.254715 189.037175,263.856089 C189.49478,263.969199 189.952385,264.083332 190.411555,264.185694 C196.66723,265.58037 200.944297,269.781288 204.789327,273.965316 C205.236496,274.451021 205.597571,274.702831 205.863159,274.713579 C206.166316,274.738657 206.549828,274.482242 207.097702,273.97504 C208.496606,272.680167 209.971169,271.430844 211.396162,270.221442 C212.010824,269.700934 212.625486,269.179913 213.234931,268.654799 C213.482256,268.440863 213.840201,268.402989 214.129269,268.559091 L214.620268,268.824719 C214.84307,268.944994 214.991779,269.164047 215.019955,269.411762 L215.745236,275.818572 C215.746801,275.834949 215.748366,275.851327 215.748888,275.868217 L216.291544,287.386962 C216.293109,287.411017 216.293109,287.43456 216.291544,287.458615 M218.938557,292.434921 C218.669316,290.649736 218.497127,288.845614 218.387031,287.043539 C218.14701,283.106714 218.058828,279.159652 217.743149,275.229481 C217.531304,272.595206 217.163446,269.957349 216.622877,267.369649 C216.224234,265.460095 214.424077,265.058326 212.910381,266.29383 C210.626008,268.157322 208.301458,269.974239 206.211711,271.638126 C203.777587,269.629281 201.522956,267.599451 199.087788,265.805565 C196.48304,263.886798 193.40712,262.84834 190.289458,262.014605 C187.307981,261.216697 184.261282,260.4193 181.216669,261.593899 C179.019957,262.440941 176.796111,263.346329 174.818026,264.584904 C171.227105,266.834299 168.847768,269.986011 168.519044,274.341494 C168.400599,275.917862 168.233106,277.490136 168.10266,279.065992 C167.237019,289.550373 171.856377,296.767374 181.558438,301.242621 C185.189536,302.917256 189.033001,303.058003 192.961516,302.985326 C196.68184,302.916744 199.666969,301.281006 202.107876,298.867833 C204.443906,296.55958 206.847767,294.143336 207.573569,290.440407 C210.151706,292.715392 213.011085,293.973416 216.076569,294.859867 C218.253454,295.488878 219.26989,294.629553 218.938557,292.434921 M214.632426,285.430167 C214.620425,285.423002 214.607902,285.419419 214.595901,285.41123 C212.170647,283.855847 209.480326,283.189473 206.590684,283.430023 C206.712781,284.181356 206.867229,284.910171 207.016981,285.568867 C207.546071,285.628749 208.079335,285.859574 208.550506,286.257249 C208.807746,286.473743 209.018025,286.709687 209.222043,286.937953 C209.39684,287.132952 209.561203,287.317202 209.73287,287.463068 C211.335792,288.821405 212.857315,290.111673 214.705998,290.610685 C214.704954,290.491434 214.703389,290.373206 214.702345,290.254467 C214.692431,289.279985 214.683039,288.358219 214.726347,287.422635 L214.632426,285.430167 Z M199.615312,282.743381 C199.195797,283.673848 198.290501,284.159553 196.84568,284.227112 L196.606703,284.238372 L196.597832,284.47278 C196.538349,286.001038 195.897598,287.399296 194.693319,288.628659 C193.515651,289.831407 192.359899,289.689636 190.761151,289.039128 C187.090397,287.54465 184.26963,283.695856 183.741584,279.463206 C183.711321,279.216514 183.778109,279.03124 183.941428,278.910965 C184.060917,278.822422 184.226844,278.776871 184.401642,278.776871 C184.53261,278.776871 184.668274,278.802462 184.793502,278.854154 C184.964125,278.925807 185.258934,279.107499 185.311112,279.525134 C185.604355,281.880474 186.912991,284.300301 188.810721,285.997455 C189.933079,287.002134 190.950037,287.610673 191.831331,287.80516 C192.563395,287.968938 193.256846,287.772404 193.836027,287.243195 C194.711581,286.442728 195.226583,284.909864 195.034566,283.679478 C194.988127,283.383141 195.075787,283.066332 195.256324,282.872357 C195.388858,282.730586 195.563134,282.667634 195.766108,282.677358 C196.671404,282.73161 197.248498,282.550942 197.537044,282.117952 C198.060916,281.331304 197.366421,280.013399 196.808111,278.954469 C196.624965,278.605416 196.451211,278.276323 196.367725,278.047545 C196.20232,277.588966 196.477822,277.309007 196.791414,277.19948 C197.122226,277.084835 197.686797,277.115544 197.889249,277.674949 C198.101615,278.259434 198.458516,278.809627 198.804459,279.341907 C199.516173,280.436664 200.188231,281.471027 199.615312,282.743381 M177.287632,277.709241 C176.946907,277.711288 175.741585,277.6468 175.731671,276.733735 C175.724888,276.17177 175.908556,275.663033 176.235715,275.337523 C176.442863,275.132289 176.678188,275.028392 176.935428,275.02788 L176.938037,275.02788 C177.432166,275.02788 177.876205,275.1978 178.188754,275.506932 C178.375031,275.691694 178.596268,276.010039 178.59105,276.477319 C178.581658,277.313101 178.167883,277.704122 177.287632,277.709241 M204.790892,281.05288 C204.770021,280.130091 204.892118,279.217538 205.010564,278.335693 C205.107094,277.61558 205.201015,276.875506 205.219277,276.138503 C204.560785,275.925591 204.032739,275.434255 203.626269,274.992565 C199.797415,270.82645 195.878292,266.97868 190.065091,265.683294 C189.592876,265.577862 189.122226,265.460658 188.652098,265.343966 C187.232323,264.990818 185.861073,264.649954 184.500259,264.649954 C183.681057,264.649954 182.86603,264.773812 182.045785,265.09318 C180.373987,265.743687 178.751759,266.400849 177.28711,267.282182 C174.009782,269.2552 172.382336,271.600303 172.166317,274.662449 C172.101616,275.58575 172.010826,276.51724 171.923166,277.418534 C171.858986,278.076207 171.794807,278.73388 171.740019,279.392576 C171.00326,288.256062 174.876466,294.404921 183.580353,298.189739 C186.466865,299.44418 189.507825,299.417566 192.728279,299.392999 L192.886901,299.391463 C195.10605,299.374062 197.229192,298.455879 199.196841,296.663528 C202.53574,293.622367 204.195014,290.819196 204.578004,287.575358 C204.662012,286.867016 204.992301,286.295327 205.501563,285.939109 C205.101354,284.173884 204.826895,282.633343 204.790892,281.05288" id="Combined-Shape"></path>
                <path d="M308.937786,143.129362 C308.32091,144.085813 307.828655,145.113439 307.30836,146.20185 C307.031078,146.781643 306.743929,147.381697 306.438087,147.965127 C306.17742,148.461796 305.535101,149.626058 304.969631,150.48172 C304.83047,150.693168 304.597324,150.823569 304.344446,150.831362 L289.686363,151.286988 C289.094411,151.287508 288.547115,151.292183 288.014358,151.297379 C287.508603,151.301535 287.013232,151.306211 286.524612,151.306211 C285.673551,151.306211 284.842742,151.292703 284.01297,151.242309 C283.299512,151.199188 282.145206,150.517567 282.013315,149.665022 C281.536118,146.558246 279.446112,144.702492 277.161904,142.921551 C273.558785,140.112983 270.912656,136.682022 269.295173,132.723739 C268.712048,131.295557 268.531347,129.435128 268.798764,127.619378 C269.121741,125.429049 269.540262,123.148841 270.774014,121.448946 C271.262115,120.776677 271.715426,120.03635 272.153678,119.320441 C272.90608,118.091238 273.683926,116.819434 274.699591,115.779339 C276.065235,114.38077 277.880555,113.465882 279.63616,112.581645 C280.039622,112.37851 280.440488,112.176414 280.833565,111.969641 C286.625867,108.920533 292.806574,108.831174 299.72722,111.697928 C302.393601,112.802964 305.47279,114.246732 308.088283,116.577334 C311.643111,119.745934 313.334848,123.331715 313.260075,127.54041 C313.150512,133.693698 311.737096,138.792863 308.937786,143.129362 M309.582183,114.393758 C307.7975,112.957264 305.799921,111.765467 303.821036,110.59549 C297.95448,107.127123 291.55257,106.531224 284.940362,107.293371 C284.218076,107.377015 283.510849,107.753154 282.837893,108.078378 C280.675191,109.124188 278.575839,110.312867 276.369519,111.252174 C273.848011,112.325518 272.006209,113.97346 270.967697,116.524342 C270.818151,116.891648 270.482192,117.187779 270.213218,117.500535 C269.543897,118.278268 268.738011,118.970279 268.209927,119.833215 C266.505209,122.616845 266.066438,125.772457 266.003608,128.945733 C265.972452,130.51159 266.137057,132.213043 266.733163,133.634991 C268.646103,138.201121 271.687905,142.057057 275.553768,145.072396 C277.700373,146.746834 279.164156,148.543362 279.608639,151.188797 C279.616428,151.235035 279.638237,151.278676 279.652257,151.323875 C280.334559,153.472642 280.986745,153.978142 283.21747,153.99113 C286.140363,154.008275 289.062737,153.995287 290.998004,153.995287 C294.014364,153.737081 296.02752,153.486669 298.047946,153.414455 C299.85288,153.350033 301.665084,153.494981 303.474173,153.520438 C303.884904,153.526153 304.374044,153.544856 304.695463,153.345357 C306.338909,152.321887 307.869157,151.198668 308.77474,149.362137 C309.899968,147.080891 311.1898,144.88121 312.377859,142.630096 C312.971368,141.505318 313.732598,140.398724 314.009362,139.189783 C314.76436,135.890781 315.506377,132.565283 315.882319,129.208094 C316.560467,123.156634 314.287683,118.180597 309.582183,114.393758 M306.041947,126.807824 C304.368903,126.807824 304.371499,124.210185 306.041947,124.210185 C307.715509,124.210185 307.712394,126.807824 306.041947,126.807824 M301.346832,120.767793 C299.673269,120.767793 299.675866,118.170154 301.346832,118.170154 C303.019876,118.170154 303.017279,120.767793 301.346832,120.767793 M281.445819,126.161012 C279.772776,126.161012 279.775372,123.563373 281.445819,123.563373 C283.119382,123.563373 283.116267,126.161012 281.445819,126.161012 M279.685022,118.865802 C281.358584,118.865802 281.355988,121.463441 279.685022,121.463441 C278.011978,121.463441 278.014575,118.865802 279.685022,118.865802 M275.996226,128.34199 C274.322663,128.34199 274.325779,125.74435 275.996226,125.74435 C277.669269,125.74435 277.666673,128.34199 275.996226,128.34199 M307.0519,117.741024 C304.610357,115.564722 301.677079,114.193169 299.130647,113.138008 C292.664349,110.459842 286.916703,110.529458 281.558498,113.348936 C281.157632,113.560384 280.748458,113.766636 280.337208,113.973928 C278.695839,114.800497 276.99839,115.655639 275.814486,116.868737 C274.921365,117.783625 274.221927,118.925548 273.481987,120.134489 C273.028157,120.876375 272.55875,121.642678 272.03482,122.364822 C271.007732,123.778977 270.634386,125.848256 270.340487,127.84688 C270.11513,129.371694 270.263638,130.974437 270.737718,132.134023 C272.250312,135.837218 274.733914,139.053095 278.118945,141.692296 C280.541275,143.58078 282.953739,145.726949 283.540499,149.3465 C283.650581,149.476901 283.969405,149.671205 284.109604,149.68679 C285.359453,149.762641 286.643574,149.751212 288.00039,149.738743 C288.001429,149.738743 288.002467,149.738743 288.002987,149.738743 C289.927869,144.810502 288.281827,139.75134 287.570965,134.752443 C287.449979,133.904054 289.009305,133.913925 289.128734,134.752443 C289.840115,139.756016 291.405672,144.792838 289.640721,149.728872 C289.64799,149.728872 289.654741,149.728872 289.66201,149.728872 L293.695073,149.603146 C293.915757,147.253322 294.216925,145.042212 293.890833,142.651345 C293.5367,140.055264 293.003943,137.532956 293.36171,134.910899 C293.476466,134.070303 295.035273,134.06303 294.919479,134.910899 C294.561712,137.531398 295.090314,140.054225 295.448601,142.651345 C295.775732,145.020911 295.478199,147.225787 295.257515,149.55483 L299.722079,149.415597 C300.048692,147.096944 300.288588,144.780889 300.002997,142.444572 C299.699751,139.966944 299.050681,137.625432 299.345099,135.116632 C299.443758,134.27188 301.002565,134.266165 300.902868,135.116632 C300.611046,137.602573 301.254924,139.986686 301.560766,142.444572 C301.849472,144.764264 301.611133,147.064733 301.287118,149.366761 L303.886514,149.286234 C304.32944,148.578118 304.811829,147.711546 305.058475,147.240853 C305.351336,146.682361 305.632253,146.096334 305.903305,145.52849 C306.422042,144.444755 306.957914,143.323614 307.629313,142.284038 C310.266096,138.198991 311.598507,133.367382 311.702358,127.512823 C311.768823,123.78573 310.247402,120.589076 307.0519,117.741024" id="Combined-Shape"></path>
                <path d="M223.347066,217.103576 C222.934634,217.668498 222.536262,218.266713 222.150909,218.84568 C221.525492,219.784097 220.879244,220.754765 220.1377,221.640642 C219.24618,222.705464 218.033881,224.049106 216.562769,224.997926 C211.19803,228.458727 204.965204,230.272617 198.03666,230.389139 C197.955945,230.390179 197.874187,230.391219 197.79243,230.391219 C195.527179,230.391219 192.931253,229.868952 190.265547,228.874876 C180.700459,225.309518 174.703012,218.214694 172.921535,208.35716 C171.982628,203.163098 172.44401,198.880923 174.331719,195.265107 C175.202409,193.597389 176.009046,191.853724 176.789647,190.166759 C177.744697,188.102139 178.732555,185.966773 179.852683,183.937005 C180.54059,182.690639 181.611247,181.674714 182.646492,180.692082 C183.031325,180.327431 183.428655,179.949776 183.793178,179.572641 C184.822175,178.506259 186.035516,178.485451 187.121275,179.51334 L189.140212,181.422944 C190.729533,182.925763 192.318854,184.428582 193.90453,185.934522 C194.780427,186.76578 195.651117,187.60276 196.589503,188.503723 L198.264227,190.110579 L197.997084,190.47731 C197.916889,190.58759 197.828361,190.723879 197.72994,190.874212 C197.449257,191.303886 197.099836,191.839158 196.639495,192.300564 C193.807671,195.141302 192.151694,198.691575 190.568102,202.385419 C189.625028,204.585288 189.849991,206.659792 191.25705,208.728053 C195.492289,214.954165 201.175205,217.634686 208.633349,216.916829 L208.733332,216.907986 C208.937986,216.889259 209.14993,216.870532 209.272306,216.807069 C216.419564,213.080453 219.200875,208.736376 218.024507,203.136048 C217.599056,201.109922 216.726284,199.661203 215.430664,198.830985 C214.091302,197.971637 212.320761,197.782809 210.169554,198.269704 C209.195756,198.490263 208.236019,199.038019 207.308047,199.567049 L207.099748,199.686172 C205.865056,200.387903 205.301086,201.566126 205.511468,203.004441 C205.57552,203.438797 206.119701,204.099434 206.551401,204.266414 C206.749806,204.343401 206.92686,204.344442 207.091416,204.270055 C207.368453,204.14417 207.62414,203.807089 207.792342,203.345163 C208.523992,201.336203 210.629374,200.144976 212.789434,200.509107 C214.47301,200.793649 215.716034,202.538354 215.744675,204.659154 C215.792584,208.220871 212.570199,213.37904 208.740623,214.321098 C206.061378,214.980175 203.268089,214.765858 200.874734,213.718722 C197.089421,212.060888 194.512763,209.786633 192.997909,206.764869 C192.524029,205.821251 192.458935,204.36681 192.846371,203.382097 C194.02274,200.392585 195.590189,196.954152 198.290785,194.113934 C199.122939,193.23846 199.828031,192.1778 200.449804,191.241984 C203.718014,186.322581 208.362039,183.274288 214.252213,182.181376 C217.056958,181.660669 219.488328,183.052688 221.497892,184.482161 C223.890726,186.184211 225.495149,188.445462 226.136189,191.021425 C226.286164,191.623801 226.439785,192.226177 226.594447,192.829073 C227.335991,195.725472 228.102531,198.720185 228.38061,201.729464 C228.847721,206.79348 227.201638,211.822643 223.347066,217.103576 M206.964874,182.175654 C205.054773,183.302378 203.279545,184.716765 201.563162,186.084855 C200.794539,186.696595 200.000399,187.330182 199.217195,187.917472 L198.811533,188.221261 L198.49648,187.824359 C198.197571,187.447744 197.89033,187.047721 197.573716,186.635733 C196.838941,185.67859 196.079171,184.689195 195.241809,183.75338 C192.898967,181.13372 190.273879,178.443836 186.958281,176.517586 C186.363066,176.171662 185.84284,176 185.352296,176 C184.938822,176 184.545658,176.122244 184.146245,176.364651 C180.88897,178.340319 178.781505,180.445514 177.514006,182.988705 C176.707369,184.605965 175.933538,186.277845 175.184703,187.895104 C174.197366,190.028389 173.17566,192.23398 172.062823,194.35426 C169.99181,198.298834 169.486685,202.998719 170.518286,208.723892 C172.768956,221.213049 181.099873,229.6666 193.975352,232.527105 C200.478445,233.971663 206.704501,231.835257 212.72434,229.769076 C213.243005,229.590652 213.761669,229.412749 214.279813,229.237446 C214.28502,229.233284 214.301684,229.22132 214.318869,229.210396 C214.363653,229.181786 214.408958,229.153696 214.455825,229.129247 C217.85943,227.373618 221.616102,225.002608 223.674095,220.727715 C223.94228,220.171115 224.341173,219.705028 224.726526,219.254547 C224.880667,219.074562 225.035329,218.894578 225.179055,218.709912 C227.640628,215.545097 229.310665,212.220585 230.142299,208.828969 C232.014906,201.194712 230.807814,193.534966 226.65225,186.677348 C222.216003,179.355723 214.672456,177.629744 206.964874,182.175654 M177.70486,206.713631 C176.364456,206.713631 176.362373,208.794377 177.70486,208.794377 C179.045264,208.794377 179.047347,206.713631 177.70486,206.713631 M180.937139,202.236646 C179.596735,202.236646 179.594652,204.317392 180.937139,204.317392 C182.277543,204.317392 182.279626,202.236646 180.937139,202.236646 M178.853629,212.49696 C177.513225,212.49696 177.511142,214.577706 178.853629,214.577706 C180.194033,214.577706 180.196116,212.49696 178.853629,212.49696 M182.382161,216.784025 C181.041757,216.784025 181.039674,218.864771 182.382161,218.864771 C183.722565,218.864771 183.724648,216.784025 182.382161,216.784025 M182.767306,209.196429 C181.426902,209.196429 181.424819,211.277175 182.767306,211.277175 C184.10771,211.277175 184.109793,209.196429 182.767306,209.196429 M189.31409,222.739328 C187.973686,222.739328 187.971603,224.820074 189.31409,224.820074 C190.654494,224.820074 190.656576,222.739328 189.31409,222.739328 M187.769293,218.398424 C186.428889,218.398424 186.426806,220.47917 187.769293,220.47917 C189.109696,220.47917 189.111779,218.398424 187.769293,218.398424 M194.843854,224.353727 C193.50345,224.353727 193.501367,226.434473 194.843854,226.434473 C196.184258,226.434473 196.186341,224.353727 194.843854,224.353727 M217.937022,186.33647 C216.596618,186.33647 216.594535,188.417216 217.937022,188.417216 C219.277425,188.417216 219.279508,186.33647 217.937022,186.33647 M222.175332,190.34794 C220.834929,190.34794 220.832846,192.428686 222.175332,192.428686 C223.515736,192.428686 223.517819,190.34794 222.175332,190.34794 M217.937022,190.953853 C216.596618,190.953853 216.594535,193.034599 217.937022,193.034599 C219.277425,193.034599 219.279508,190.953853 217.937022,190.953853 M199.398936,224.820074 C198.058532,224.820074 198.056449,226.90082 199.398936,226.90082 C200.739339,226.90082 200.741422,224.820074 199.398936,224.820074" id="Combined-Shape"></path>
            </g>
        </g>
    </g>
</svg>