<?xml version="1.0" encoding="UTF-8"?>
<svg width="137px" height="136px" viewBox="0 0 137 136" version="1.1" xmlns="http://www.w3.org/2000/svg" xmlns:xlink="http://www.w3.org/1999/xlink">
    <!-- Generator: Sketch 48.2 (47327) - http://www.bohemiancoding.com/sketch -->
    <title>figure/figure-gallery-icons-2</title>
    <desc>Created with Sketch.</desc>
    <defs>
        <linearGradient x1="11.0608849%" y1="62.5172603%" x2="83.5599707%" y2="71.7119045%" id="linearGradient-1">
            <stop stop-color="#2C89EF" offset="0%"></stop>
            <stop stop-color="#006DE3" offset="100%"></stop>
        </linearGradient>
    </defs>
    <g id="Symbols" stroke="none" stroke-width="1" fill="none" fill-rule="evenodd">
        <g id="figure/figure-gallery-icons-2" fill="url(#linearGradient-1)">
            <g>
                <path d="M67.3395173,54.7739524 L66.5615722,54.1921145 C66.2832597,53.984452 66.0182455,53.7978429 65.7684292,53.6217604 C65.2384006,53.248542 64.7378182,52.896377 64.2818796,52.4657405 C62.9558585,51.2092387 61.6222383,49.9575218 60.2905179,48.7058049 C56.2421639,44.9037627 52.0779256,40.990712 48.122659,36.9867491 C46.6285105,35.4747363 45.4269226,33.6871162 44.2633295,31.9578712 C43.7238022,31.1540163 43.1880745,30.3568602 42.6238506,29.5884132 C42.4034803,29.2869676 42.1954584,28.956813 41.9883863,28.6266583 C41.5637936,27.9510374 41.1638975,27.3127383 40.6851621,27.036174 C40.0088533,26.6438162 39.1226228,26.4878301 38.1850992,26.3232312 C38.1233576,26.3117476 38.0625658,26.3012209 37.9998742,26.2897373 C37.9799269,26.9328212 37.9704282,27.5261426 38.0958113,28.0448204 C38.3361289,29.05251 38.7626213,30.1300583 39.4379803,31.4363225 C43.1405809,38.5915879 48.968045,43.9888993 54.7138201,48.7574813 C56.8025884,50.4915112 58.8096677,52.3566459 60.9335812,54.3318322 L61.0086211,54.401691 C62.0050367,55.328995 63.0384973,56.288836 64.1346495,57.2869559 L65.1956564,58.2534957 L63.900981,58.8640426 C63.3937494,59.1023281 62.9245127,59.3654949 62.4761732,59.6152641 C61.4569606,60.1827474 60.4994898,60.7148228 59.4137862,60.866024 C58.7802216,60.9550223 58.1276596,60.9999999 57.4731979,60.9999999 C50.8468916,61.0009568 44.5007975,56.3960167 42.3854327,50.0503479 C42.0482282,49.0426584 41.7404697,48.0244422 41.4327112,47.006226 C41.1192535,45.9688705 40.8333421,45.0176422 40.522734,44.0740697 C38.0397688,36.5455859 32.6378474,32.3310895 24.4660995,31.547331 C22.482767,31.3578509 20.4566902,31.2200472 18.4961546,31.0870284 L17.262271,31.002815 C13.2623605,30.7252937 9.70224062,28.9501142 7.2392228,26.0045602 C4.79995178,23.0877153 3.67815307,19.3076834 4.07994888,15.3592248 C4.51119072,11.1064496 6.86307353,8.48435156 11.0700561,7.56566026 C14.2958211,6.86228723 18.152301,6.40294158 22.2785445,8.34271998 C23.3604486,8.84895716 25.5869483,8.11209019 26.6574539,7.75705428 C27.5294363,7.46804931 28.3805215,6.71012899 29.2050103,5.97708989 L29.6913448,5.54741031 C31.9292429,3.60284706 34.8909435,2.74635882 38.2696378,3.06502987 C42.494668,3.45930155 47.0759002,5.78856678 49.4106853,8.73029287 C50.5039878,10.1083298 50.4365469,12.3591235 50.3824042,14.16684 L50.3729055,14.5161341 C50.332061,15.9506323 50.1715327,17.3860874 50.0157537,18.7736941 C49.8447767,20.3038893 49.6756995,21.8254717 49.6614515,23.2982487 C49.6253563,26.777792 51.7948637,29.0496391 55.3226879,29.2276355 C56.5622708,29.2907955 57.8455477,29.274527 59.0851305,29.2601725 C60.6866145,29.2400761 62.2966474,29.2199797 63.8914823,29.3482137 C65.7142865,29.4965441 67.6130804,30.0094801 69.3817418,30.8305604 C70.4987912,31.3482812 71.7944165,32.8401976 71.8685065,34.1531606 C72.1715156,39.581095 72.1268716,45.3774629 69.7749888,50.9862647 C69.5451198,51.5307807 69.2364114,52.000653 68.9381517,52.4552138 C68.8384151,52.6064151 68.7396284,52.7585733 68.6436914,52.9107316 C68.5126091,53.121265 68.3682285,53.3260566 68.1830035,53.5834816 L67.3395173,54.7739524 Z M69.8419125,61.0426598 C71.0574284,61.4571492 72.2605216,61.9464769 73.4244355,62.4194938 C75.2668213,63.1688369 77.1464753,63.934491 79.0309072,64.3873591 C81.5584542,64.9956606 84.2656528,65.0225257 87.2853308,64.9918228 C87.8921332,64.9851065 88.4779125,64.7279696 88.7760579,64.3345884 C88.9968002,64.0457891 89.0541358,63.6965434 88.9490204,63.2964459 C88.7989921,62.7236446 87.8930887,61.903301 86.7482868,61.3017156 C86.3832498,61.1088629 85.7697582,61.1261333 85.1170873,61.1424442 C84.7463167,61.1529984 84.3984804,61.1635525 84.0640224,61.1453226 C78.876101,60.8833884 75.0298339,59.5977036 71.5935168,56.9802797 L70.8921106,56.445857 L71.3651298,55.7003518 C75.557322,49.0800347 75.4894748,41.4330888 75.4292723,34.6851628 C75.4044269,31.8566563 74.0484386,29.6316541 71.7100993,28.5810386 C68.8939629,27.3155026 65.6898553,26.7139173 63.5254342,26.3713879 C61.8426326,26.1046562 60.0222255,26.1814135 58.2667988,26.2562519 C57.7192432,26.2792791 57.1984443,26.3013468 56.6805122,26.3157388 C55.2757886,26.3521985 54.3039492,26.0269395 53.6531895,25.3226913 C53.0416092,24.6597001 52.7950658,23.7079096 52.9212043,22.4941848 C52.9833179,21.89164 53.0406536,21.2871763 53.0979892,20.6827126 C53.2824189,18.7781721 53.4697154,16.8362124 53.7850615,14.9307125 C54.5686488,10.2015034 53.03492,6.75318174 48.9593103,4.07627095 C40.5472137,-1.44737617 34.0587285,-1.36486208 25.8176832,4.36986761 C24.857311,5.03765611 23.2280227,5.47229432 22.1615795,5.03669665 C18.7032837,3.62532182 15.2870341,3.75580922 10.8960783,4.42455719 C6.64177249,5.07315637 3.44244279,7.10338692 1.64496991,10.2964906 C-0.433447682,13.9856382 -0.550030186,19.1389314 1.33917974,23.7462882 C4.16773886,30.6342963 9.64902774,34.5431618 16.7739388,34.7532849 L17.084507,34.7619201 C19.6865902,34.8386774 22.374677,34.9173536 24.9691155,35.4479385 C27.1450037,35.8921713 29.4728314,36.7758397 31.7012773,38.002997 C36.1715474,40.4669063 37.2924596,44.9073161 38.3751479,49.2018869 L38.4754853,49.597187 C39.5944862,54.0232048 42.0302961,57.6960415 45.9233872,60.8267799 C52.2704446,65.9301808 59.9429112,66.1153577 66.4476415,61.320905 C67.0286429,60.892983 67.7921627,60.8027932 68.3311179,60.8027932 C68.8509612,60.8027932 69.3870496,60.8872262 69.8419125,61.0426598 Z M38,10 C35.3354041,10 35.3312633,14 38,14 C40.6645959,14 40.6687367,10 38,10 M41,17 C38.3354041,17 38.3312633,21 41,21 C43.6645959,21 43.6687367,17 41,17 M33,17 C30.3354041,17 30.3312633,21 33,21 C35.6645959,21 35.6687367,17 33,17 M13,15 C10.3354041,15 10.3312633,19 13,19 C15.6645959,19 15.6687367,15 13,15 M13,22 C10.3354041,22 10.3312633,26 13,26 C15.6645959,26 15.6687367,22 13,22 M65,37 C62.3354041,37 62.3312633,41 65,41 C67.6645959,41 67.6687367,37 65,37 M63,32 C60.3354041,32 60.3312633,36 63,36 C65.6645959,36 65.6687367,32 63,32 M56,36 C53.3354041,36 53.3312633,40 56,40 C58.6645959,40 58.6687367,36 56,36 M52,54 C49.3354041,54 49.3312633,58 52,58 C54.6645959,58 54.6687367,54 52,54" id="Combined-Shape-Copy-13"></path>
                <path d="M10.5684295,97.0945733 C11.0588665,96.4376489 11.7050439,95.8448268 11.9937923,95.1049173 C12.2578737,94.42911 10.9543947,93.6096938 9.7249165,93.5927986 C8.85625292,93.5808726 7.96582437,93.5764003 7.91600681,94.8052763 C7.88408487,95.6008405 9.33798395,96.8307103 10.5684295,97.0945733 M10.3952772,90.0318907 C13.2924347,89.7312559 14.5098212,91.5698491 14.9180351,94.9692589 C15.3741318,98.7726623 13.945867,99.7570551 10.1534443,99.9960722 C9.76602809,100.020421 9.36893855,99.9260069 8.97958767,99.8658799 C5.1160661,99.2690825 4.74267619,97.0205327 5.11074578,93.4233499 C5.29695707,91.6016518 8.06932883,90.036363 10.3952772,90.0318907" id="Fill-15-Copy"></path>
                <path d="M132.568429,45.0945733 C133.058866,44.4376489 133.705044,43.8448268 133.993792,43.1049173 C134.257874,42.42911 132.954395,41.6096938 131.724917,41.5927986 C130.856253,41.5808726 129.965824,41.5764003 129.916007,42.8052763 C129.884085,43.6008405 131.337984,44.8307103 132.568429,45.0945733 M132.395277,38.0318907 C135.292435,37.7312559 136.509821,39.5698491 136.918035,42.9692589 C137.374132,46.7726623 135.945867,47.7570551 132.153444,47.9960722 C131.766028,48.0204211 131.368939,47.9260069 130.979588,47.8658799 C127.116066,47.2690825 126.742676,45.0205327 127.110746,41.4233499 C127.296957,39.6016518 130.069329,38.036363 132.395277,38.0318907" id="Fill-15-Copy-2"></path>
                <path d="M48.3636335,113.025328 L42.8100979,114.35897 C43.0207978,115.244615 43.3925852,116.54843 43.8268475,117.992244 L48.6294584,114.838009 C48.5234959,114.203754 48.4310084,113.592019 48.3636335,113.025328 M87.0708027,109.877119 C86.7394404,110.197899 86.339478,110.385985 85.9578906,110.365289 C85.5793658,110.359202 85.1665409,110.15103 84.824766,109.792511 C84.3825412,109.329298 84.1320288,108.702955 84.1546912,108.117395 C84.1914412,107.14775 84.900716,106.501929 85.9223656,106.501929 C85.9333906,106.501929 85.9444156,106.501929 85.9554406,106.502538 C87.0377278,106.516538 87.75864,107.239054 87.747615,108.298784 C87.7421025,108.890432 87.4952651,109.465644 87.0708027,109.877119 Z M75.4914942,114.00039 C75.3199943,114.277344 74.732607,114.796557 73.6178573,114.987686 C73.4720824,115.012643 73.3244699,115.022382 73.1915575,115.030903 L73.1290825,115.03699 C71.1788832,115.017512 69.9673586,114.126998 69.6255837,112.462229 C69.2495088,110.634939 70.176221,108.732172 71.7344205,108.130177 C71.8918329,108.069308 72.0523079,108.000526 72.2170703,107.929309 C72.4957577,107.808788 72.8767326,107.643833 73.05987,107.643833 L73.0604825,107.643833 C73.2650575,107.663311 73.5112824,107.760093 73.6693073,107.843484 C73.6160198,108.023656 73.4959699,108.298784 73.3189574,108.527043 C73.2062575,108.671303 72.9441076,108.841736 72.6905327,109.006692 C72.3273203,109.242255 71.9151079,109.50947 71.564758,109.90938 C70.9375583,110.624591 70.8273083,111.722669 70.9908457,112.439707 C71.0496457,112.699618 71.2162457,113.067267 71.6780705,113.341787 C72.1815453,113.641871 73.1045825,113.84213 73.7771073,113.657697 C73.9075697,113.622393 74.0380322,113.584046 74.1684946,113.546307 C75.3824692,113.193266 75.3824692,113.193266 75.5564192,113.756305 C75.5631567,113.779435 75.5845942,113.849435 75.4914942,114.00039 Z M91.4881512,116.320719 C94.0079754,112.448837 94.2627753,108.083917 92.225601,103.696474 C91.7117137,102.589266 90.1896517,101.422406 88.9689396,101.200234 C82.2204169,99.9694611 76.3747189,100.080852 71.0974207,101.5411 C65.8813725,102.983697 60.6524618,104.594902 55.3096261,106.257236 C53.3441143,106.86897 51.6830148,107.016273 50.2001528,106.718015 C49.9324904,108.196524 49.641553,111.806669 51.156265,117.958097 C51.7883648,118.00314 52.5209145,118.169921 53.3894392,118.445049 C53.8365641,118.586266 54.2800139,118.741482 54.7246888,118.897307 C55.8161634,119.280782 56.8972255,119.659996 57.9936002,119.844429 C60.8692867,120.328947 63.7425232,120.618684 66.4191473,120.859117 C68.9107964,121.083115 71.3136331,121.20607 73.5627324,121.226157 C74.720357,121.227374 75.972919,121.165897 76.9725187,121.112332 C78.0094808,121.055724 79.0825805,120.997289 80.1403676,120.997289 L80.2083551,120.997289 C83.6303914,120.997289 86.5054654,119.475563 89.285602,118.003749 C89.7290518,117.768794 90.1725017,117.534448 90.617789,117.30558 C90.9650764,117.127234 91.2247763,116.727324 91.4538513,116.374284 L92.2274385,116.866714 L91.4544638,116.372458 L91.4881512,116.320719 Z M49.001062,116.783019 L44.3846511,119.814908 C44.9365134,121.591067 45.5177757,123.398878 45.9673505,124.781215 C46.0445255,124.587651 46.1217005,124.394696 46.1994879,124.201741 L47.0796501,124.473826 L46.2258254,124.136003 C46.5810753,123.250358 46.9485752,122.334887 47.2842251,121.424895 C47.8863124,119.79056 48.5006497,118.792916 49.3507994,118.306572 C49.2227869,117.781881 49.105187,117.273015 49.001062,116.783019 M41.609292,107.701354 C41.8892044,109.459862 42.1795293,111.193413 42.4392292,112.569054 L48.1991773,111.186109 C48.1544648,110.463593 48.1385398,109.811076 48.1458898,109.227342 L41.609292,107.701354 Z M43.6145551,102.901524 C43.2513427,102.673874 42.8881303,102.446223 42.5285929,102.216138 C42.1819181,101.993966 41.8009432,101.811968 41.3605558,101.601361 C41.1388309,101.49484 40.8968935,101.379189 40.6310686,101.245277 C40.7988935,102.400572 41.038381,104.022732 41.3048184,105.754457 L48.250566,107.376009 C48.3075285,106.855579 48.3773535,106.433756 48.4459534,106.11115 C47.9847411,105.878022 47.5345537,105.607154 47.1009039,105.26507 C46.0020793,104.397077 44.7887172,103.636822 43.6145551,102.901524 M93.0326307,117.310998 L93.0001682,117.361519 C92.9995557,117.361519 92.9995557,117.361519 92.9995557,117.362128 L92.227806,116.867262 L92.9977182,117.364563 C92.6798308,117.855167 92.243731,118.525944 91.4615687,118.92768 C91.0230189,119.152896 90.586919,119.384198 90.1508192,119.615501 C87.1703952,121.192618 84.0889088,122.823301 80.2454726,122.823301 L80.1321601,122.823301 C79.133173,122.823301 78.0857983,122.880517 77.0721112,122.9353 C76.048624,122.99069 74.7770744,123.05582 73.5477874,123.052168 C71.2478506,123.031473 68.794789,122.906082 66.2541399,122.677823 C63.5407658,122.434347 60.6240418,122.14035 57.6858803,121.645484 C56.4345432,121.434268 55.2769186,121.028272 54.1578815,120.635058 C53.6862566,120.470102 53.2599568,120.320364 52.8318194,120.184626 C51.8230323,119.865673 51.1652075,119.695239 50.6801077,119.751239 C50.6745952,119.752456 50.6696952,119.755499 50.6641827,119.757326 C50.6353952,119.76463 50.6066077,119.763412 50.5778202,119.768282 C49.8869204,119.903411 49.5573955,120.566275 49.0092082,122.053307 C48.6643709,122.987038 48.2925835,123.914683 47.9330461,124.811893 C47.9330461,124.811893 47.9060961,124.87824 47.9060961,124.878849 C47.7474587,125.273889 47.5888212,125.668929 47.4332463,126.065187 L46.742959,127.814564 C46.6045341,128.16517 46.2652092,128.394038 45.8872968,128.394038 C45.8793343,128.394038 45.8707593,128.394038 45.8627968,128.394038 C45.4756969,128.38369 45.1369846,128.133518 45.0150971,127.768304 C44.8846346,127.374481 41.7970232,118.090122 41.0044485,114.707019 C40.1585863,111.093222 38.6267243,100.222007 38.5617993,99.7606193 C38.5146368,99.4240134 38.6597993,99.0886248 38.9384867,98.8914091 C39.2171741,98.6941933 39.5840615,98.6668022 39.8884738,98.8208009 L41.4246233,99.5974902 C41.6941232,99.733837 41.9360606,99.8494882 42.1571731,99.9560091 C42.6330854,100.183051 43.0814353,100.397918 43.5236601,100.68096 C43.877685,100.908001 44.2359974,101.131999 44.5943097,101.356606 C45.8095093,102.118078 47.0669714,102.905115 48.2448085,103.835195 C49.9916579,105.215097 51.8799948,105.411095 54.7605813,104.514494 C60.1187294,102.847898 65.3623402,101.231216 70.6047259,99.7813148 C76.156424,98.2474143 82.2722344,98.1238501 89.300057,99.4039266 C91.1106064,99.733837 93.1287932,101.282955 93.8944179,102.931289 C96.2084421,107.915248 95.9101547,112.887643 93.0326307,117.310998 M96.3670796,101.996949 C95.3135799,99.3692312 93.1882057,97.6435932 90.0503692,96.8693386 C89.394382,96.7074269 88.7451322,96.6429057 88.0517824,96.5735149 C87.7712575,96.5455152 87.4907326,96.5181241 87.2114327,96.4822113 C80.57561,95.646479 75.1733618,95.8923901 70.2084385,97.2564659 C64.9538028,98.7008889 59.6575171,100.333397 54.5308939,101.913558 L53.9392191,102.095557 C52.558032,102.521032 51.064145,102.752943 49.4875706,101.582431 C48.1137335,100.562265 46.5561466,99.4057527 44.8607472,98.5401945 C43.0177353,97.5997674 41.0852984,96.8340346 39.1173366,96.2636914 C38.2880119,96.0214325 37.4262247,96.1656922 36.8143374,96.6477752 C36.2637001,97.0799456 35.9678627,97.724549 36.0027752,98.4166303 L36.0291127,98.9449738 C36.1056751,100.5087 36.1846876,102.125991 36.4713375,103.695805 C37.7153246,110.507053 38.9237867,116.788741 40.1665488,122.898778 C40.6191861,125.12476 41.2329109,127.344046 41.8264232,129.49029 L42.1394106,130.626715 C42.5461104,132.112529 43.4526101,133 44.5642973,133 C44.6690347,133 44.7749972,132.992696 44.8785096,132.97687 C45.9656968,132.81861 47.1949839,132.018791 47.6764087,131.155059 C48.9173333,128.927251 50.0633204,126.434662 51.08252,123.746684 C51.2203325,123.385122 51.4414449,122.887213 51.7764823,122.737475 C52.1023322,122.591998 52.6051945,122.750258 53.0082194,122.903648 C54.7281188,123.55799 56.1632058,123.964596 57.5241803,124.184333 C60.4243668,124.651807 63.2657534,124.996935 65.9687149,125.210585 C69.0698014,125.454062 72.1372003,125.507626 74.4671495,125.526496 C75.5335117,125.548409 76.6127363,125.432757 77.7189109,125.325628 C78.1617483,125.28302 78.6058106,125.240411 79.081723,125.204498 C84.2996087,126.056665 91.3941938,121.969307 93.4485181,120.693492 C93.9464804,120.384277 94.3280678,119.896107 94.6759677,119.422546 C98.4514164,114.279109 99.0045037,108.57933 96.3670796,101.996949" id="Combined-Shape-Copy-12" transform="translate(67.000000, 114.500000) rotate(4.000000) translate(-67.000000, -114.500000) "></path>
            </g>
        </g>
    </g>
</svg>