<?xml version="1.0" encoding="UTF-8"?>
<svg width="453px" height="388px" viewBox="0 0 453 388" version="1.1" xmlns="http://www.w3.org/2000/svg" xmlns:xlink="http://www.w3.org/1999/xlink">
    <!-- Generator: Sketch 48.2 (47327) - http://www.bohemiancoding.com/sketch -->
    <title>figure/figure-hero-icons-2</title>
    <desc>Created with Sketch.</desc>
    <defs>
        <linearGradient x1="11.0608849%" y1="62.5172603%" x2="83.5599707%" y2="71.7119045%" id="linearGradient-1">
            <stop stop-color="#2C89EF" offset="0%"></stop>
            <stop stop-color="#006DE3" offset="100%"></stop>
        </linearGradient>
    </defs>
    <g id="Symbols" stroke="none" stroke-width="1" fill="none" fill-rule="evenodd">
        <g id="figure/figure-hero-icons-2" fill="url(#linearGradient-1)">
            <path d="M211.6822,142.203335 L210.961457,141.661624 C210.703608,141.468283 210.45808,141.294543 210.226633,141.130604 C209.735577,140.783125 209.271802,140.455248 208.849388,140.05431 C207.620869,138.884464 206.385309,137.719072 205.151509,136.55368 C201.400828,133.013848 197.542784,129.370663 193.878346,125.642835 C192.494061,124.235099 191.380825,122.570763 190.302791,120.960777 C189.802934,120.21236 189.306598,119.47018 188.783862,118.75473 C188.579695,118.474073 188.386969,118.166688 188.195123,117.859303 C187.80175,117.230276 187.431258,116.635998 186.987724,116.378507 C186.361143,116.013208 185.540077,115.86798 184.671489,115.714733 C184.614287,115.704041 184.557965,115.69424 184.499883,115.683548 C184.481403,116.282282 184.472603,116.834685 184.588766,117.317591 C184.811414,118.255785 185.206546,119.25902 185.832246,120.475197 C189.262597,127.136996 194.661571,132.162079 199.984863,136.601793 C201.920045,138.216235 203.779545,139.952739 205.747288,141.791706 L205.816811,141.856747 C206.73996,142.720099 207.697431,143.613744 208.712984,144.543028 L209.695976,145.44291 L208.496497,146.01135 C208.026562,146.233202 207.591828,146.478219 207.176455,146.710763 C206.232184,147.23911 205.345116,147.73449 204.339243,147.875264 C203.752264,147.958124 203.147685,148 202.541345,148 C196.402267,148.000891 190.522798,143.713533 188.562974,137.805496 C188.250564,136.867303 187.965435,135.919308 187.680306,134.971314 C187.389897,134.0055 187.125008,133.119874 186.837239,132.241375 C184.536845,125.232097 179.532123,121.308256 171.961239,120.57855 C170.12374,120.402137 168.246639,120.273837 166.430261,120.149992 L165.287104,120.071586 C161.581305,119.813204 158.282958,118.160451 156.001045,115.418039 C153.741132,112.702356 152.701818,109.183016 153.07407,105.506864 C153.473603,101.547384 155.652553,99.1061204 159.550199,98.2507871 C162.538775,97.5959226 166.111691,97.168256 169.934534,98.9742565 C170.936886,99.4455808 172.999673,98.7595322 173.991465,98.4289816 C174.799331,98.159908 175.587836,97.454258 176.351701,96.7717733 L176.802275,96.3717268 C178.875622,94.5612714 181.619551,93.7638513 184.749812,94.060545 C188.664178,94.4276256 192.908555,96.5962518 195.071664,99.3351003 C196.084577,100.6181 196.022095,102.713667 195.971933,104.396713 L195.963133,104.721918 C195.925292,106.057485 195.776567,107.393943 195.632242,108.685853 C195.473837,110.110518 195.317192,111.527163 195.303992,112.89837 C195.270551,116.137944 197.280536,118.253112 200.548961,118.418833 C201.697398,118.477637 202.886316,118.462491 204.034753,118.449126 C205.518481,118.430416 207.010129,118.411705 208.487697,118.531096 C210.176471,118.669196 211.935648,119.146757 213.574261,119.911211 C214.609174,120.393227 215.809533,121.782253 215.878175,123.004667 C216.158904,128.058261 216.117543,133.454879 213.938593,138.676867 C213.725626,139.18383 213.439616,139.621298 213.163288,140.044509 C213.070885,140.185283 212.979362,140.326948 212.890479,140.468612 C212.769035,140.664626 212.635271,140.855294 212.463665,141.094966 L211.6822,142.203335 Z M213.348728,147.347071 C214.468642,147.729676 215.57711,148.181363 216.64948,148.617994 C218.346959,149.309696 220.078775,150.016453 221.814993,150.434485 C224.143744,150.995994 226.638017,151.020793 229.420192,150.992452 C229.979269,150.986252 230.518976,150.748895 230.793671,150.385774 C230.997052,150.11919 231.049878,149.796809 230.95303,149.427489 C230.814802,148.898749 229.980149,148.141509 228.925388,147.586199 C228.589062,147.408181 228.023822,147.424123 227.422485,147.439179 C227.080876,147.448922 226.760398,147.458664 226.452245,147.441836 C221.672363,147.200051 218.128611,146.013265 214.962566,143.597181 L214.316327,143.103868 L214.752142,142.415709 C218.614611,136.304647 218.5521,129.245928 218.496633,123.017073 C218.473742,120.406144 217.224404,118.352296 215.069979,117.382497 C212.475337,116.21431 209.523237,115.659001 207.529052,115.34282 C205.978605,115.096606 204.301376,115.167459 202.684017,115.23654 C202.179527,115.257796 201.69969,115.278166 201.222494,115.291451 C199.928255,115.325106 199.032852,115.024867 198.433276,114.374792 C197.869797,113.7628 197.642645,112.884224 197.758862,111.763863 C197.816091,111.207668 197.868917,110.649701 197.921743,110.091735 C198.091667,108.333697 198.264232,106.541119 198.554776,104.782196 C199.276733,100.416772 197.863634,97.2337062 194.108578,94.7627116 C186.358107,89.6639605 180.379952,89.7401273 172.787079,95.033724 C171.902242,95.6501441 170.4011,96.0513486 169.418534,95.6492584 C166.232239,94.3464509 163.084683,94.4669008 159.039083,95.0842066 C155.119386,95.6829136 152.171689,97.5569725 150.51559,100.504453 C148.600644,103.90982 148.493231,108.666706 150.233851,112.919651 C152.839939,119.277812 157.890115,122.885996 164.45464,123.079955 L164.740782,123.087926 C167.138207,123.158779 169.614871,123.231403 172.005252,123.721174 C174.010003,124.131235 176.154744,124.946929 178.207918,126.07969 C182.326594,128.354067 183.359345,132.452907 184.356878,136.417126 L184.449324,136.782019 C185.480313,140.867574 187.724542,144.257884 191.311435,147.147797 C197.159286,151.858628 204.2283,152.029561 210.221423,147.603912 C210.756727,147.208907 211.460195,147.125655 211.95676,147.125655 C212.435717,147.125655 212.929641,147.203593 213.348728,147.347071 Z M184,100 C181.335404,100 181.331263,104 184,104 C186.664596,104 186.668737,100 184,100 M187,106 C184.335404,106 184.331263,110 187,110 C189.664596,110 189.668737,106 187,106 M179,106 C176.335404,106 176.331263,110 179,110 C181.664596,110 181.668737,106 179,106 M161,105 C158.335404,105 158.331263,109 161,109 C163.664596,109 163.668737,105 161,105 M161,111 C158.335404,111 158.331263,115 161,115 C163.664596,115 163.668737,111 161,111 M209,125 C206.335404,125 206.331263,129 209,129 C211.664596,129 211.668737,125 209,125 M207,120 C204.335404,120 204.331263,124 207,124 C209.664596,124 209.668737,120 207,120 M201,124 C198.335404,124 198.331263,128 201,128 C203.664596,128 203.668737,124 201,124 M197,141 C194.335404,141 194.331263,145 197,145 C199.664596,145 199.668737,141 197,141" id="Combined-Shape-Copy-9"></path>
            <path d="M94.7247395,111.467298 C94.8398016,111.547372 94.9548638,111.627945 95.069926,111.70802 C93.6192823,112.452567 92.9789129,115.087579 94.0327534,116.261347 C94.3403028,116.603531 94.8924937,116.867131 95.374787,116.946212 C97.1206136,117.232193 97.8061476,116.761691 98.6148088,114.426588 C98.8970875,113.611415 99.0605404,112.243179 98.5787847,111.837333 C97.7894797,111.171866 96.4356173,111.061949 95.298975,110.791883 C95.1779984,110.763036 94.9193774,111.230057 94.7247395,111.467298 M95.4780204,120 C94.4924644,119.773204 93.471422,119.633446 92.5294177,119.300712 C90.5738984,118.60988 89.762011,117.406269 90.0598823,115.495414 C90.2814039,114.077938 90.6346555,112.657479 91.1287776,111.300682 C92.1127205,108.597532 93.4612062,107.836075 96.5178813,108.028055 C100.811744,108.297624 102.972117,111.267359 101.579004,115.013472 C101.32576,115.69386 101.013371,116.359825 100.671411,117.006392 C99.5890736,119.051535 97.9964841,119.924899 95.4780204,120" id="Fill-7-Copy"></path>
            <path d="M251.60094,226.796881 C252.637212,226.78947 253.254847,226.077399 253.254847,224.889379 C253.255376,223.534062 252.217517,222.617635 250.677928,222.613399 C249.391851,222.610223 248.63714,223.303764 248.64455,224.482784 C248.651959,225.714746 250.04865,226.80747 251.60094,226.796881 M245.000663,224.744847 C245.048296,221.603265 247.185937,218.981044 249.684526,219.000103 C253.906354,219.031868 257.071798,221.366614 256.998761,224.3949 C256.920962,227.641307 254.450423,230.061289 251.277569,229.998818 C247.418278,229.92364 244.95356,227.859958 245.000663,224.744847" id="Fill-11-Copy"></path>
            <path d="M352.60094,125.796881 C353.637212,125.78947 354.254847,125.077399 354.254847,123.889379 C354.255376,122.534062 353.217517,121.617635 351.677928,121.613399 C350.391851,121.610223 349.63714,122.303764 349.64455,123.482784 C349.651959,124.714746 351.04865,125.80747 352.60094,125.796881 M346.000663,123.744847 C346.048296,120.603265 348.185937,117.981044 350.684526,118.000103 C354.906354,118.031868 358.071798,120.366614 357.998761,123.3949 C357.920962,126.641307 355.450423,129.061289 352.277569,128.998818 C348.418278,128.92364 345.95356,126.859958 346.000663,123.744847" id="Fill-11-Copy-3"></path>
            <path d="M268.05057,66.189426 C268.073027,64.4617907 267.485398,63.9710556 265.371219,63.9504148 C264.23339,63.9390624 262.406342,65.4783503 262.346991,66.4980061 C262.211713,68.8402213 263.090215,69.8165314 265.335394,69.8180794 C266.962468,69.8191115 268.022231,68.4031523 268.05057,66.189426 M265.154133,61.0586381 C265.825174,61.132429 266.507443,61.157198 267.166721,61.2887831 C269.778165,61.8099634 270.960373,63.2212784 270.998871,65.802927 C271.063569,70.166909 268.340374,73.2300044 264.535492,72.9864429 C262.307423,72.8435053 260.492673,71.9017686 259.595456,69.8407843 C258.672575,67.7194257 258.719628,65.6708258 260.470215,63.8441147 C261.770056,62.4869818 262.72288,60.6473701 265.154133,61.0586381" id="Fill-13-Copy"></path>
            <path d="M148.632329,195.072362 C149.653916,193.918623 149.441561,191.689912 148.113845,191.041461 C147.525403,190.753646 146.696821,190.722932 146.059755,190.889875 C145.8216,190.952293 145.638022,191.951473 145.756603,192.44487 C145.883619,192.974926 146.326191,193.491111 146.757848,193.870076 C147.279309,194.327807 147.933244,194.635437 148.632329,195.072362 M147.45991,197.999557 C143.905441,197.966367 141.944629,196.031911 142.001191,192.614785 C142.045845,189.89763 144.069173,187.971101 146.84666,188.000328 C150.001226,188.033518 152.026043,190.187923 151.999747,193.483681 C151.974443,196.611505 150.549976,198.028785 147.45991,197.999557" id="Fill-17-Copy"></path>
            <path d="M342.632329,244.072362 C343.653916,242.918623 343.441561,240.689912 342.113845,240.041461 C341.525403,239.753646 340.696821,239.722932 340.059755,239.889875 C339.8216,239.952293 339.638022,240.951473 339.756603,241.44487 C339.883619,241.974926 340.326191,242.491111 340.757848,242.870076 C341.279309,243.327807 341.933244,243.635437 342.632329,244.072362 M341.45991,246.999557 C337.905441,246.966367 335.944629,245.031911 336.001191,241.614785 C336.045845,238.89763 338.069173,236.971101 340.84666,237.000328 C344.001226,237.033518 346.026043,239.187923 345.999747,242.483681 C345.974443,245.611505 344.549976,247.028785 341.45991,246.999557" id="Fill-17-Copy-2"></path>
            <path d="M448.632329,229.072362 C449.653916,227.918623 449.441561,225.689912 448.113845,225.041461 C447.525403,224.753646 446.696821,224.722932 446.059755,224.889875 C445.8216,224.952293 445.638022,225.951473 445.756603,226.44487 C445.883619,226.974926 446.326191,227.491111 446.757848,227.870076 C447.279309,228.327807 447.933244,228.635437 448.632329,229.072362 M447.45991,231.999557 C443.905441,231.966367 441.944629,230.031911 442.001191,226.614785 C442.045845,223.89763 444.069173,221.971101 446.84666,222.000328 C450.001226,222.033518 452.026043,224.187923 451.999747,227.483681 C451.974443,230.611505 450.549976,232.028785 447.45991,231.999557" id="Fill-17-Copy-3"></path>
            <path d="M332.347294,48.8088513 C332.377237,47.6228275 330.912415,45.9371452 329.630152,45.8732973 C329.092133,45.8462103 328.255161,46.0798357 328.055698,46.4595374 C327.80987,46.9267882 327.859615,47.8617736 328.187546,48.253084 C328.811049,48.9970092 329.656715,49.6325864 330.531358,50.0679132 C331.731518,50.6647947 332.312038,50.1912558 332.347294,48.8088513 M325,47.0762505 C325.235685,46.2481621 325.341937,45.3518725 325.733619,44.6064962 C326.527124,43.0973632 328.315531,42.6620363 330.618775,43.2560156 C333.079946,43.8901417 335.083754,46.5693365 334.997304,49.1106779 C334.892501,52.2189115 332.727868,53.7024086 329.791944,52.6784231 C327.021677,51.7124813 325.15165,49.469097 325,47.0762505" id="Fill-19-Copy-2"></path>
            <path d="M147.369499,233.264464 L142.711695,234.381839 C142.888411,235.123866 143.200233,236.216252 143.564453,237.425934 L147.592449,234.783197 C147.503577,234.251794 147.426007,233.73926 147.369499,233.264464 M179.833576,230.626776 C179.55566,230.895537 179.220207,231.053122 178.900166,231.035783 C178.582694,231.030683 178.236454,230.856268 177.949804,230.555888 C177.578905,230.16779 177.368798,229.643016 177.387806,229.152412 C177.418628,228.340007 178.013504,227.798914 178.870371,227.798914 C178.879618,227.798914 178.888865,227.798914 178.898111,227.799424 C179.805836,227.811154 180.410472,228.416505 180.401225,229.304387 C180.396602,229.800091 180.189577,230.282026 179.833576,230.626776 Z M170.121898,234.081408 C169.97806,234.313451 169.485412,234.748467 168.550461,234.908602 C168.428198,234.929511 168.304394,234.937671 168.192919,234.944811 L168.140521,234.949911 C166.50487,234.933591 165.488752,234.187485 165.202102,232.792678 C164.886685,231.261706 165.663927,229.667496 166.970804,229.163121 C167.102828,229.112123 167.23742,229.054495 167.375607,228.994827 C167.609345,228.89385 167.928872,228.755644 168.082472,228.755644 L168.082985,228.755644 C168.254564,228.771964 168.461076,228.853051 168.593613,228.922919 C168.54892,229.073874 168.448233,229.304387 168.299771,229.495631 C168.205248,229.616497 167.985381,229.759293 167.772705,229.897498 C167.468075,230.094862 167.122349,230.318745 166.828507,230.653805 C166.302468,231.253036 166.210001,232.173047 166.347161,232.773809 C166.396477,232.991572 166.536206,233.299602 166.923543,233.529605 C167.345812,233.781027 168.119972,233.948812 168.684025,233.794287 C168.793446,233.764708 168.902866,233.732579 169.012286,233.70096 C170.030458,233.405169 170.030458,233.405169 170.176352,233.876904 C170.182002,233.896284 170.199982,233.954932 170.121898,234.081408 Z M183.538449,236.025467 C185.65185,232.781458 185.865553,229.124363 184.156956,225.448397 C183.725953,224.520736 182.449385,223.543097 181.425562,223.356953 C175.765511,222.325765 170.862667,222.419092 166.436546,223.642544 C162.061796,224.851206 157.676258,226.201134 153.19517,227.5939 C151.546676,228.106434 150.153496,228.22985 148.909806,227.979958 C148.685315,229.21871 148.441303,232.243425 149.711706,237.397324 C150.241854,237.435063 150.856251,237.574799 151.584691,237.805312 C151.959699,237.923628 152.331625,238.053674 152.704578,238.18423 C153.620008,238.50552 154.526705,238.82324 155.446245,238.977765 C157.858111,239.383712 160.267923,239.626465 162.512833,239.827908 C164.602603,240.015583 166.617886,240.118599 168.504227,240.135429 C169.475138,240.136449 170.525674,240.08494 171.364048,240.040062 C172.233758,239.992633 173.133777,239.943675 174.020953,239.943675 L174.077975,239.943675 C176.94807,239.943675 179.359423,238.668715 181.69115,237.435573 C182.063076,237.238719 182.435001,237.042375 182.808468,236.850621 C183.099742,236.701196 183.317554,236.366137 183.509682,236.070346 L184.158497,236.482923 L183.510195,236.068816 L183.538449,236.025467 Z M147.904117,236.4128 L144.032288,238.953031 C144.49514,240.441164 144.982651,241.955817 145.359713,243.113991 C145.424441,242.951816 145.489168,242.790151 145.554409,242.628486 L146.29261,242.856449 L145.576499,242.573408 C145.87445,241.831381 146.182676,241.064365 146.464189,240.301939 C146.969165,238.932631 147.484416,238.096768 148.197445,237.68929 C148.090079,237.249684 147.991447,236.823337 147.904117,236.4128 M141.704567,228.803838 C141.939333,230.277182 142.182831,231.729616 142.400644,232.88218 L147.231568,231.723496 C147.194067,231.118145 147.180711,230.571442 147.186875,230.082368 L141.704567,228.803838 Z M143.386401,224.782358 C143.081771,224.591624 142.777142,224.40089 142.475594,224.208116 C142.184835,224.021972 141.865307,223.869487 141.49595,223.693032 C141.309987,223.603785 141.107072,223.506888 140.884122,223.394691 C141.024878,224.362641 141.225739,225.721749 141.449202,227.172653 L147.274668,228.531251 C147.322443,228.095215 147.381006,227.741796 147.438542,227.471504 C147.051718,227.27618 146.674142,227.049237 146.310436,226.762626 C145.388841,226.035389 144.371182,225.398419 143.386401,224.782358 M184.833819,236.85516 L184.806593,236.897489 C184.806079,236.897489 184.806079,236.897489 184.806079,236.897999 L184.158805,236.483382 L184.804538,236.900039 C184.537923,237.311086 184.172161,237.873088 183.516154,238.209678 C183.148338,238.398372 182.782577,238.592166 182.416816,238.78596 C179.917106,240.107329 177.332633,241.473576 174.109106,241.473576 L174.01407,241.473576 C173.17621,241.473576 172.297766,241.521515 171.447577,241.567413 C170.589169,241.613822 169.522708,241.66839 168.491693,241.66533 C166.562713,241.647991 164.505307,241.542934 162.37444,241.35169 C160.098707,241.147696 157.652422,240.901374 155.188158,240.486757 C154.138649,240.309792 153.167738,239.969633 152.229191,239.640183 C151.833635,239.501978 151.476093,239.376522 151.11701,239.262795 C150.27093,238.995563 149.719206,238.852768 149.312348,238.899686 C149.307725,238.900706 149.303615,238.903256 149.298992,238.904786 C149.274848,238.910906 149.250703,238.909886 149.226559,238.913966 C148.647095,239.027182 148.370719,239.582555 147.910949,240.828446 C147.62173,241.610762 147.309909,242.387978 147.008361,243.139694 C147.008361,243.139694 146.985758,243.195282 146.985758,243.195792 C146.852707,243.526772 146.719657,243.857752 146.589174,244.189751 L146.010224,245.655446 C145.894125,245.949196 145.60953,246.14095 145.292572,246.14095 C145.285893,246.14095 145.278701,246.14095 145.272023,246.14095 C144.947359,246.132281 144.663277,245.922677 144.561049,245.616687 C144.451629,245.286727 141.862019,237.50794 141.197279,234.673448 C140.487847,231.645673 139.203059,222.537357 139.148606,222.150789 C139.10905,221.868768 139.230799,221.587767 139.464537,221.422532 C139.698275,221.257297 140.005987,221.234348 140.261301,221.363374 L141.549684,222.014113 C141.775716,222.12835 141.978632,222.225247 142.164081,222.314494 C142.563233,222.504718 142.939268,222.684743 143.310167,222.921885 C143.607091,223.112109 143.907611,223.299783 144.208131,223.487967 C145.22733,224.125958 146.281976,224.785367 147.269839,225.564623 C148.734939,226.720757 150.318705,226.884971 152.734681,226.133765 C157.228612,224.737428 161.626479,223.382911 166.023318,222.168129 C170.679581,220.882969 175.808971,220.779442 181.703274,221.851939 C183.221799,222.12835 184.914472,223.426259 185.556609,224.807296 C187.497403,228.983046 187.247227,233.149106 184.833819,236.85516 M187.630454,224.024471 C186.746873,221.822869 184.964302,220.377065 182.332568,219.728365 C181.782385,219.592709 181.237853,219.538651 180.656334,219.480513 C180.421055,219.457053 180.185776,219.434104 179.951524,219.404015 C174.385995,218.703807 169.855078,218.90984 165.690948,220.052715 C161.283835,221.262907 156.841789,222.630684 152.54204,223.954603 L152.045797,224.107088 C150.887382,224.463567 149.634444,224.657871 148.312156,223.677172 C147.159906,222.822438 145.853542,221.853468 144.431594,221.128271 C142.885842,220.340346 141.265089,219.698786 139.61454,219.220931 C138.918978,219.017957 138.196188,219.138823 137.682993,219.542731 C137.221168,219.904819 136.973046,220.444892 137.002328,221.024744 L137.024417,221.467411 C137.088631,222.77756 137.154899,224.132587 137.395315,225.447836 C138.438659,231.154558 139.452208,236.417594 140.494525,241.536814 C140.874156,243.401826 141.388893,245.261228 141.886678,247.059432 L142.149183,248.011572 C142.490286,249.256443 143.250576,250 144.182959,250 C144.270803,250 144.359675,249.99388 144.446492,249.980621 C145.358326,249.848025 146.389341,249.177906 146.793117,248.454238 C147.833892,246.587696 148.795043,244.499312 149.649856,242.247222 C149.76544,241.944291 149.950889,241.527124 150.231888,241.401668 C150.505182,241.279782 150.926937,241.412378 151.264958,241.540894 C152.707454,242.089127 153.911076,242.429796 155.052538,242.613901 C157.484953,243.005568 159.868051,243.294729 162.135051,243.473734 C164.735962,243.677727 167.30862,243.722606 169.262771,243.738415 C170.157139,243.756775 171.062295,243.659878 171.990054,243.570121 C172.361466,243.534422 172.733906,243.498723 173.133058,243.468634 C177.509349,244.182612 183.459646,240.758068 185.182628,239.689142 C185.600274,239.43007 185.920315,239.021063 186.212102,238.624295 C189.378607,234.31493 189.842487,229.539439 187.630454,224.024471" id="Combined-Shape-Copy-2" transform="translate(163.000000, 234.500000) rotate(-25.000000) translate(-163.000000, -234.500000) "></path>
            <path d="M297.326933,111.810802 C297.932056,109.995398 297.491224,108.47969 296.140666,107.188493 C295.680956,106.749392 295.306453,106.526448 294.984503,106.526448 C294.557958,106.526448 294.224783,106.918558 293.909976,107.718443 C292.773201,110.613064 292.776262,113.494632 293.973754,116.498898 C295.785042,115.343973 296.7014,113.688337 297.326933,111.810802 M297.128507,145.271713 C298.58213,145.271713 300.048508,144.810683 301.127627,143.871393 C300.478115,143.434902 299.768906,143.067853 299.190825,142.548346 C298.114256,141.581384 296.953501,141.092682 295.767235,141.092682 C294.825875,141.092682 293.868189,141.400209 292.922237,142.020485 C292.246193,142.463763 292.346196,142.969695 292.749782,143.4443 C293.7789,144.653525 295.445285,145.271713 297.128507,145.271713 M290.921912,142.434002 C290.989261,141.951044 291.248454,141.258193 292.096443,140.701616 C293.28577,139.922094 294.520507,139.526328 295.76749,139.526328 C297.323667,139.526328 298.856884,140.164356 300.200809,141.371493 C300.496228,141.636729 300.885527,141.878469 301.297786,142.134307 C301.523304,142.274757 301.748823,142.415206 301.968218,142.562443 C302.371293,142.833423 302.625894,143.282444 302.655487,143.774801 C302.68508,144.267158 302.486604,144.744896 302.119244,145.064432 C300.805422,146.208392 299.032911,146.838066 297.128762,146.838066 C294.890929,146.838066 292.874531,145.97605 291.595405,144.472872 C290.914769,143.672466 290.853542,142.922183 290.921912,142.434002 M290.445875,124.801562 C290.359137,124.964463 290.194335,125.068365 290.013206,125.07463 L289.997389,125.07463 C289.821363,125.07463 289.657582,124.982215 289.564211,124.828713 C289.061642,124.005855 288.569788,123.208059 288.087118,122.426971 C286.846258,120.416295 285.673768,118.516831 284.569137,116.569331 C284.141061,115.814349 283.88493,114.824936 283.808907,113.629286 C283.725741,112.339655 284.165042,111.719901 284.548218,111.426993 C284.935477,111.131474 285.650808,110.875115 286.863096,111.331446 C289.210627,112.217479 290.853542,114.166023 291.370907,116.67741 C291.798473,118.753872 292.101035,121.194251 291.098959,123.554223 C291.0112,123.761504 290.909666,123.946856 290.756089,124.226711 C290.671903,124.380736 290.570879,124.565565 290.445875,124.801562 M292.489824,107.134663 C293.056681,105.691529 293.895996,104.960042 294.984299,104.960042 C295.940455,104.960042 296.698645,105.578752 297.185397,106.043959 C299.011482,107.789398 299.561501,109.958276 298.775759,112.31616 C298.236965,113.933159 297.236929,116.26337 294.783782,117.828157 C294.537855,117.984793 294.257233,118.065199 293.973549,118.065199 C293.815381,118.065199 293.656702,118.040137 293.502615,117.989492 C293.073008,117.846953 292.727077,117.518019 292.556663,117.090405 C291.227535,113.756161 291.205085,110.406253 292.489824,107.134663 M301.321767,114.849475 C301.571265,114.778989 301.828927,114.910563 301.9274,115.152826 C302.766205,117.214147 302.510074,118.97525 301.166659,120.38549 C300.296731,121.299196 299.309961,122.103258 298.291558,122.913062 C297.599187,123.464419 296.87008,123.979227 296.164953,124.476805 C295.856779,124.69505 295.547584,124.913296 295.241451,125.134674 C295.154203,125.19785 295.051138,125.230743 294.947053,125.230743 C294.886847,125.230743 294.82613,125.219779 294.767965,125.197328 C294.610307,125.137284 294.491425,125.000489 294.451117,124.83289 C293.657722,121.516919 297.510408,115.919295 301.321767,114.849475 M305.676001,175.928903 C305.011182,175.083594 304.233604,174.331223 303.482047,173.60339 C303.066216,173.20136 302.636609,172.785232 302.236595,172.362839 C301.888623,171.99579 301.534019,171.632918 301.179415,171.269524 C300.121214,170.184563 299.026788,169.063576 298.127267,167.847564 C294.80317,163.353696 293.355671,158.10328 292.378595,153.559288 C292.027563,151.92506 291.887762,150.21669 291.740308,148.408074 C291.695408,147.859328 291.649488,147.299096 291.597446,146.727899 C291.716838,146.798385 291.813269,146.858429 291.90613,146.922127 C295.51493,149.400098 300.305405,149.3907 303.826957,146.899154 C304.656068,146.312816 305.092307,145.732221 305.199454,145.072786 C305.301498,144.445722 305.092307,143.782633 304.560656,143.045402 C303.573887,141.678498 302.474868,140.265125 301.12278,139.185908 C298.369112,136.98988 295.301147,136.698539 292.247468,138.338511 C292.09032,138.423094 291.920926,138.494624 291.72143,138.573464 C291.718878,138.390722 291.720409,138.231476 291.734185,138.080062 C291.797963,137.391389 291.875006,136.702193 291.951029,136.014042 C292.109198,134.598581 292.271959,133.134562 292.314307,131.680987 C292.361758,130.041537 293.424551,129.281333 294.683268,128.38068 C295.424621,127.850208 296.198628,127.332267 296.947123,126.831556 C298.181861,126.005566 299.458946,125.151381 300.646743,124.204782 C301.639125,123.413251 302.573341,122.334034 303.502966,120.90552 C304.969344,118.652059 304.541268,116.225256 303.929001,114.149315 C303.486128,112.64666 302.423336,111.851997 300.764604,111.780467 C301.249825,109.179798 300.573781,106.994735 298.66402,104.950644 C297.231317,103.417184 295.612893,102.75305 294.107228,103.082507 C292.638298,103.403087 291.461727,104.635807 290.793336,106.553546 C290.508122,107.373271 290.253521,108.218579 290.007594,109.036738 C289.950959,109.225222 289.894325,109.413707 289.836669,109.603236 C289.731564,109.548413 289.628499,109.493591 289.525944,109.439291 C288.924903,109.122365 288.357536,108.82267 287.743739,108.593982 C285.943165,107.921494 284.240044,108.064555 282.948162,108.995491 C281.68026,109.909197 280.98891,111.460931 281.000135,113.365616 C281.009829,114.972173 281.252694,116.180353 281.743528,117.058034 C283.17215,119.615889 284.749756,122.135107 286.27532,124.571831 C286.699825,125.24954 287.124329,125.927248 287.545773,126.606524 C287.773332,126.972006 288.157529,127.289454 288.548869,127.435125 C288.94225,127.581318 289.022355,127.691484 288.903473,128.437591 C287.645266,136.37848 287.413625,144.106868 288.215184,151.408685 C289.013171,158.675521 291.126,164.597903 294.674594,169.514686 C296.562926,172.13154 298.874742,174.46854 301.110535,176.728788 C301.72076,177.344887 302.329455,177.960986 302.930497,178.581784 C303.294795,178.957708 303.97237,179 304.258094,179 L304.268809,179 C304.605045,178.998956 305.220373,178.944133 305.55814,178.590138 C306.090302,178.031994 306.15663,176.539781 305.676001,175.928903" id="Combined-Shape-Copy-8" transform="translate(293.500000, 141.000000) scale(-1, 1) rotate(28.000000) translate(-293.500000, -141.000000) "></path>
            <path d="M398.623468,220.247166 C397.136244,221.373176 396.065859,222.817244 395.539439,224.609967 C395.447764,224.921977 395.62073,225.310121 395.671223,225.663044 C396.025034,225.611102 396.425041,225.648102 396.72442,225.492631 C398.219522,224.715986 399.319631,223.603495 399.693138,221.88833 C399.851421,221.162205 400.111766,220.457781 400.325915,219.743396 C400.202368,219.670463 400.07882,219.597531 399.955273,219.524598 C399.50907,219.762252 399.021326,219.946185 398.623468,220.247166 M416.624176,226.173538 C416.030075,225.861528 415.238297,225.71922 414.39352,225.71922 C412.580417,225.71922 410.523801,226.374192 409.653598,227.413039 C410.346179,228.606646 411.270457,228.905136 412.243795,228.905136 C413.086424,228.905136 413.96558,228.681713 414.762729,228.621232 C415.821297,228.54154 416.23348,227.181433 416.624176,226.173538 M448.201021,254.55793 C447.888751,255.088383 447.425359,255.241008 446.955879,255.241363 C446.579865,255.241363 446.199912,255.143527 445.890148,255.063479 C444.310174,254.656123 443.307829,253.56391 442.416498,252.479881 C441.800551,251.73063 441.370105,250.839783 440.953983,249.978465 L440.748071,249.554744 C440.592652,249.238465 440.743416,248.793753 440.775287,248.708013 C440.862308,248.472493 440.986571,248.318089 441.143781,248.249782 C441.805207,247.961608 442.49564,247.730002 443.164228,247.505868 C443.398431,247.427243 443.632633,247.348617 443.86612,247.267502 C443.963884,247.233704 444.072032,247.24331 444.161918,247.294541 C444.220647,247.327983 444.267918,247.376367 444.299073,247.434358 C445.284229,247.311973 446.083885,247.770204 446.62427,248.771695 L446.659365,248.837869 C447.287845,250.002302 447.937812,251.206582 448.407292,252.467429 C448.633974,253.074016 448.545163,253.972689 448.201021,254.55793 Z M434.167831,246.672655 C434.009905,246.687598 433.850547,246.69578 433.691189,246.703607 C433.474891,246.71428 433.27077,246.724242 433.102817,246.755906 L433.072736,246.761598 C432.572458,246.856588 432.241924,246.919204 431.932877,246.919204 C431.489897,246.919204 431.126417,246.780098 430.852464,246.5058 C430.386565,246.039742 430.390862,245.466953 430.397308,244.594962 C430.397308,244.578241 430.397667,244.561875 430.398741,244.54551 C430.564187,241.469883 432.761539,239.322102 435.741717,239.322102 C436.263123,239.322102 436.801001,239.38792 437.340312,239.51742 C438.221617,239.729102 438.780624,240.801747 438.830043,241.462056 C439.032374,244.16199 437.028042,246.401915 434.167831,246.672655 Z M433.912141,254.739728 C433.888148,254.843257 433.819033,254.930777 433.723418,254.978806 C433.673283,255.003709 433.617776,255.016517 433.562628,255.016517 C433.513209,255.016517 433.464506,255.006556 433.41831,254.986277 C431.106363,253.973757 429.93141,251.21512 430.685586,248.568907 C430.71316,248.47107 430.781917,248.389599 430.874309,248.345484 C430.966343,248.300657 431.073059,248.298166 431.168316,248.337657 C433.035492,249.112167 434.446081,252.403035 433.912141,254.739728 Z M428.729956,244.047432 C428.720287,244.257336 428.700233,244.466529 428.678389,244.688529 C427.556435,244.410673 426.729205,243.738269 425.858286,243.030643 C425.551387,242.780893 425.238758,242.526874 424.907866,242.286729 C425.077251,242.26147 425.244488,242.237633 425.409218,242.213797 C426.407266,242.068998 427.349807,241.932027 428.26728,241.698287 C428.940524,241.527161 429.486997,241.195584 429.888795,240.725613 C429.214477,241.722479 428.784389,242.88122 428.729956,244.047432 Z M420.56258,238.774217 C420.360965,238.622659 420.083789,238.535496 419.763282,238.434813 C419.593181,238.381092 419.418066,238.325592 419.243309,238.257996 C419.074282,238.192534 418.981174,238.012159 419.026295,237.838188 C419.365782,236.524687 420.198384,235.922013 421.632249,235.943715 C423.418136,235.969331 425.480839,236.086023 427.355178,237.156533 C427.75232,237.383514 428.286618,237.987967 428.212848,238.487467 C428.140868,238.975583 427.490185,239.487535 427.007813,239.564025 L426.872448,239.586083 C425.956765,239.733016 425.027474,239.882083 424.104987,239.882083 C422.89673,239.882083 421.700648,239.625929 420.56258,238.774217 Z M420.169735,246.532127 C419.974924,246.768002 419.661937,246.883983 419.21287,246.886473 L419.165957,246.886473 C418.180085,246.886473 417.595294,246.713569 417.2157,246.311194 C416.840402,245.913443 416.702172,245.316462 416.768422,244.376163 C416.833956,243.443336 416.946402,242.502681 417.054551,241.592979 C417.103254,241.18669 417.151956,240.780401 417.196362,240.374113 C417.212119,240.22967 417.314896,240.109064 417.45599,240.06993 L418.012849,239.916237 C418.166835,239.872478 418.330491,239.937228 418.414288,240.07242 C418.525302,240.252439 418.649565,240.427834 418.773829,240.60394 C419.06891,241.021969 419.374018,241.454229 419.529795,241.954441 C419.827384,242.910393 420.014674,243.907259 420.195877,244.871039 C420.240282,245.10727 420.284688,245.343145 420.330526,245.578309 C420.4111,245.991357 420.358458,246.303367 420.169735,246.532127 Z M408.722803,227.946373 C408.497911,227.55894 408.540168,227.074026 408.827729,226.730353 C410.024168,225.302294 412.551339,224.651948 414.393448,224.651948 C415.461327,224.651948 416.406375,224.85189 417.126531,225.230073 C417.60747,225.482669 417.822335,226.052612 417.626808,226.557093 C417.592788,226.644968 417.558767,226.735334 417.523673,226.827478 C417.112564,227.916133 416.491246,229.561211 414.844306,229.68573 C414.55961,229.707076 414.246624,229.755105 413.915373,229.805624 C413.378927,229.887807 412.824217,229.97248 412.244082,229.97248 C410.665899,229.97248 409.513864,229.309682 408.722803,227.946373 Z M408.020911,236.952322 C407.993694,237.067235 407.910971,237.161158 407.800316,237.203139 L407.420363,237.347226 C407.378464,237.36288 407.335491,237.370351 407.292876,237.370351 C407.16718,237.370351 407.046498,237.304533 406.981322,237.190687 C406.910775,237.067235 406.813727,236.9356 406.71095,236.796139 C406.44416,236.434677 406.168058,236.061119 406.211747,235.638821 C406.3532,234.282272 406.58418,232.917896 406.807282,231.597991 C406.889646,231.112366 406.972011,230.626384 407.050079,230.140403 C407.079802,229.953269 407.252768,229.821278 407.441133,229.842624 L407.940336,229.895278 C408.083221,229.910576 408.203188,230.008769 408.244728,230.145028 C408.965958,232.495242 408.529783,234.796714 408.020911,236.952322 Z M404.87851,220.23756 C404.303388,219.967175 403.947787,219.369127 403.570699,218.735501 C403.404894,218.456578 403.233719,218.168405 403.040698,217.904068 C402.97409,217.813347 402.954752,217.697366 402.987698,217.590279 C403.021002,217.483193 403.102651,217.397808 403.209009,217.35974 C405.937078,216.385288 408.145174,216.204201 410.367952,216.772365 C410.465,216.797269 410.547365,216.861307 410.594277,216.949183 C410.641547,217.037058 410.649784,217.140231 410.616838,217.23451 C410.215756,218.374039 409.037222,219.492579 407.613741,220.084935 C407.020714,220.331483 406.451322,220.456002 405.938869,220.456002 C405.547815,220.456002 405.189348,220.383425 404.87851,220.23756 Z M401.500474,209.620331 C400.403589,209.527475 400.300454,209.16459 400.112805,207.920109 C400.097406,207.817647 400.127845,207.713763 400.195528,207.635137 C400.263926,207.556868 400.362764,207.511685 400.466974,207.511685 L406.96091,207.511685 C407.129937,207.511685 407.275687,207.628734 407.310782,207.792743 L407.385268,208.137484 C407.420005,208.297936 407.339789,208.461234 407.190816,208.532388 C407.060822,208.594648 406.930113,208.65584 406.799761,208.716321 C406.527957,208.842975 406.2472,208.973898 405.981842,209.114427 C405.085497,209.590447 404.159429,209.720302 403.234793,209.720302 C402.67507,209.720302 402.116063,209.672629 401.56386,209.625668 L401.500474,209.620331 Z M401.355799,220.047579 C401.286684,220.277762 401.213272,220.506522 401.139859,220.735281 C400.986231,221.213436 400.841197,221.664907 400.743433,222.114244 C400.336622,223.981322 399.151642,225.436064 397.221796,226.438622 C396.81606,226.649237 396.393492,226.676632 396.085161,226.696555 C395.988113,226.702959 395.896437,226.709007 395.828039,226.718968 C395.775755,226.726439 395.723471,226.730353 395.671187,226.730353 C395.440924,226.730353 395.215315,226.656709 395.028383,226.518314 C394.799552,226.348256 394.648072,226.094593 394.607606,225.813535 C394.599011,225.75341 394.577883,225.666246 394.554964,225.573746 C394.474747,225.246794 394.365166,224.798525 394.508052,224.31112 C395.081741,222.356879 396.247384,220.703974 397.972391,219.3983 C398.331216,219.126848 398.717615,218.941136 399.058176,218.777482 C399.189602,218.714511 399.320669,218.651895 399.448156,218.583943 C399.606798,218.499626 399.781196,218.457645 399.955595,218.457645 C400.145393,218.457645 400.33519,218.507453 400.503859,218.607068 L400.727319,218.738703 L400.874501,218.825511 C401.297785,219.075261 401.496177,219.579031 401.355799,220.047579 Z M397.809452,210.303409 C397.527979,211.245842 396.947843,212.086525 396.387046,212.899103 L396.249532,213.098334 C395.384343,214.357402 394.030693,214.568729 392.879733,214.568729 C392.789848,214.568729 392.701395,214.567662 392.614017,214.565171 C392.61151,214.565171 392.608287,214.565171 392.605422,214.564815 L392.566746,214.564815 C392.443915,214.564104 392.188584,214.563392 391.927881,214.518565 C391.239597,214.40045 390.731441,214.041834 390.532691,213.534151 C390.347191,213.061689 390.453907,212.533016 390.833144,212.045968 C391.556881,211.114919 392.453942,210.33187 393.154402,209.754101 C393.963369,209.086677 394.867234,208.555157 395.564471,208.166657 C395.878532,207.991974 396.565026,207.853936 396.886965,207.946792 C397.045249,207.99233 397.124391,208.086253 397.163067,208.157407 L397.246864,208.310744 C397.580979,208.919465 397.996743,209.676899 397.809452,210.303409 Z M449.458698,248.869888 C449.314738,248.592743 449.171495,248.315955 449.033265,248.037387 C447.788839,245.526722 445.558898,244.537327 442.581944,245.178424 C441.295619,245.455212 439.988523,246.103424 439.066394,246.930588 C438.069421,247.82357 437.896813,247.978329 437.134758,247.533973 C439.496483,246.07852 440.647801,243.959202 440.55899,241.226536 C440.499544,239.385073 439.377591,238.09363 437.631454,237.856688 C436.311825,237.678091 435.101419,237.680582 434.033182,237.863092 C432.546675,238.117822 431.151843,239.067727 430.165254,240.344228 C430.432045,239.90592 430.600356,239.379737 430.66016,238.777063 C430.82668,237.092851 430.281998,235.976446 428.945179,235.262772 C426.829475,234.132849 424.72917,233.585319 422.515703,233.605598 C422.34202,233.60631 422.168338,233.605954 421.994655,233.604887 C420.258546,233.600973 418.312227,233.587098 417.342112,235.749109 L413.369258,231.460664 C413.403279,231.461731 413.437657,231.462799 413.471677,231.463866 C413.899617,231.477029 414.342597,231.489481 414.784144,231.43327 L414.929536,231.41477 C415.511104,231.342904 416.170023,231.261433 416.614078,230.884317 C418.208376,229.534172 419.106153,228.057373 419.359336,226.369603 C419.599627,224.76615 419.013761,223.862495 417.459571,223.438774 C416.631983,223.213216 415.549422,222.961331 414.486556,222.982677 C411.908534,223.044937 409.775641,223.708803 407.981161,225.010919 L406.68839,222.861716 C409.14179,222.528715 410.772973,220.987522 412.235845,219.422492 C413.010434,218.594261 413.334164,217.640798 413.147589,216.737855 C412.958508,215.823528 412.270224,215.062893 411.209507,214.595767 C410.39123,214.235373 409.450121,214.137536 408.721729,214.092709 C406.500741,213.956094 404.426936,214.301546 402.397178,215.148277 L401.595015,212.0449 C401.605758,212.044544 401.616502,212.044189 401.626887,212.044189 C401.897975,212.037429 402.112482,212.032448 402.314455,212.055218 C404.533652,212.306747 406.511484,211.565323 408.151262,210.806467 C409.267486,210.289889 409.823986,209.473398 409.851918,208.309676 C409.89704,206.407021 408.756107,205.251838 406.720977,205.140482 C404.614226,205.025568 402.473097,205.068972 400.460886,205.123049 C399.821305,205.140126 399.636163,205.024145 399.473223,204.500808 L399.283784,203.88675 C398.890581,202.60349 398.483412,201.27647 397.84956,200.073969 C396.893411,198.261679 396.525276,196.497418 396.724742,194.680503 C396.886607,193.205839 396.442911,191.903722 395.285505,190.458231 L394.918802,190 L394.678511,190.534722 C394.576808,190.760991 394.453261,190.985837 394.333653,191.203212 C394.065072,191.692395 393.787538,192.197944 393.750294,192.742271 L393.718423,193.206195 C393.547247,195.653533 393.370341,198.183765 394.663829,200.613671 C395.253633,201.721537 395.68766,202.942894 396.107005,204.124404 C396.251681,204.531049 396.399938,204.948366 396.553924,205.35928 C393.253956,206.294954 390.700286,208.090522 388.756116,210.839197 C388.015906,211.885871 387.807129,213.133911 388.183143,214.263123 C388.552352,215.370278 389.44261,216.228038 390.625799,216.616182 C393.367835,217.515923 396.996188,216.853836 398.624865,213.848651 C398.661392,213.7807 398.700067,213.714171 398.74125,213.645863 L399.613602,216.614048 C399.532669,216.65425 399.451021,216.694807 399.368656,216.735365 C398.980824,216.927481 398.58225,217.124577 398.190121,217.334125 C395.381478,218.83227 393.543308,221.223397 392.726463,224.441332 C392.423145,225.635294 392.859321,226.957334 393.837315,227.80869 C394.73545,228.591027 395.887485,228.814806 396.920627,228.406383 C398.949669,227.604123 400.938961,226.53717 401.750792,224.183043 C401.934144,223.651168 402.160826,223.128187 402.400401,222.574965 C402.458414,222.44084 402.516786,222.305648 402.575874,222.167609 C402.602016,222.187177 402.622428,222.203542 402.629232,222.212436 C403.781624,224.055678 404.81799,225.719612 405.831078,227.411296 C405.853281,227.467151 405.83645,227.655354 405.780585,227.750344 C404.469909,229.984932 403.859692,232.537934 403.802037,236.0291 C403.772314,237.797986 405.472254,239.558689 407.368079,239.72341 C409.166499,239.879237 410.113337,238.988746 410.53304,236.743841 C410.698486,235.857263 410.813439,234.972464 410.934838,234.035723 C410.958473,233.851079 410.982466,233.664656 411.007534,233.47681 C411.269311,233.763204 411.529298,234.048531 411.787852,234.331724 C412.908373,235.560551 413.966941,236.720716 415.06705,237.885861 C415.404746,238.243409 415.453807,238.512015 415.269023,238.993371 C414.555313,240.853334 414.26811,242.929605 414.392016,245.34101 C414.441076,246.296251 414.954246,247.186742 415.256131,247.632522 C416.408523,249.334878 418.269254,249.297523 419.766147,249.266571 C421.99179,249.221744 422.74525,248.470359 422.753128,246.288069 C422.755277,245.751924 422.716601,245.230722 422.672196,244.627692 C422.669331,244.588202 422.666108,244.548 422.663243,244.508154 C422.776047,244.595673 422.887061,244.682481 422.996642,244.767866 C423.683852,245.30401 424.332744,245.810626 425.002765,246.273838 C425.563562,246.661982 426.310576,247.144406 427.114171,247.434714 L427.382753,247.530771 C427.803172,247.680906 428.200672,247.822858 428.252598,247.898637 C428.274084,247.953426 428.232902,248.18681 428.196375,248.392801 C428.163787,248.577801 428.124037,248.803359 428.08751,249.081926 C427.653124,252.4379 429.72872,256.21546 432.812749,257.681586 C433.258594,257.893269 433.714108,258 434.14527,258 C434.518061,258 434.872588,257.920308 435.186649,257.760211 C435.75819,257.469192 436.139575,256.937672 436.260974,256.263845 C436.528839,254.774238 436.718278,253.018516 436.088366,251.288053 C435.988095,251.013043 435.896778,250.735543 435.789703,250.410014 C435.800447,250.413572 435.81119,250.416773 435.821933,250.420331 C436.269569,250.561572 436.656325,250.683601 437.072089,250.710995 C438.555374,250.807764 439.199969,251.740236 439.948773,253.047333 C441.413436,255.60496 443.677755,257.207346 446.497858,257.681586 C447.492325,257.847019 448.561278,257.540346 449.437569,256.836278 C450.364354,256.092364 450.94628,255.004065 450.993908,253.925016 C451.079138,251.995323 450.25513,250.4061 449.458698,248.869888 Z M437.75869,241.541108 C437.73219,241.18605 437.383751,240.626068 437.087953,240.554915 C436.623845,240.443203 436.172629,240.389482 435.741466,240.389482 C433.382965,240.389482 431.611403,242.000406 431.471383,244.602504 C431.464579,245.559168 431.461714,245.851966 431.932984,245.851966 C432.145343,245.851966 432.453674,245.792553 432.901667,245.707524 C433.282336,245.635659 433.678046,245.647043 434.065877,245.610399 C436.315514,245.397293 437.918407,243.672167 437.75869,241.541108" id="Combined-Shape-Copy-6" transform="translate(419.500000, 224.000000) rotate(183.000000) translate(-419.500000, -224.000000) "></path>
            <path d="M347.734565,321.012929 C346.408011,321.012929 346.41007,318.938482 347.734565,318.938482 C349.06112,318.938482 349.059061,321.012929 347.734565,321.012929 M346.123456,314.608075 C347.45001,314.608075 347.447437,316.682522 346.123456,316.682522 C344.796902,316.682522 344.79896,314.608075 346.123456,314.608075 M344.780435,324.531709 C343.453881,324.531709 343.45594,322.457263 344.780435,322.457263 C346.10699,322.457263 346.104931,324.531709 344.780435,324.531709 M341.557701,284.202391 C340.231147,284.202391 340.233206,282.127944 341.557701,282.127944 C342.884256,282.127944 342.882197,284.202391 341.557701,284.202391 M335.918046,283.390245 C334.591491,283.390245 334.59355,281.315798 335.918046,281.315798 C337.2446,281.315798 337.242541,283.390245 335.918046,283.390245 M331.890014,294.217301 C330.56346,294.217301 330.565518,292.142854 331.890014,292.142854 C333.216568,292.142854 333.213995,294.217301 331.890014,294.217301 M331.890014,298.276993 C330.56346,298.276993 330.565518,296.202547 331.890014,296.202547 C333.216568,296.202547 333.213995,298.276993 331.890014,298.276993 M327.32426,328.05049 C325.997706,328.05049 325.999764,325.976043 327.32426,325.976043 C328.650814,325.976043 328.648756,328.05049 327.32426,328.05049 M323.296228,294.217301 C321.969674,294.217301 321.971732,292.142854 323.296228,292.142854 C324.622782,292.142854 324.620724,294.217301 323.296228,294.217301 M323.296228,299.63057 C321.969674,299.63057 321.971732,297.556123 323.296228,297.556123 C324.622782,297.556123 324.620724,299.63057 323.296228,299.63057 M331.084202,253.346552 C329.757648,253.346552 329.759706,251.272105 331.084202,251.272105 C332.410756,251.272105 332.408698,253.346552 331.084202,253.346552 M327.592864,259.301251 C326.26631,259.301251 326.268368,257.226805 327.592864,257.226805 C328.919418,257.226805 328.91736,259.301251 327.592864,259.301251 M327.32426,253.437309 C328.650814,253.437309 328.648756,255.511756 327.32426,255.511756 C325.997706,255.511756 325.999764,253.437309 327.32426,253.437309 M349.614279,279.42131 C350.940833,279.42131 350.938775,281.495757 349.614279,281.495757 C348.287725,281.495757 348.290298,279.42131 349.614279,279.42131 M351.225903,275.631814 C352.552458,275.631814 352.550399,277.706261 351.225903,277.706261 C349.899349,277.706261 349.901408,275.631814 351.225903,275.631814 M349.895233,310.361164 C348.649466,309.222811 347.207134,308.288792 346.048843,307.073684 C345.279566,306.266206 344.491763,305.178677 344.338937,304.12434 C343.688524,299.632644 344.735154,295.529907 347.658924,291.973268 C348.880506,290.486409 350.112895,288.992288 351.169816,287.387185 C353.524989,283.811358 355.449471,280.063351 354.92101,275.54002 C354.689455,273.562035 354.509356,271.533745 352.459835,270.510524 C351.268613,269.915676 350.004321,269.450482 348.738486,269.032481 C345.679899,268.022225 344.241684,266.186859 344.317325,262.978727 C344.349228,261.629818 344.601366,260.26535 344.921941,258.949633 C345.300663,257.397428 345.93358,255.909012 346.321049,254.358363 C346.65912,253.006861 347.119658,251.487848 345.976289,250.341197 C343.506367,247.865345 340.41279,246.605637 336.987831,246.19749 C336.845296,246.180894 336.700702,246.173115 336.554565,246.173115 C335.9659,246.173115 335.355624,246.298101 334.787027,246.44798 C332.986042,246.923028 331.270475,247.783405 329.429354,248.034413 C325.450721,248.57688 322.920079,253.254239 322.227472,254.35214 C320.582401,256.956608 320.731625,258.387976 323.0621,260.375815 C324.840959,261.893272 326.844169,263.139496 328.6786,264.594202 C331.241659,266.626641 333.187238,269.178211 333.968865,272.39464 C335.117894,277.122304 334.081041,279.699804 330.081825,281.597923 C326.442806,283.324381 323.27616,285.791936 321.329038,289.476672 C319.630452,292.692064 317.418328,295.727498 317.584018,299.665835 C317.669951,301.715907 318.12277,302.370914 319.944852,303.211583 C321.550816,303.952161 323.215441,304.690664 324.604772,305.759523 C329.496762,309.522569 329.491616,315.152617 324.730841,318.876249 C322.342735,320.74377 320.206252,322.810437 319.289808,325.864023 C318.66924,327.932765 318.98467,328.718461 320.642605,329.91801 C322.79504,331.474882 328.886486,333.184745 334.28378,333.508359 C334.013633,328.460193 334.156168,323.382466 334.295615,318.410536 C334.350159,316.472484 334.404704,314.515762 334.435063,312.603641 C334.590462,302.767133 334.989766,293.94503 338.318501,285.591752 C338.503745,285.128113 338.995672,285.003127 339.362558,285.15145 C339.751571,285.309108 339.926009,285.721923 339.771124,286.112438 C338.032916,290.473443 336.943578,295.458857 336.440331,301.352879 C336.081163,305.554671 336.018386,309.848257 335.957667,314.000262 L335.945318,314.848711 C335.922677,316.338163 335.895405,317.827098 335.868133,319.31655 L335.867103,319.376709 C335.804841,322.800065 335.740005,326.33959 335.740005,329.8174 C335.739491,331.073996 335.781171,332.322813 335.857327,333.564369 C335.914444,333.564369 335.973619,333.567481 336.030736,333.567481 C338.472357,333.567481 340.646403,333.222085 342.071239,332.370006 C344.410976,331.221281 346.663751,329.809102 348.741573,328.226299 C350.922823,326.565186 352.610089,324.364198 353.409726,321.665861 C354.751718,317.136307 353.248667,313.42564 349.895233,310.361164 M354.888592,322.111089 C354.041615,324.969677 352.238057,327.513467 349.672425,329.467596 C347.480884,331.137007 345.169448,332.575117 342.800896,333.741993 C341.23198,334.658899 338.955021,335.123575 336.030736,335.123575 C336.011697,335.123575 335.992143,335.122538 335.973104,335.122538 C336.652333,343.090488 338.725524,350.733268 340.842968,357.959603 C340.921182,358.226169 340.857376,358.502589 340.672131,358.699143 C340.523421,358.856801 340.311934,358.94704 340.092729,358.94704 C340.030466,358.94704 339.968204,358.939779 339.908514,358.925258 C339.644026,358.86095 339.439228,358.662322 339.361014,358.394199 C337.841498,353.210157 336.270524,347.849268 335.280497,342.406439 C334.839513,339.981929 334.556501,337.531489 334.381033,335.070158 C328.94103,334.764177 322.327298,333.051203 319.742627,331.181608 C317.521756,329.575467 317.016451,328.066307 317.812486,325.413609 C318.881757,321.849709 321.431437,319.487433 323.784552,317.64688 C325.700286,316.148092 326.751546,314.269162 326.743828,312.355485 C326.736109,310.419508 325.643683,308.516203 323.667746,306.996152 C322.500193,306.097917 321.02287,305.418017 319.594432,304.760417 L319.302672,304.626097 C316.943897,303.538049 316.151463,302.348354 316.041346,299.73144 C315.886461,296.039443 317.499629,293.168409 319.059797,290.391762 C319.363391,289.85085 319.677792,289.291787 319.966464,288.74517 C321.896605,285.092588 324.990183,282.294159 329.424208,280.190152 C332.715894,278.628093 333.455842,276.823843 332.469417,272.76467 C331.833412,270.147237 330.23671,267.809335 327.724078,265.816829 C326.959946,265.211091 326.173173,264.647878 325.339574,264.051994 C324.250236,263.27252 323.123848,262.466598 322.064869,261.563695 C319.154992,259.081619 318.835446,256.825658 320.925103,253.516397 C320.97553,253.436531 321.036249,253.336439 321.107774,253.218714 C322.125073,251.54308 324.829124,247.091836 329.222498,246.492321 C330.192971,246.360075 331.16962,246.015198 332.2039,245.649577 C332.907828,245.400643 333.63594,245.143412 334.395956,244.943228 C334.92596,244.803203 335.726627,244.617021 336.554565,244.617021 C336.765023,244.617021 336.971879,244.628949 337.168958,244.652805 C341.176922,245.130447 344.506171,246.673316 347.064599,249.23837 C348.775535,250.953937 348.230094,253.110324 347.868867,254.537544 L347.817925,254.738765 C347.613128,255.55869 347.349669,256.346461 347.094958,257.108302 C346.839733,257.872217 346.598401,258.594124 346.42139,259.320699 C346.063766,260.787852 345.885726,261.961989 345.861026,263.015289 C345.80288,265.464173 346.744538,266.736846 349.219092,267.55366 C350.316149,267.916169 351.753849,268.421297 353.145239,269.116237 C355.887882,270.48589 356.203826,273.207045 356.434867,275.193847 L356.453906,275.357728 C357.048745,280.447902 354.883961,284.561011 352.455719,288.247303 C351.367924,289.8996 350.111866,291.427948 348.896973,292.905473 L348.847574,292.96615 C346.27268,296.098565 345.269274,299.777596 345.866172,303.90004 C345.944901,304.443545 346.429623,305.227168 347.161852,305.99575 C347.764925,306.627938 348.476057,307.192706 349.229383,307.790665 C349.792319,308.23719 350.374809,308.699273 350.932086,309.208549 C354.994593,312.920772 356.325264,317.26207 354.888592,322.111089 M351.462604,305.514478 C350.800871,304.965787 350.175672,304.447694 349.582376,303.891224 C349.229383,303.56035 348.992682,303.151684 348.966954,302.948907 C348.592863,299.963778 349.388899,297.325082 351.399827,294.882421 C352.474758,293.576556 353.731331,292.013461 354.899398,290.324861 C357.557138,286.484023 360.487597,281.227894 359.551085,274.6213 C359.262928,272.588342 358.794157,270.287262 357.50105,268.636521 C355.774677,266.432421 353.461183,265.040986 350.811677,264.613131 C348.999886,264.320634 348.837283,264.087259 349.066265,262.114979 C349.159916,261.310612 349.387355,260.48965 349.612735,259.717956 C349.77328,259.166672 349.955437,258.624722 350.1484,258.051656 C350.442218,257.177277 350.745812,256.273856 350.967076,255.335687 C351.414235,253.445866 352.244746,249.928642 349.667794,247.297725 C345.872347,243.422658 341.211912,241.446229 335.817705,241.423929 C335.261458,241.427041 334.684628,241.499646 334.098022,241.657823 C333.561328,241.801997 333.022576,241.940466 332.48331,242.078417 C330.898443,242.485008 329.260061,242.905602 327.673136,243.482817 L327.374173,243.591207 C325.747111,244.179831 323.902388,244.847285 322.642213,246.170263 C320.817044,248.085496 319.132351,250.386576 317.491396,253.205749 C315.592129,256.467298 316.136026,260.191448 318.910572,262.924532 C320.368856,264.361086 322.021645,265.575675 323.446482,266.574521 C326.062541,268.40885 328.025615,270.148274 329.100545,272.673394 C330.228477,275.320907 329.914591,276.271522 327.501785,277.51619 C320.28601,281.238785 315.48407,287.566366 313.229236,296.322087 C311.695826,302.276267 313.694405,306.228607 319.168885,308.070197 C320.305564,308.452414 321.573457,309.353761 322.560912,310.481741 C323.33019,311.359751 323.687814,312.131445 323.625036,312.776598 C323.558143,313.461165 323.002925,314.209003 321.974305,314.999367 C319.126176,317.187909 316.051123,320.009156 314.842404,324.337489 C313.536948,329.015367 314.403479,331.543599 318.154673,333.998706 C322.70499,336.976574 327.761642,337.477035 332.222939,337.918892 C332.371134,337.933932 332.475591,337.94949 332.548145,337.962455 C332.552262,338.004981 332.556378,338.05788 332.558437,338.122188 L332.574903,338.59931 C332.630991,340.243309 332.688622,341.943318 333.115713,343.594059 C334.150507,347.592037 335.320119,351.615945 336.450623,355.507607 L337.258493,358.293589 C337.65471,359.665317 338.30255,360.60556 339.184003,361.088387 C339.59154,361.31139 340.030466,361.423929 340.482771,361.423929 C340.761151,361.423929 341.044678,361.381403 341.328719,361.295313 C342.387184,360.974811 344.012187,359.932402 343.005693,356.552091 C342.636234,355.311053 342.250309,354.073646 341.864898,352.837275 C341.077096,350.309562 340.262536,347.695759 339.613152,345.105812 C339.1521,343.267853 338.889671,341.397739 338.611805,339.418717 C338.550056,338.976341 338.487279,338.532928 338.422444,338.090552 C338.630329,338.068771 338.834612,338.048545 339.037352,338.028838 C340.348469,337.90074 341.587032,337.779385 342.732458,337.265441 C347.304387,335.214332 351.998783,332.674172 355.366111,328.01289 C360.123799,321.428078 359.61129,313.504729 354.059625,307.827487 C353.235288,306.983705 352.334281,306.236905 351.462604,305.514478" id="Combined-Shape-Copy" transform="translate(336.229365, 301.423929) rotate(116.000000) translate(-336.229365, -301.423929) "></path>
            <path d="M252.546018,321.594671 L252.39157,318.313984 C249.736209,318.551974 247.036496,318.648706 244.354002,318.588313 C244.35035,319.014137 244.367047,319.449173 244.404615,319.907241 C247.269212,319.640077 250.054498,320.225074 252.546018,321.594671 M244.757237,314.656657 C245.564438,314.513862 246.246932,314.112605 246.965429,313.690364 C247.410511,313.42883 247.870725,313.158084 248.374247,312.943636 C248.857941,312.73789 249.335374,312.578206 249.796632,312.424663 C250.53287,312.178995 251.232583,311.934351 251.911424,311.532071 L251.558698,308.416185 C251.179882,308.739136 250.800023,309.061063 250.420164,309.38299 C249.007172,310.581132 247.546175,311.820218 246.172317,313.091549 C245.790892,313.44572 245.321808,313.831111 244.786979,314.055794 C244.781761,314.2641 244.772369,314.467288 244.757237,314.656657 M248.341427,314.691153 C248.122799,314.808868 247.910955,314.92812 247.702241,315.044812 C246.71659,315.599611 245.782596,316.125238 244.574665,316.232206 C244.536574,316.506023 244.498484,316.779328 244.464046,317.054169 C247.091231,317.109956 249.729374,317.013736 252.319512,316.782399 L252.186457,313.963362 L252.098275,313.183879 C251.523269,313.459231 250.940957,313.668561 250.370647,313.864583 C249.699632,314.095408 249.005659,314.333911 248.341427,314.691153 M254.291544,325.458615 C254.248236,326.362979 254.25815,327.274509 254.267542,328.239266 C254.271716,328.666114 254.276412,329.100127 254.276412,329.5454 C254.276412,329.765477 254.179882,329.974806 254.011868,330.120672 C253.844375,330.267049 253.617399,330.336143 253.397727,330.307481 C250.662011,329.97583 248.65575,328.275093 246.715755,326.630143 C246.455385,326.409042 246.246671,326.175657 246.04474,325.94995 C245.868899,325.753416 245.703493,325.56763 245.530261,325.421765 C245.186927,325.132082 244.802893,325.018972 244.522695,325.125428 C244.249802,325.229837 244.160055,325.524126 244.132922,325.752393 C243.577222,330.460512 240.516434,333.73557 238.261803,335.788942 C235.998302,337.850504 233.521913,338.905851 230.899946,338.926835 L230.741323,338.928371 C230.295719,338.931953 229.847506,338.935536 229.398772,338.935536 C226.578005,338.935536 223.702972,338.791718 220.946385,337.593064 C211.558438,333.510886 207.382597,326.862503 208.179884,317.267644 C208.235193,316.601782 208.299894,315.936944 208.364596,315.272617 C208.451212,314.381048 208.540959,313.459794 208.604616,312.556454 C208.855073,309.00502 210.773675,306.197243 214.468952,303.973438 C216.039002,303.028129 217.730105,302.342307 219.468691,301.665697 C222.1204,300.634404 224.619748,301.254715 227.037175,301.856089 C227.49478,301.969199 227.952385,302.083332 228.411555,302.185694 C234.66723,303.58037 238.944297,307.781288 242.789327,311.965316 C243.236496,312.451021 243.597571,312.702831 243.863159,312.713579 C244.166316,312.738657 244.549828,312.482242 245.097702,311.97504 C246.496606,310.680167 247.971169,309.430844 249.396162,308.221442 C250.010824,307.700934 250.625486,307.179913 251.234931,306.654799 C251.482256,306.440863 251.840201,306.402989 252.129269,306.559091 L252.620268,306.824719 C252.84307,306.944994 252.991779,307.164047 253.019955,307.411762 L253.745236,313.818572 C253.746801,313.834949 253.748366,313.851327 253.748888,313.868217 L254.291544,325.386962 C254.293109,325.411017 254.293109,325.43456 254.291544,325.458615 M256.938557,330.434921 C256.669316,328.649736 256.497127,326.845614 256.387031,325.043539 C256.14701,321.106714 256.058828,317.159652 255.743149,313.229481 C255.531304,310.595206 255.163446,307.957349 254.622877,305.369649 C254.224234,303.460095 252.424077,303.058326 250.910381,304.29383 C248.626008,306.157322 246.301458,307.974239 244.211711,309.638126 C241.777587,307.629281 239.522956,305.599451 237.087788,303.805565 C234.48304,301.886798 231.40712,300.84834 228.289458,300.014605 C225.307981,299.216697 222.261282,298.4193 219.216669,299.593899 C217.019957,300.440941 214.796111,301.346329 212.818026,302.584904 C209.227105,304.834299 206.847768,307.986011 206.519044,312.341494 C206.400599,313.917862 206.233106,315.490136 206.10266,317.065992 C205.237019,327.550373 209.856377,334.767374 219.558438,339.242621 C223.189536,340.917256 227.033001,341.058003 230.961516,340.985326 C234.68184,340.916744 237.666969,339.281006 240.107876,336.867833 C242.443906,334.55958 244.847767,332.143336 245.573569,328.440407 C248.151706,330.715392 251.011085,331.973416 254.076569,332.859867 C256.253454,333.488878 257.26989,332.629553 256.938557,330.434921 M252.632426,323.430167 C252.620425,323.423002 252.607902,323.419419 252.595901,323.41123 C250.170647,321.855847 247.480326,321.189473 244.590684,321.430023 C244.712781,322.181356 244.867229,322.910171 245.016981,323.568867 C245.546071,323.628749 246.079335,323.859574 246.550506,324.257249 C246.807746,324.473743 247.018025,324.709687 247.222043,324.937953 C247.39684,325.132952 247.561203,325.317202 247.73287,325.463068 C249.335792,326.821405 250.857315,328.111673 252.705998,328.610685 C252.704954,328.491434 252.703389,328.373206 252.702345,328.254467 C252.692431,327.279985 252.683039,326.358219 252.726347,325.422635 L252.632426,323.430167 Z M237.615312,320.743381 C237.195797,321.673848 236.290501,322.159553 234.84568,322.227112 L234.606703,322.238372 L234.597832,322.47278 C234.538349,324.001038 233.897598,325.399296 232.693319,326.628659 C231.515651,327.831407 230.359899,327.689636 228.761151,327.039128 C225.090397,325.54465 222.26963,321.695856 221.741584,317.463206 C221.711321,317.216514 221.778109,317.03124 221.941428,316.910965 C222.060917,316.822422 222.226844,316.776871 222.401642,316.776871 C222.53261,316.776871 222.668274,316.802462 222.793502,316.854154 C222.964125,316.925807 223.258934,317.107499 223.311112,317.525134 C223.604355,319.880474 224.912991,322.300301 226.810721,323.997455 C227.933079,325.002134 228.950037,325.610673 229.831331,325.80516 C230.563395,325.968938 231.256846,325.772404 231.836027,325.243195 C232.711581,324.442728 233.226583,322.909864 233.034566,321.679478 C232.988127,321.383141 233.075787,321.066332 233.256324,320.872357 C233.388858,320.730586 233.563134,320.667634 233.766108,320.677358 C234.671404,320.73161 235.248498,320.550942 235.537044,320.117952 C236.060916,319.331304 235.366421,318.013399 234.808111,316.954469 C234.624965,316.605416 234.451211,316.276323 234.367725,316.047545 C234.20232,315.588966 234.477822,315.309007 234.791414,315.19948 C235.122226,315.084835 235.686797,315.115544 235.889249,315.674949 C236.101615,316.259434 236.458516,316.809627 236.804459,317.341907 C237.516173,318.436664 238.188231,319.471027 237.615312,320.743381 M215.287632,315.709241 C214.946907,315.711288 213.741585,315.6468 213.731671,314.733735 C213.724888,314.17177 213.908556,313.663033 214.235715,313.337523 C214.442863,313.132289 214.678188,313.028392 214.935428,313.02788 L214.938037,313.02788 C215.432166,313.02788 215.876205,313.1978 216.188754,313.506932 C216.375031,313.691694 216.596268,314.010039 216.59105,314.477319 C216.581658,315.313101 216.167883,315.704122 215.287632,315.709241 M242.790892,319.05288 C242.770021,318.130091 242.892118,317.217538 243.010564,316.335693 C243.107094,315.61558 243.201015,314.875506 243.219277,314.138503 C242.560785,313.925591 242.032739,313.434255 241.626269,312.992565 C237.797415,308.82645 233.878292,304.97868 228.065091,303.683294 C227.592876,303.577862 227.122226,303.460658 226.652098,303.343966 C225.232323,302.990818 223.861073,302.649954 222.500259,302.649954 C221.681057,302.649954 220.86603,302.773812 220.045785,303.09318 C218.373987,303.743687 216.751759,304.400849 215.28711,305.282182 C212.009782,307.2552 210.382336,309.600303 210.166317,312.662449 C210.101616,313.58575 210.010826,314.51724 209.923166,315.418534 C209.858986,316.076207 209.794807,316.73388 209.740019,317.392576 C209.00326,326.256062 212.876466,332.404921 221.580353,336.189739 C224.466865,337.44418 227.507825,337.417566 230.728279,337.392999 L230.886901,337.391463 C233.10605,337.374062 235.229192,336.455879 237.196841,334.663528 C240.53574,331.622367 242.195014,328.819196 242.578004,325.575358 C242.662012,324.867016 242.992301,324.295327 243.501563,323.939109 C243.101354,322.173884 242.826895,320.633343 242.790892,319.05288" id="Combined-Shape-Copy-7" transform="translate(231.500000, 320.000000) scale(-1, 1) rotate(-21.000000) translate(-231.500000, -320.000000) "></path>
            <path d="M439.546018,72.5946712 L439.39157,69.3139836 C436.736209,69.5519742 434.036496,69.6487059 431.354002,69.5883126 C431.35035,70.0141366 431.367047,70.4491732 431.404615,70.9072411 C434.269212,70.6400775 437.054498,71.2250737 439.546018,72.5946712 M431.757237,65.6566567 C432.564438,65.5138624 433.246932,65.1126051 433.965429,64.6903637 C434.410511,64.42883 434.870725,64.1580837 435.374247,63.9436362 C435.857941,63.7378895 436.335374,63.5782055 436.796632,63.4246632 C437.53287,63.1789955 438.232583,62.9343514 438.911424,62.5320705 L438.558698,59.416185 C438.179882,59.7391357 437.800023,60.0610628 437.420164,60.3829898 C436.007172,61.5811317 434.546175,62.8202183 433.172317,64.0915487 C432.790892,64.4457196 432.321808,64.8311109 431.786979,65.0557944 C431.781761,65.2641002 431.772369,65.4672879 431.757237,65.6566567 M435.341427,65.6911526 C435.122799,65.8088683 434.910955,65.9281195 434.702241,66.0448117 C433.71659,66.5996113 432.782596,67.1252378 431.574665,67.2322057 C431.536574,67.5060228 431.498484,67.7793281 431.464046,68.0541689 C434.091231,68.1099559 436.729374,68.0137361 439.319512,67.782399 L439.186457,64.963362 L439.098275,64.1838788 C438.523269,64.4592314 437.940957,64.6685607 437.370647,64.8645831 C436.699632,65.0954084 436.005659,65.3339108 435.341427,65.6911526 M441.291544,76.4586149 C441.248236,77.3629791 441.25815,78.2745087 441.267542,79.2392663 C441.271716,79.6661139 441.276412,80.1001269 441.276412,80.5453996 C441.276412,80.7654769 441.179882,80.9748063 441.011868,81.1206715 C440.844375,81.2670485 440.617399,81.3361426 440.397727,81.3074813 C437.662011,80.9758299 435.65575,79.2750928 433.715755,77.6301428 C433.455385,77.4090418 433.246671,77.1756575 433.04474,76.9499503 C432.868899,76.7534161 432.703493,76.5676299 432.530261,76.4217647 C432.186927,76.1320815 431.802893,76.018972 431.522695,76.125428 C431.249802,76.2298368 431.160055,76.5241263 431.132922,76.7523925 C430.577222,81.4605118 427.516434,84.7355695 425.261803,86.7889422 C422.998302,88.8505037 420.521913,89.9058513 417.899946,89.9268354 L417.741323,89.9283708 C417.295719,89.9319535 416.847506,89.9355361 416.398772,89.9355361 C413.578005,89.9355361 410.702972,89.7917181 407.946385,88.5930644 C398.558438,84.5108859 394.382597,77.8625035 395.179884,68.2676439 C395.235193,67.601782 395.299894,66.9369438 395.364596,66.2726173 C395.451212,65.3810483 395.540959,64.4597943 395.604616,63.5564537 C395.855073,60.0050198 397.773675,57.1972426 401.468952,54.973438 C403.039002,54.0281291 404.730105,53.3423067 406.468691,52.6656969 C409.1204,51.6344043 411.619748,52.2547153 414.037175,52.8560894 C414.49478,52.9691989 414.952385,53.083332 415.411555,53.1856936 C421.66723,54.5803696 425.944297,58.7812875 429.789327,62.9653158 C430.236496,63.4510213 430.597571,63.7028307 430.863159,63.7135787 C431.166316,63.7386572 431.549828,63.4822416 432.097702,62.9750401 C433.496606,61.6801665 434.971169,60.4308439 436.396162,59.2214422 C437.010824,58.7009337 437.625486,58.1799134 438.234931,57.6547987 C438.482256,57.4408631 438.840201,57.4029893 439.129269,57.5590907 L439.620268,57.8247189 C439.84307,57.9449937 439.991779,58.1640474 440.019955,58.4117623 L440.745236,64.8185716 C440.746801,64.8349494 440.748366,64.8513273 440.748888,64.8682169 L441.291544,76.3869618 C441.293109,76.4110167 441.293109,76.4345599 441.291544,76.4586149 M443.938557,81.4349215 C443.669316,79.6497361 443.497127,77.8456138 443.387031,76.0435388 C443.14701,72.1067137 443.058828,68.1596525 442.743149,64.2294809 C442.531304,61.5952065 442.163446,58.9573494 441.622877,56.3696495 C441.224234,54.4600948 439.424077,54.0583258 437.910381,55.2938296 C435.626008,57.1573216 433.301458,58.974239 431.211711,60.638126 C428.777587,58.6292806 426.522956,56.5994512 424.087788,54.805565 C421.48304,52.8867979 418.40712,51.84834 415.289458,51.0146052 C412.307981,50.2166969 409.261282,49.4193005 406.216669,50.5938992 C404.019957,51.440941 401.796111,52.3463289 399.818026,53.5849036 C396.227105,55.8342986 393.847768,58.9860106 393.519044,63.3414944 C393.400599,64.9178623 393.233106,66.4901356 393.10266,68.0659916 C392.237019,78.5503731 396.856377,85.7673739 406.558438,90.2426208 C410.189536,91.9172557 414.033001,92.0580028 417.961516,91.9853261 C421.68184,91.9167439 424.666969,90.2810063 427.107876,87.8678329 C429.443906,85.55958 431.847767,83.1433357 432.573569,79.4404067 C435.151706,81.7153921 438.011085,82.9734155 441.076569,83.8598665 C443.253454,84.4888782 444.26989,83.629553 443.938557,81.4349215 M439.632426,74.4301673 C439.620425,74.423002 439.607902,74.4194193 439.595901,74.4112304 C437.170647,72.8558467 434.480326,72.189473 431.590684,72.4300226 C431.712781,73.1813564 431.867229,73.9101706 432.016981,74.5688672 C432.546071,74.6287487 433.079335,74.859574 433.550506,75.2572486 C433.807746,75.4737432 434.018025,75.7096866 434.222043,75.9379529 C434.39684,76.1329516 434.561203,76.3172024 434.73287,76.4630676 C436.335792,77.8214053 437.857315,79.1116726 439.705998,79.6106852 C439.704954,79.491434 439.703389,79.3732064 439.702345,79.254467 C439.692431,78.279985 439.683039,77.3582193 439.726347,76.4226348 L439.632426,74.4301673 Z M424.615312,71.7433814 C424.195797,72.6738478 423.290501,73.1595534 421.84568,73.227112 L421.606703,73.2383718 L421.597832,73.4727797 C421.538349,75.0010376 420.897598,76.3992963 419.693319,77.6286585 C418.515651,78.8314067 417.359899,78.689636 415.761151,78.0391283 C412.090397,76.5446497 409.26963,72.6958556 408.741584,68.4632056 C408.711321,68.2165143 408.778109,68.0312399 408.941428,67.9109651 C409.060917,67.8224223 409.226844,67.7768714 409.401642,67.7768714 C409.53261,67.7768714 409.668274,67.8024618 409.793502,67.8541544 C409.964125,67.9258075 410.258934,68.1074992 410.311112,68.5251344 C410.604355,70.8804735 411.912991,73.3003005 413.810721,74.997455 C414.933079,76.0021335 415.950037,76.6106729 416.831331,76.8051599 C417.563395,76.9689384 418.256846,76.7724042 418.836027,76.243195 C419.711581,75.4427277 420.226583,73.9098635 420.034566,72.6794777 C419.988127,72.3831411 420.075787,72.0663321 420.256324,71.8723569 C420.388858,71.7305862 420.563134,71.6676338 420.766108,71.6773582 C421.671404,71.7316098 422.248498,71.5509417 422.537044,71.1179523 C423.060916,70.3313038 422.366421,69.0133989 421.808111,67.9544687 C421.624965,67.6054159 421.451211,67.2763235 421.367725,67.0475454 C421.20232,66.5889657 421.477822,66.3090069 421.791414,66.19948 C422.122226,66.0848351 422.686797,66.1155435 422.889249,66.6749494 C423.101615,67.2594338 423.458516,67.8096271 423.804459,68.3419072 C424.516173,69.4366639 425.188231,70.4710274 424.615312,71.7433814 M402.287632,66.7092405 C401.946907,66.7112877 400.741585,66.6468 400.731671,65.733735 C400.724888,65.1717701 400.908556,64.6630332 401.235715,64.3375235 C401.442863,64.1322886 401.678188,64.0283916 401.935428,64.0278798 L401.938037,64.0278798 C402.432166,64.0278798 402.876205,64.1978 403.188754,64.5069318 C403.375031,64.6916944 403.596268,65.0100388 403.59105,65.4773193 C403.581658,66.3131013 403.167883,66.7041224 402.287632,66.7092405 M429.790892,70.0528804 C429.770021,69.1300911 429.892118,68.2175379 430.010564,67.3356932 C430.107094,66.6155797 430.201015,65.8755057 430.219277,65.1385026 C429.560785,64.9255906 429.032739,64.4342551 428.626269,63.9925651 C424.797415,59.8264501 420.878292,55.9786796 415.065091,54.6832942 C414.592876,54.5778618 414.122226,54.4606578 413.652098,54.3439657 C412.232323,53.9908183 410.861073,53.6499544 409.500259,53.6499544 C408.681057,53.6499544 407.86603,53.7738118 407.045785,54.0931799 C405.373987,54.7436875 403.751759,55.4008486 402.28711,56.2821815 C399.009782,58.2552004 397.382336,60.6003034 397.166317,63.6624491 C397.101616,64.5857502 397.010826,65.5172403 396.923166,66.4185337 C396.858986,67.0762067 396.794807,67.7338796 396.740019,68.3925762 C396.00326,77.2560625 399.876466,83.4049206 408.580353,87.1897388 C411.466865,88.4441796 414.507825,88.4175656 417.728279,88.3929988 L417.886901,88.3914634 C420.10605,88.3740619 422.229192,87.4558788 424.196841,85.6635281 C427.53574,82.6223666 429.195014,79.8191956 429.578004,76.5753582 C429.662012,75.8670163 429.992301,75.2953271 430.501563,74.9391089 C430.101354,73.173884 429.826895,71.6333427 429.790892,70.0528804" id="Combined-Shape-Copy-10" transform="translate(418.500000, 71.000000) scale(-1, 1) rotate(32.000000) translate(-418.500000, -71.000000) "></path>
            <path d="M107.937786,291.129362 C107.32091,292.085813 106.828655,293.113439 106.30836,294.20185 C106.031078,294.781643 105.743929,295.381697 105.438087,295.965127 C105.17742,296.461796 104.535101,297.626058 103.969631,298.48172 C103.83047,298.693168 103.597324,298.823569 103.344446,298.831362 L88.6863632,299.286988 C88.0944112,299.287508 87.5471152,299.292183 87.0143583,299.297379 C86.5086028,299.301535 86.0132324,299.306211 85.5246123,299.306211 C84.6735514,299.306211 83.8427415,299.292703 83.0129701,299.242309 C82.2995121,299.199188 81.1452056,298.517567 81.0133146,297.665022 C80.5361181,294.558246 78.446112,292.702492 76.161904,290.921551 C72.5587853,288.112983 69.9126558,284.682022 68.2951728,280.723739 C67.7120481,279.295557 67.5313469,277.435128 67.7987639,275.619378 C68.1217412,273.429049 68.5402617,271.148841 69.7740144,269.448946 C70.2621152,268.776677 70.7154259,268.03635 71.1536781,267.320441 C71.9060803,266.091238 72.6839261,264.819434 73.6995912,263.779339 C75.065235,262.38077 76.8805546,261.465882 78.6361597,260.581645 C79.0396218,260.37851 79.4404876,260.176414 79.8335645,259.969641 C85.6258673,256.920533 91.8065737,256.831174 98.7272201,259.697928 C101.393601,260.802964 104.47279,262.246732 107.088283,264.577334 C110.643111,267.745934 112.334848,271.331715 112.260075,275.54041 C112.150512,281.693698 110.737096,286.792863 107.937786,291.129362 M108.582183,262.393758 C106.7975,260.957264 104.799921,259.765467 102.821036,258.59549 C96.9544795,255.127123 90.55257,254.531224 83.9403617,255.293371 C83.2180763,255.377015 82.5108494,255.753154 81.8378934,256.078378 C79.6751914,257.124188 77.5758386,258.312867 75.3695191,259.252174 C72.848011,260.325518 71.0062093,261.97346 69.967697,264.524342 C69.8181512,264.891648 69.4821924,265.187779 69.2132177,265.500535 C68.5438965,266.278268 67.7380109,266.970279 67.2099274,267.833215 C65.5052093,270.616845 65.0664378,273.772457 65.0036078,276.945733 C64.9724525,278.51159 65.1370567,280.213043 65.7331628,281.634991 C67.6461026,286.201121 70.6879053,290.057057 74.5537676,293.072396 C76.7003727,294.746834 78.1641559,296.543362 78.6086392,299.188797 C78.616428,299.235035 78.6382368,299.278676 78.6522567,299.323875 C79.3345593,301.472642 79.9867451,301.978142 82.2174697,301.99113 C85.1403627,302.008275 88.0627366,301.995287 89.9980044,301.995287 C93.0143636,301.737081 95.0275198,301.486669 97.0479456,301.414455 C98.8528801,301.350033 100.665084,301.494981 102.474173,301.520438 C102.884904,301.526153 103.374044,301.544856 103.695463,301.345357 C105.338909,300.321887 106.869157,299.198668 107.77474,297.362137 C108.899968,295.080891 110.1898,292.88121 111.377859,290.630096 C111.971368,289.505318 112.732598,288.398724 113.009362,287.189783 C113.76436,283.890781 114.506377,280.565283 114.882319,277.208094 C115.560467,271.156634 113.287683,266.180597 108.582183,262.393758 M105.041947,274.807824 C103.368903,274.807824 103.371499,272.210185 105.041947,272.210185 C106.715509,272.210185 106.712394,274.807824 105.041947,274.807824 M100.346832,268.767793 C98.6732694,268.767793 98.6758657,266.170154 100.346832,266.170154 C102.019876,266.170154 102.017279,268.767793 100.346832,268.767793 M80.4458195,274.161012 C78.7727761,274.161012 78.7753723,271.563373 80.4458195,271.563373 C82.1193822,271.563373 82.1162666,274.161012 80.4458195,274.161012 M78.6850218,266.865802 C80.3585844,266.865802 80.3559882,269.463441 78.6850218,269.463441 C77.0119783,269.463441 77.0145746,266.865802 78.6850218,266.865802 M74.9962258,276.34199 C73.3226631,276.34199 73.3257787,273.74435 74.9962258,273.74435 C76.6692692,273.74435 76.666673,276.34199 74.9962258,276.34199 M106.0519,265.741024 C103.610357,263.564722 100.677079,262.193169 98.1306467,261.138008 C91.6643494,258.459842 85.9167027,258.529458 80.5584981,261.348936 C80.1576323,261.560384 79.7484584,261.766636 79.3372075,261.973928 C77.6958387,262.800497 75.9983902,263.655639 74.8144861,264.868737 C73.9213655,265.783625 73.2219274,266.925548 72.4819873,268.134489 C72.0281574,268.876375 71.5587498,269.642678 71.0348204,270.364822 C70.0077316,271.778977 69.6343864,273.848256 69.3404874,275.84688 C69.1151302,277.371694 69.2636375,278.974437 69.7377184,280.134023 C71.2503117,283.837218 73.733914,287.053095 77.1189451,289.692296 C79.5412752,291.58078 81.9537395,293.726949 82.5404989,297.3465 C82.6505813,297.476901 82.9694046,297.671205 83.1096037,297.68679 C84.3594534,297.762641 85.6435739,297.751212 87.0003903,297.738743 C87.0014288,297.738743 87.0024674,297.738743 87.0029866,297.738743 C88.9278693,292.810502 87.2818272,287.75134 86.5709655,282.752443 C86.4499788,281.904054 88.0093051,281.913925 88.128734,282.752443 C88.840115,287.756016 90.4056724,292.792838 88.6407206,297.728872 C88.6479902,297.728872 88.6547405,297.728872 88.6620101,297.728872 L92.6950729,297.603146 C92.9157568,295.253322 93.2169254,293.042212 92.8908325,290.651345 C92.5366998,288.055264 92.0039429,285.532956 92.3617105,282.910899 C92.4764661,282.070303 94.0352731,282.06303 93.919479,282.910899 C93.5617115,285.531398 94.0903143,288.054225 94.4486011,290.651345 C94.7757325,293.020911 94.4781987,295.225787 94.2575148,297.55483 L98.7220795,297.415597 C99.0486916,295.096944 99.288588,292.780889 99.0029971,290.444572 C98.6997515,287.966944 98.0506812,285.625432 98.3450995,283.116632 C98.4437582,282.27188 100.002565,282.266165 99.9028681,283.116632 C99.6110461,285.602573 100.254924,287.986686 100.560766,290.444572 C100.849472,292.764264 100.611133,295.064733 100.287118,297.366761 L102.886514,297.286234 C103.32944,296.578118 103.811829,295.711546 104.058475,295.240853 C104.351336,294.682361 104.632253,294.096334 104.903305,293.52849 C105.422042,292.444755 105.957914,291.323614 106.629313,290.284038 C109.266096,286.198991 110.598507,281.367382 110.702358,275.512823 C110.768823,271.78573 109.247402,268.589076 106.0519,265.741024" id="Combined-Shape-Copy-4" transform="translate(90.000000, 278.500000) rotate(23.000000) translate(-90.000000, -278.500000) "></path>
            <path d="M93.347066,193.103576 C92.9346341,193.668498 92.5362624,194.266713 92.1509093,194.84568 C91.5254917,195.784097 90.8792442,196.754765 90.1376999,197.640642 C89.2461804,198.705464 88.0338805,200.049106 86.5627692,200.997926 C81.1980297,204.458727 74.9652043,206.272617 68.0366604,206.389139 C67.9559446,206.390179 67.8741872,206.391219 67.7924299,206.391219 C65.5271788,206.391219 62.9312531,205.868952 60.2655473,204.874876 C50.7004594,201.309518 44.7030119,194.214694 42.9215351,184.35716 C41.9826276,179.163098 42.4440097,174.880923 44.331719,171.265107 C45.2024086,169.597389 46.0090463,167.853724 46.7896466,166.166759 C47.7446973,164.102139 48.7325551,161.966773 49.8526827,159.937005 C50.54059,158.690639 51.6112466,157.674714 52.6464924,156.692082 C53.0313247,156.327431 53.428655,155.949776 53.7931781,155.572641 C54.8221749,154.506259 56.0355163,154.485451 57.1212746,155.51334 L59.1402122,157.422944 C60.7295332,158.925763 62.3188542,160.428582 63.90453,161.934522 C64.7804271,162.76578 65.6511167,163.60276 66.5895035,164.503723 L68.264227,166.110579 L67.9970836,166.47731 C67.9168885,166.58759 67.8283615,166.723879 67.7299402,166.874212 C67.4492574,167.303886 67.0998359,167.839158 66.6394952,168.300564 C63.807671,171.141302 62.1516943,174.691575 60.5681015,178.385419 C59.625028,180.585288 59.8499909,182.659792 61.2570503,184.728053 C65.4922887,190.954165 71.1752049,193.634686 78.6333488,192.916829 L78.7333323,192.907986 C78.9379861,192.889259 79.1499302,192.870532 79.2723059,192.807069 C86.4195636,189.080453 89.2008754,184.736376 88.0245071,179.136048 C87.5990565,177.109922 86.7262839,175.661203 85.4306644,174.830985 C84.0913021,173.971637 82.320761,173.782809 80.1695536,174.269704 C79.195756,174.490263 78.2360186,175.038019 77.3080468,175.567049 L77.0997478,175.686172 C75.8650558,176.387903 75.3010864,177.566126 75.5114683,179.004441 C75.5755202,179.438797 76.1197012,180.099434 76.5514008,180.266414 C76.7498056,180.343401 76.9268597,180.344442 77.0914159,180.270055 C77.3684535,180.14417 77.6241404,179.807089 77.7923418,179.345163 C78.5239919,177.336203 80.6293735,176.144976 82.7894337,176.509107 C84.4730099,176.793649 85.7160339,178.538354 85.744675,180.659154 C85.7925838,184.220871 82.570199,189.37904 78.7406228,190.321098 C76.0613775,190.980175 73.2680886,190.765858 70.8747336,189.718722 C67.0894209,188.060888 64.5127629,185.786633 62.9979088,182.764869 C62.5240287,181.821251 62.4589353,180.36681 62.8463713,179.382097 C64.0227396,176.392585 65.5901892,172.954152 68.2907851,170.113934 C69.1229395,169.23846 69.8280314,168.1778 70.4498038,167.241984 C73.7180143,162.322581 78.3620395,159.274288 84.2522131,158.181376 C87.0569584,157.660669 89.488328,159.052688 91.4978921,160.482161 C93.8907263,162.184211 95.495149,164.445462 96.136189,167.021425 C96.2861642,167.623801 96.4397847,168.226177 96.5944467,168.829073 C97.335991,171.725472 98.1025311,174.720185 98.3806102,177.729464 C98.8477206,182.79348 97.2016381,187.822643 93.347066,193.103576 M76.9648742,158.175654 C75.0547729,159.302378 73.279545,160.716765 71.5631617,162.084855 C70.7945385,162.696595 70.0003988,163.330182 69.2171947,163.917472 L68.8115325,164.221261 L68.4964804,163.824359 C68.1975714,163.447744 67.8903304,163.047721 67.573716,162.635733 C66.8389415,161.67859 66.079171,160.689195 65.2418092,159.75338 C62.8989668,157.13372 60.2738793,154.443836 56.9582807,152.517586 C56.3630664,152.171662 55.8428398,152 55.3522958,152 C54.9388224,152 54.5456581,152.122244 54.1462448,152.364651 C50.88897,154.340319 48.7815053,156.445514 47.5140062,158.988705 C46.7073685,160.605965 45.9335379,162.277845 45.1847032,163.895104 C44.1973662,166.028389 43.1756598,168.23398 42.0628227,170.35426 C39.9918103,174.298834 39.4866854,178.998719 40.5182859,184.723892 C42.7689561,197.213049 51.0998727,205.6666 63.9753516,208.527105 C70.4784449,209.971663 76.7045005,207.835257 82.7243402,205.769076 C83.2430046,205.590652 83.761669,205.412749 84.2798127,205.237446 C84.2850201,205.233284 84.3016841,205.22132 84.3188687,205.210396 C84.363653,205.181786 84.408958,205.153696 84.4558253,205.129247 C87.8594302,203.373618 91.6161017,201.002608 93.6740954,196.727715 C93.9422803,196.171115 94.3411728,195.705028 94.7265258,195.254547 C94.8806671,195.074562 95.035329,194.894578 95.1790553,194.709912 C97.6406282,191.545097 99.310665,188.220585 100.142299,184.828969 C102.014906,177.194712 100.807814,169.534966 96.6522496,162.677348 C92.2160027,155.355723 84.6724562,153.629744 76.9648742,158.175654 M47.7048601,182.713631 C46.3644564,182.713631 46.3623734,184.794377 47.7048601,184.794377 C49.0452639,184.794377 49.0473469,182.713631 47.7048601,182.713631 M50.9371391,178.236646 C49.5967354,178.236646 49.5946524,180.317392 50.9371391,180.317392 C52.2775429,180.317392 52.2796259,178.236646 50.9371391,178.236646 M48.8536289,188.49696 C47.5132251,188.49696 47.5111421,190.577706 48.8536289,190.577706 C50.1940326,190.577706 50.1961156,188.49696 48.8536289,188.49696 M52.382161,192.784025 C51.0417573,192.784025 51.0396743,194.864771 52.382161,194.864771 C53.7225648,194.864771 53.7246478,192.784025 52.382161,192.784025 M52.7673058,185.196429 C51.426902,185.196429 51.424819,187.277175 52.7673058,187.277175 C54.1077095,187.277175 54.1097925,185.196429 52.7673058,185.196429 M59.3140898,198.739328 C57.973686,198.739328 57.971603,200.820074 59.3140898,200.820074 C60.6544935,200.820074 60.6565765,198.739328 59.3140898,198.739328 M57.7692927,194.398424 C56.4288889,194.398424 56.4268059,196.47917 57.7692927,196.47917 C59.1096964,196.47917 59.1117794,194.398424 57.7692927,194.398424 M64.8438541,200.353727 C63.5034503,200.353727 63.5013674,202.434473 64.8438541,202.434473 C66.1842579,202.434473 66.1863408,200.353727 64.8438541,200.353727 M87.9370215,162.33647 C86.5966178,162.33647 86.5945348,164.417216 87.9370215,164.417216 C89.2774253,164.417216 89.2795083,162.33647 87.9370215,162.33647 M92.1753324,166.34794 C90.8349286,166.34794 90.8328456,168.428686 92.1753324,168.428686 C93.5157361,168.428686 93.5178191,166.34794 92.1753324,166.34794 M87.9370215,166.953853 C86.5966178,166.953853 86.5945348,169.034599 87.9370215,169.034599 C89.2774253,169.034599 89.2795083,166.953853 87.9370215,166.953853 M69.3989356,200.820074 C68.0585318,200.820074 68.0564488,202.90082 69.3989356,202.90082 C70.7393393,202.90082 70.7414223,200.820074 69.3989356,200.820074" id="Combined-Shape-Copy-5"></path>
        </g>
    </g>
</svg>