<?xml version="1.0" encoding="UTF-8"?>
<svg width="204px" height="98px" viewBox="0 0 204 98" version="1.1" xmlns="http://www.w3.org/2000/svg" xmlns:xlink="http://www.w3.org/1999/xlink">
    <!-- Generator: Sketch 48.2 (47327) - http://www.bohemiancoding.com/sketch -->
    <title>logo/logo-simple copy</title>
    <desc>Created with Sketch.</desc>
    <defs>
        <linearGradient x1="11.0608849%" y1="62.5172603%" x2="83.5599707%" y2="71.7119045%" id="linearGradient-1">
            <stop stop-color="#2C89EF" offset="0%"></stop>
            <stop stop-color="#0360C6" offset="100%"></stop>
        </linearGradient>
    </defs>
    <g id="Symbols" stroke="none" stroke-width="1" fill="none" fill-rule="evenodd">
        <g id="logo/logo-simple-copy" fill="url(#linearGradient-1)">
            <path d="M201.063297,79.935 C198.931385,81.98475 196.624615,83.76675 194.158681,84.858 C191.455121,86.07975 188.614813,86.307 186.207165,85.5105 C181.586901,84.084 178.970769,78.0765 176.762637,72.141 C174.514154,66.0615 172.884396,59.56575 169.528484,52.81125 C168.65644,51.12375 167.658857,49.3755 166.224132,47.69025 C164.811824,46.02075 162.84356,44.304 160.21622,43.3545 C158.920484,42.891 157.512659,42.6525 156.17433,42.64575 C154.786681,42.63225 153.224176,42.87975 151.883604,43.47375 C149.137451,44.673 147.413538,46.617 146.252308,48.363 C143.936571,51.92025 142.905363,55.2705 141.759824,58.524 C140.661363,61.773 139.585319,64.905 138.294066,67.89075 C135.725011,73.79025 132.364615,79.4265 127.280308,82.347 C122.357407,85.32375 115.806989,85.245 110.314681,83.39325 C104.782022,81.429 100.350066,77.20125 96.7318681,72.18825 C92.9926154,67.15275 90.2912967,61.4085 86.4466813,55.2975 C85.4378901,53.7585 84.3506374,52.179 82.7141538,50.48025 C81.877978,49.641 80.8848791,48.732 79.3761758,47.922 C78.6431209,47.526 77.7307253,47.157 76.7152088,46.959 C76.2085714,46.8555 75.6772747,46.797 75.1302857,46.7835 C74.5967473,46.77 74.1730549,46.79475 73.6843516,46.851 C71.751956,47.0535 69.9540659,47.98725 68.7255824,48.9795 C67.4814066,50.01225 66.6631648,51.08325 66.0421978,52.10925 C64.8025055,54.15675 64.2241319,56.02875 63.6143736,57.78825 L60.4624615,67.54875 C59.437978,70.557 58.2565714,73.518 56.6156044,75.354 C55.8018462,76.2675 54.9925714,76.7895 54.1967473,76.9605 C53.8111648,77.06175 53.3224615,77.073 52.9234286,77.01675 C52.5221538,76.956 52.1746813,76.85025 51.8204835,76.65 C50.3745495,75.91875 48.8344615,73.3785 47.7965275,70.57725 C46.6846154,67.749 45.8529231,64.59675 44.8956923,61.287 C44.406989,59.6265 43.8958681,57.921 43.1717802,56.112 C42.3916484,54.30075 41.6854945,52.35675 39.4863297,50.05725 C38.4125275,48.95025 36.4868571,47.679 34.1688791,47.40225 L33.325978,47.337 L32.7632967,47.34825 C32.4023736,47.3595 32.0459341,47.3955 31.6625934,47.4585 C30.9205714,47.562 30.135956,47.74875 29.3804835,48.02325 C27.8516044,48.561 26.454989,49.4655 25.4058462,50.44425 C24.3454945,51.42525 23.5519121,52.458 22.9399121,53.43 C20.5793407,57.345 19.649011,60.7155 18.6155604,64.0995 C16.7123077,70.81125 15.4120879,77.35875 14.149978,83.98275 C13.798022,85.85925 13.7105934,86.72775 13.1770549,87.81 C12.6861099,88.82025 11.9373626,89.68425 10.9218462,90.31875 C9.32795604,91.3875 7.0323956,91.61475 4.65613187,91.18725 C3.63164835,91.041 1.51767033,92.54175 2.43230769,93.237 C3.69665934,94.10325 5.1269011,94.79625 6.71854945,95.22375 C8.61507692,95.757 10.7738901,95.784 12.8721758,95.15625 C14.9547692,94.52625 16.932,93.219 18.3667253,91.4775 C19.8059341,89.80575 20.6712527,87.38475 21.2092747,86.03475 C23.7110769,79.755 25.8721319,73.3065 28.078022,67.218 C29.1832088,64.257 30.4094505,61.17 31.7365714,59.442 C32.1737143,58.86825 32.4898022,58.641 32.6781099,58.55775 C33.039033,59.001 33.4918681,59.667 33.872967,60.40275 C34.5454945,61.6515 35.2112967,63.096 35.8726154,64.59 C37.2131868,67.596 38.5089231,70.8315 40.2059341,74.10975 C41.0667692,75.7545 42.0598681,77.39925 43.3264615,79.044 C44.5840879,80.66625 46.2586813,82.3245 48.5811429,83.42025 C49.7289231,83.96475 51.0313846,84.2865 52.297978,84.372 C53.5668132,84.4485 54.7683956,84.3405 56.0080879,84.0165 C58.4785055,83.355 60.5072967,81.84075 61.9352967,80.27475 C64.8114725,77.091 66.3717363,73.76775 67.9118242,70.602 C69.425011,67.443 70.6265934,64.2705 72.1689231,61.6155 C72.9356044,60.31725 73.8502418,59.15175 74.6012308,58.488 C74.6303736,58.4655 74.6483077,58.45425 74.6774505,58.43175 C74.7334945,58.479 74.7760879,58.50375 74.8366154,58.56 C75.5808791,59.2305 76.5022418,60.36675 77.3967033,61.58625 C81.0485275,66.60825 84.8886593,72.681 89.7644835,77.98875 C94.5977143,83.29875 100.906022,88.09575 108.328484,89.99925 C112.007209,90.9825 115.762154,91.221 119.487956,90.85875 C123.233934,90.50325 126.993363,89.26125 130.22822,87.2385 C133.45411,85.191 136.135253,82.50225 138.278374,79.5885 C140.464088,76.6905 142.196967,73.58775 143.763956,70.494 C145.346637,67.40475 146.792571,64.3065 148.343868,61.37925 C149.890681,58.497 151.529407,55.6035 153.25556,53.772 C154.116396,52.86975 154.892044,52.37025 155.304527,52.35675 C155.526462,52.34325 155.647516,52.32075 155.934462,52.3545 C156.266242,52.386 156.528527,52.4625 156.797538,52.58625 C157.848923,52.93725 159.64233,54.86325 161.07033,57.41025 C162.531956,59.946 163.803033,62.925 165.056176,65.976 C166.33622,69.02925 167.638681,72.186 169.109275,75.36525 C170.584352,78.549 172.285846,81.753 174.67556,84.786 C175.881626,86.28675 177.271516,87.76275 179.008879,88.96875 C180.699165,90.17475 182.889363,91.068 184.91367,91.35825 C189.074374,92.10975 193.230593,90.78 196.308527,88.66725 C199.086066,86.7435 201.168659,84.26175 202.867912,81.64275 C203.878945,80.1465 202.542857,78.26325 201.063297,79.935 M108.193199,75.12946 C112.134779,77.1634793 117.219329,77.741757 121.764575,75.8417017 C124.023882,74.9218159 126.079007,73.4214197 127.708016,71.532528 C129.339245,69.6391708 130.488872,67.3617837 131.196848,64.9950873 C132.592824,60.2572289 132.19334,54.9276965 129.807529,50.6386174 C127.510494,46.3406073 123.733146,42.8329846 119.167926,41.127177 C114.651531,39.3901111 109.289562,39.6312462 105.132704,42.0559937 C100.9248,44.4137592 98.2105249,48.7006056 97.3605107,53.0722958 C95.6360693,61.9250801 100.236799,71.0457923 108.193199,75.12946 M101.381988,54.6776304 C102.280828,51.5004521 104.575645,48.9261115 107.383133,47.8856582 C110.179524,46.7916193 113.275529,47.1734165 115.818914,48.5934344 C118.373395,49.9777285 120.395231,52.3042358 121.542639,54.9634202 C122.630125,57.6203718 123.346977,60.4827349 122.88757,63.3317016 C122.432602,66.14941 120.901244,68.7259832 118.437757,70.288896 C116.003121,71.8719033 112.645231,72.2537006 109.569201,71.1105415 C106.475415,70.0365972 103.854353,67.5225404 102.347409,64.4860242 C100.856,61.4338789 100.438761,57.8481106 101.381988,54.6776304 M160.970931,72.773 C161.145347,69.62975 157.994667,67.256 153.933889,67.47425 C149.873111,67.69025 146.438444,70.415 146.266264,73.55825 C146.091847,76.7015 149.242528,79.07525 153.303306,78.857 C157.364083,78.641 160.796514,75.91625 160.970931,72.773 M4.30675,22.19075 C4.74279167,21.0545 5.21461111,19.90475 5.72668056,18.746 C6.24098611,17.58275 6.93194444,16.55 7.8085,15.65 C8.68281944,14.74775 9.66447222,14.2055 10.7579306,14.01875 C11.4600694,13.8995 12.1063056,15.61625 12.7055833,19.16675 C13.1036111,21.51575 13.4256111,24.623 13.6738194,28.4885 C13.9287361,32.35625 14.2507361,35.47475 14.6487639,37.85075 C15.3084167,41.76575 16.7059861,43.54325 18.8325278,43.181 C20.2077361,42.947 21.553875,42.0065 22.8642361,40.3595 C24.1745972,38.7125 25.3150139,36.7325 26.28325,34.41725 C27.2581944,32.102 28.1615833,29.627 28.9956528,26.9855 C29.8341944,24.344 30.5072639,21.87125 31.012625,19.5695 C31.5202222,17.26775 31.9137778,15.35525 32.1888194,13.82975 C32.4683333,12.30425 32.5890833,11.46275 32.5644861,11.3075 C32.3587639,10.10825 32.1150278,9.35675 31.8220972,9.0575 C31.5336389,8.75825 31.052875,8.66375 30.3753333,8.78075 C29.9616528,8.8505 29.0135417,11.15675 27.5377083,15.6905 C26.0574028,20.22875 24.5592083,24.7625 23.0386528,29.2895 C21.5180972,33.81875 20.5140833,36.125 20.0199028,36.20825 C20.0199028,36.0485 20.0512083,35.19125 20.1071111,33.6365 C20.16525,32.08175 20.1697222,30.27725 20.1160556,28.2185 C20.064625,26.1575 19.8857361,24.227 19.5793889,22.42475 C18.0946111,13.60025 13.9153194,9.773 7.03704167,10.9475 C6.49143056,11.03975 5.97041667,11.22875 5.47176389,11.51675 C4.970875,11.8025 4.53036111,12.14 4.14127778,12.52925 C3.75219444,12.9185 3.39441667,13.38875 3.05676389,13.94225 C2.72581944,14.49575 2.43288889,15.02675 2.18468056,15.542 C1.93870833,16.05275 1.70838889,16.658 1.48925,17.35325 C1.27234722,18.04625 1.10016667,18.647 0.970472222,19.151 C0.843013889,19.65725 0.717791667,20.25125 0.590333333,20.9285 C0.462875,21.608 0.375666667,22.121 0.328708333,22.46525 C0.279513889,22.8095 0.219138889,23.24375 0.149819444,23.76575 C0.0737916667,24.29 0.0313055556,24.58025 0.0134166667,24.63425 C-0.0134166667,24.80075 -0.00447222222,25.01225 0.04025,25.27325 C0.100625,25.64 0.275041667,25.95275 0.559027778,26.2115 C0.843013889,26.4725 1.14041667,26.576 1.45123611,26.52425 C1.97001389,26.4365 2.46866667,25.97525 2.94495833,25.14275 C3.41677778,24.308 3.87070833,23.32475 4.30675,22.19075 M38.7137917,18.278 C39.2817639,18.18125 39.7915972,17.7245 40.2432917,16.91 C40.69275,16.09325 40.8582222,15.33275 40.7397083,14.6285 C40.6882778,14.31575 40.5652917,14.05475 40.3685139,13.8455 C40.1717361,13.6385 39.9324722,13.5575 39.6440139,13.607 C38.9977778,13.71725 38.2464444,14.2145 37.3944861,15.09875 C36.5425278,15.98075 36.1512083,16.63325 36.2205278,17.0495 C36.4038889,18.12275 37.2334861,18.53 38.7137917,18.278 M38.8792639,20.222 C38.2553889,20.33 37.6963611,20.60675 37.1977083,21.05675 C36.6990556,21.50225 36.4687361,21.99275 36.5045139,22.52375 L36.5000417,24.173 C36.4732083,25.28225 36.5156944,26.77175 36.6342083,28.646 C36.74825,30.52025 36.9360833,32.2145 37.1887639,33.7265 C38.03625,38.7665 39.5389167,41.102 41.6922917,40.73525 C42.6538194,40.571 43.5750972,40.17275 44.4516528,39.53825 C45.3349167,38.906 46.0996667,38.177 46.750375,37.35575 C47.4010833,36.53225 48.0115417,35.58275 48.5929306,34.50275 C49.1698472,33.425 49.6416667,32.45075 49.9994444,31.58225 C50.3616944,30.716 50.6971111,29.8115 51.0079306,28.87325 C51.0817222,28.64375 51.1309167,28.4885 51.1935278,28.29725 C51.8777778,29.80475 52.6291111,31.19075 53.4654167,32.4215 C56.1308611,36.33425 59.248,38.06225 62.83025,37.6145 L63.0270278,37.58075 C64.4514306,37.33775 65.7260139,36.4085 66.8395972,34.79525 C67.0743889,34.4555 67.2443333,34.06625 67.4522917,33.7085 C68.2729444,34.694 69.4133611,35.081 70.8959028,34.829 C71.6226389,34.70525 72.4656528,34.2395 73.4204722,33.43175 C74.382,32.62175 75.1422778,31.44725 75.7147222,29.897 C76.3609583,32.33825 77.1368889,34.568 78.0380417,36.593 C78.9369583,38.6135 80.0237083,40.4495 81.2915833,42.101 C82.5572222,43.7525 84.0375278,44.963 85.7459167,45.7325 C87.4498333,46.50425 89.2879167,46.72025 91.2624028,46.38275 C93.5164028,46.00025 95.372375,45.07775 96.821375,43.62425 C98.2726111,42.16625 98.9277917,41.0345 98.7913889,40.2245 C98.7735,40.11875 98.7175972,40.0355 98.6303889,39.9725 C98.5677778,39.9275 98.4850417,39.914 98.3799444,39.932 C98.2234167,39.959 97.8388056,40.1975 97.223875,40.65425 C96.6022361,41.10875 95.7212083,41.615 94.5763194,42.17075 C93.4291944,42.731 92.1009444,43.1405 90.5982778,43.39475 C89.0911389,43.6535 87.7338194,42.90875 86.5196111,41.1695 C85.3054028,39.43025 84.3215139,37.19825 83.5701806,34.48025 C82.8188472,31.76 82.1524861,29.02175 81.566625,26.261 C80.9762917,23.5025 80.4127917,21.086 79.8671806,19.016 C79.3170972,16.94825 78.8027917,15.8345 78.3220278,15.67475 C78.1520833,15.62525 77.8971667,15.62525 77.56175,15.68375 C76.5487917,15.85475 75.7437917,16.47575 75.1512222,17.5445 C74.6883472,16.847 73.9750278,16.577 73.0157361,16.7435 C72.3695,16.8515 71.7187917,17.04275 71.0725556,17.315 C70.4218472,17.58725 69.713,18.05525 68.9437778,18.7235 C68.1767917,19.39175 67.5305556,20.20175 67.0095417,21.149 C66.4907639,22.09625 66.1329861,23.37425 65.9317361,24.9785 C65.7729722,26.2745 65.8355833,27.72575 66.0234167,29.26925 C65.9250278,29.5055 65.8355833,29.78225 65.7349583,30.00725 C65.3369306,30.896 64.8561667,31.643 64.2881944,32.24825 C63.7246944,32.85575 63.1187083,33.2135 62.4724722,33.326 C61.5646111,33.479 60.515875,32.7095 59.3352083,31.0175 C58.16125,29.3255 57.0789722,27.071 56.0950833,24.25625 C58.4452361,19.6415 59.2234028,14.273 58.4273472,8.1485 C57.9778889,5.45975 57.1259306,3.428 55.8826528,2.0555 C54.6371389,0.683 53.3267778,0.11375 51.9515694,0.34775 C50.292375,0.63125 48.9864861,1.961 48.038375,4.3415 C47.0902639,6.7175 46.8755972,9.90575 47.3876667,13.8995 C47.4569861,14.47775 47.5889167,15.34175 47.7834583,16.48925 C48.3067083,19.59875 48.9999028,22.391 49.8518611,24.89975 C49.809375,24.983 49.7624167,25.05275 49.7199306,25.145 L48.4386389,27.53675 C47.6090417,29.12975 46.7145972,30.73175 45.744125,32.34725 C44.7758889,33.965 44.1587222,34.793 43.9015694,34.84025 C43.4610556,34.9145 42.7969306,32.327 41.9136667,27.07775 L41.0192222,21.752 C40.9096528,21.1265 40.6659167,20.69 40.2768333,20.44925 C39.88775,20.20625 39.4204028,20.12975 38.8792639,20.222 M70.5962639,27.22625 C70.6298056,25.44875 70.8489444,23.696 71.2559167,21.977 C71.6561806,20.25575 72.2509861,19.32875 73.0291528,19.196 C73.4965,19.11725 73.8006111,19.493 73.9414861,20.32775 C74.1024861,21.29525 74.0331667,22.697 73.7268194,24.53525 C73.4204722,26.3735 73.0023194,28.03625 72.4656528,29.52575 C71.92675,31.013 71.44375,31.8095 71.0054722,31.91075 C70.9272083,31.92425 70.8578889,31.733 70.7930417,31.3415 C70.6253333,30.37625 70.5604861,29.00375 70.5962639,27.22625 M53.9774861,5.363 C54.3799861,6.5555 54.6930417,7.8335 54.921125,9.188 C55.3303333,11.61575 55.1693333,14.70725 54.4403611,18.45575 C54.1697917,17.15975 53.9819583,16.21025 53.8813333,15.61175 C53.1478889,11.25125 52.7811667,7.271 52.7901111,3.66875 C53.1791944,3.6035 53.5749861,4.16825 53.9774861,5.363" id="Combined-Shape"></path>
        </g>
    </g>
</svg>